SplineFontDB: 3.2
FontName: IRTitr
FullName: IRTitr
FamilyName: IRTitr
Weight: Book
Copyright: Copyright (c) 2022, Information Technology Organization of Iran (ito.gov.ir)
Version: 1.000
ItalicAngle: 0
UnderlinePosition: -100
UnderlineWidth: 60
Ascent: 1638
Descent: 410
InvalidEm: 0
sfntRevision: 0x00010000
LayerCount: 2
Layer: 0 1 "Back" 1
Layer: 1 1 "Fore" 0
XUID: [1021 420 722297922 63462]
StyleMap: 0x0040
FSType: 0
OS2Version: 3
OS2_WeightWidthSlopeOnly: 0
OS2_UseTypoMetrics: 0
CreationTime: 1356354271
ModificationTime: 1662631343
PfmFamily: 17
TTFWeight: 400
TTFWidth: 5
LineGap: 100
VLineGap: 0
Panose: 2 0 5 6 0 0 0 2 0 2
OS2TypoAscent: 2100
OS2TypoAOffset: 0
OS2TypoDescent: -1300
OS2TypoDOffset: 0
OS2TypoLinegap: 300
OS2WinAscent: 2100
OS2WinAOffset: 0
OS2WinDescent: 1300
OS2WinDOffset: 0
HheadAscent: 2100
HheadAOffset: 0
HheadDescent: -1300
HheadDOffset: 0
OS2SubXSize: 1434
OS2SubYSize: 1331
OS2SubXOff: 0
OS2SubYOff: 293
OS2SupXSize: 1434
OS2SupYSize: 1331
OS2SupXOff: 0
OS2SupYOff: 928
OS2StrikeYSize: 50
OS2StrikeYPos: 250
OS2CapHeight: 2108
OS2XHeight: 709
OS2FamilyClass: 2048
OS2Vendor: 'PARS'
OS2CodePages: 20000041.00000000
OS2UnicodeRanges: 00002003.00000000.00000000.00000000
Lookup: 1 1 0 "'init' Initial Forms in Arabic lookup 0" { "'init' Initial Forms in Arabic lookup 0 subtable"  } ['init' ('arab' <'dflt' > ) ]
Lookup: 1 1 0 "'isol' Isolated Forms in Arabic lookup 1" { "'isol' Isolated Forms in Arabic lookup 1 subtable"  } ['isol' ('arab' <'dflt' > ) ]
Lookup: 1 1 0 "'medi' Medial Forms in Arabic lookup 2" { "'medi' Medial Forms in Arabic lookup 2 subtable"  } ['medi' ('arab' <'dflt' > ) ]
Lookup: 1 1 0 "'fina' Terminal Forms in Arabic lookup 3" { "'fina' Terminal Forms in Arabic lookup 3 subtable"  } ['fina' ('arab' <'dflt' > ) ]
Lookup: 4 1 0 "'ccmp' Glyph Composition/Decomposition in Arabic lookup 4" { "'ccmp' Glyph Composition/Decomposition in Arabic lookup 4 subtable"  } ['ccmp' ('arab' <'dflt' > ) ]

StartChar: quotedbl
Encoding: 34 34 1
Width: 778
Flags: W
LayerCount: 2
Fore
SplineSet
477 1395 m 1,0,1
 481 1421 481 1421 505 1438 c 128,-1,2
 529 1455 529 1455 558 1457.5 c 128,-1,3
 587 1460 587 1460 612.5 1445.5 c 128,-1,4
 638 1431 638 1431 646 1395 c 1,5,-1
 611 997 l 1,6,-1
 509 997 l 1,7,-1
 477 1395 l 1,0,1
137 1395 m 1,8,9
 141 1421 141 1421 165 1438 c 128,-1,10
 189 1455 189 1455 218 1457.5 c 128,-1,11
 247 1460 247 1460 272.5 1445.5 c 128,-1,12
 298 1431 298 1431 306 1395 c 1,13,-1
 271 997 l 1,14,-1
 169 997 l 1,15,-1
 137 1395 l 1,8,9
EndSplineSet
EndChar

StartChar: numbersign
Encoding: 35 35 2
Width: 1082
Flags: W
LayerCount: 2
Fore
SplineSet
244 685 m 1,0,-1
 47 685 l 1,1,-1
 47 906 l 1,2,-1
 288 906 l 1,3,-1
 344 1193 l 1,4,-1
 574 1193 l 1,5,-1
 514 906 l 1,6,-1
 690 906 l 1,7,-1
 747 1193 l 1,8,-1
 975 1193 l 1,9,-1
 919 906 l 1,10,-1
 1027 906 l 1,11,-1
 1027 685 l 1,12,-1
 874 685 l 1,13,-1
 832 483 l 1,14,-1
 1027 483 l 1,15,-1
 1027 262 l 1,16,-1
 788 262 l 1,17,-1
 732 -20 l 1,18,-1
 505 -20 l 1,19,-1
 560 262 l 1,20,-1
 385 262 l 1,21,-1
 328 -20 l 1,22,-1
 102 -20 l 1,23,-1
 161 262 l 1,24,-1
 47 262 l 1,25,-1
 47 483 l 1,26,-1
 203 483 l 1,27,-1
 244 685 l 1,0,-1
605 483 m 1,28,-1
 647 685 l 1,29,-1
 472 685 l 1,30,-1
 430 483 l 1,31,-1
 605 483 l 1,28,-1
EndSplineSet
EndChar

StartChar: dollar
Encoding: 36 36 3
Width: 1093
Flags: W
LayerCount: 2
Fore
SplineSet
703 850 m 1,0,1
 692 879 692 879 681.5 897.5 c 128,-1,2
 671 916 671 916 662 927 c 0,3,4
 644 950 644 950 603 974 c 1,5,-1
 603 742 l 1,6,7
 847 676 847 676 927 605 c 0,8,9
 1035 509 1035 509 1035 359 c 0,10,11
 1035 271 1035 271 996 198.5 c 128,-1,12
 957 126 957 126 896 77 c 0,13,14
 867 53 867 53 836 36 c 128,-1,15
 805 19 805 19 769.5 7.5 c 128,-1,16
 734 -4 734 -4 693 -10.5 c 128,-1,17
 652 -17 652 -17 603 -20 c 1,18,-1
 603 -170 l 1,19,-1
 485 -170 l 1,20,-1
 485 -20 l 1,21,22
 427 -14 427 -14 380 -4.5 c 128,-1,23
 333 5 333 5 295 19 c 128,-1,24
 257 33 257 33 225.5 52 c 128,-1,25
 194 71 194 71 167 95 c 0,26,27
 114 144 114 144 85.5 201 c 128,-1,28
 57 258 57 258 42 338 c 1,29,-1
 367 375 l 1,30,31
 379 296 379 296 405 259 c 0,32,33
 429 225 429 225 485 198 c 1,34,-1
 485 480 l 1,35,36
 404 503 404 503 347 522 c 128,-1,37
 290 541 290 541 255 557 c 0,38,39
 190 588 190 588 139 662 c 0,40,41
 90 735 90 735 90 839 c 0,42,43
 90 910 90 910 115 971 c 128,-1,44
 140 1032 140 1032 189.5 1077.5 c 128,-1,45
 239 1123 239 1123 313 1150.5 c 128,-1,46
 387 1178 387 1178 485 1183 c 1,47,-1
 485 1263 l 1,48,-1
 603 1263 l 1,49,-1
 603 1183 l 1,50,51
 692 1177 692 1177 760 1155.5 c 128,-1,52
 828 1134 828 1134 876.5 1097.5 c 128,-1,53
 925 1061 925 1061 955 1010.5 c 128,-1,54
 985 960 985 960 999 896 c 1,55,-1
 703 850 l 1,0,1
485 977 m 1,56,57
 434 960 434 960 414.5 935.5 c 128,-1,58
 395 911 395 911 395 877 c 0,59,60
 395 842 395 842 415 816 c 128,-1,61
 435 790 435 790 485 772 c 1,62,-1
 485 977 l 1,56,57
603 190 m 1,63,64
 671 205 671 205 702.5 239 c 128,-1,65
 734 273 734 273 734 318 c 0,66,67
 734 337 734 337 728 354 c 128,-1,68
 722 371 722 371 707 387 c 128,-1,69
 692 403 692 403 667 417.5 c 128,-1,70
 642 432 642 432 603 446 c 1,71,-1
 603 190 l 1,63,64
EndSplineSet
EndChar

StartChar: percent
Encoding: 37 37 4
Width: 1638
Flags: W
LayerCount: 2
Fore
SplineSet
1243 1193 m 1,0,-1
 567 -61 l 1,1,-1
 400 -61 l 1,2,-1
 1074 1193 l 1,3,-1
 1243 1193 l 1,0,-1
78 885 m 0,4,5
 77 948 77 948 98 1005 c 128,-1,6
 119 1062 119 1062 160.5 1104.5 c 128,-1,7
 202 1147 202 1147 261.5 1171.5 c 128,-1,8
 321 1196 321 1196 397 1193 c 0,9,10
 470 1193 470 1193 529 1171 c 128,-1,11
 588 1149 588 1149 629 1108.5 c 128,-1,12
 670 1068 670 1068 692 1011 c 128,-1,13
 714 954 714 954 714 885 c 0,14,15
 714 814 714 814 692 757 c 128,-1,16
 670 700 670 700 629 660 c 128,-1,17
 588 620 588 620 529 598.5 c 128,-1,18
 470 577 470 577 397 577 c 0,19,20
 321 574 321 574 261.5 598.5 c 128,-1,21
 202 623 202 623 160.5 665.5 c 128,-1,22
 119 708 119 708 98 765 c 128,-1,23
 77 822 77 822 78 885 c 0,4,5
305 883 m 0,24,25
 305 834 305 834 312 798 c 128,-1,26
 319 762 319 762 336 739 c 0,27,28
 356 710 356 710 397 710 c 256,29,30
 438 710 438 710 457 739 c 0,31,32
 488 785 488 785 488 883 c 256,33,34
 488 981 488 981 457 1027 c 0,35,36
 437 1057 437 1057 397 1057 c 256,37,38
 357 1057 357 1057 336 1027 c 0,39,40
 319 1005 319 1005 312 969.5 c 128,-1,41
 305 934 305 934 305 883 c 0,24,25
924 250 m 0,42,43
 922 312 922 312 943 369 c 128,-1,44
 964 426 964 426 1005 469 c 128,-1,45
 1046 512 1046 512 1105.5 536.5 c 128,-1,46
 1165 561 1165 561 1242 558 c 0,47,48
 1315 558 1315 558 1374 536 c 128,-1,49
 1433 514 1433 514 1474.5 473.5 c 128,-1,50
 1516 433 1516 433 1538 376.5 c 128,-1,51
 1560 320 1560 320 1560 250 c 0,52,53
 1560 179 1560 179 1538 122 c 128,-1,54
 1516 65 1516 65 1474.5 25 c 128,-1,55
 1433 -15 1433 -15 1374 -37 c 128,-1,56
 1315 -59 1315 -59 1242 -59 c 0,57,58
 1165 -62 1165 -62 1105.5 -37.5 c 128,-1,59
 1046 -13 1046 -13 1005 30.5 c 128,-1,60
 964 74 964 74 943 131 c 128,-1,61
 922 188 922 188 924 250 c 0,42,43
1150 249 m 0,62,63
 1150 147 1150 147 1182 105 c 0,64,65
 1200 75 1200 75 1242 75 c 0,66,67
 1281 75 1281 75 1302 105 c 0,68,69
 1334 147 1334 147 1334 249 c 0,70,71
 1334 347 1334 347 1302 394 c 0,72,73
 1281 422 1281 422 1242 422 c 0,74,75
 1200 422 1200 422 1182 394 c 0,76,77
 1150 347 1150 347 1150 249 c 0,62,63
EndSplineSet
EndChar

StartChar: ampersand
Encoding: 38 38 5
Width: 1457
Flags: W
LayerCount: 2
Fore
SplineSet
1299 513 m 1,0,1
 1289 478 1289 478 1279.5 450.5 c 128,-1,2
 1270 423 1270 423 1262 402 c 0,3,4
 1253 381 1253 381 1239.5 355.5 c 128,-1,5
 1226 330 1226 330 1209 302 c 1,6,-1
 1332 216 l 2,7,8
 1343 210 1343 210 1357.5 201.5 c 128,-1,9
 1372 193 1372 193 1390 182 c 1,10,-1
 1214 -20 l 1,11,12
 1166 6 1166 6 1115 40 c 128,-1,13
 1064 74 1064 74 1022 98 c 1,14,15
 979 70 979 70 937.5 49.5 c 128,-1,16
 896 29 896 29 854 16 c 0,17,18
 735 -20 735 -20 585 -20 c 0,19,20
 353 -20 353 -20 236 77 c 0,21,22
 123 175 123 175 123 314 c 0,23,24
 123 364 123 364 139 412 c 128,-1,25
 155 460 155 460 190 503.5 c 128,-1,26
 225 547 225 547 279 585.5 c 128,-1,27
 333 624 333 624 410 655 c 1,28,29
 378 694 378 694 356.5 726.5 c 128,-1,30
 335 759 335 759 322 789 c 128,-1,31
 309 819 309 819 303.5 847.5 c 128,-1,32
 298 876 298 876 298 906 c 0,33,34
 298 968 298 968 321.5 1020.5 c 128,-1,35
 345 1073 345 1073 393 1111.5 c 128,-1,36
 441 1150 441 1150 513 1171.5 c 128,-1,37
 585 1193 585 1193 682 1193 c 0,38,39
 879 1193 879 1193 971 1116 c 0,40,41
 1019 1078 1019 1078 1042 1031.5 c 128,-1,42
 1065 985 1065 985 1065 932 c 0,43,44
 1065 902 1065 902 1057.5 873 c 128,-1,45
 1050 844 1050 844 1036.5 817.5 c 128,-1,46
 1023 791 1023 791 1005 768 c 128,-1,47
 987 745 987 745 966 727 c 0,48,49
 927 693 927 693 824 624 c 1,50,51
 868 581 868 581 912.5 541.5 c 128,-1,52
 957 502 957 502 1002 466 c 1,53,54
 1028 516 1028 516 1046 570 c 1,55,-1
 1299 513 l 1,0,1
672 777 m 1,56,57
 735 811 735 811 769 851.5 c 128,-1,58
 803 892 803 892 803 927 c 0,59,60
 803 965 803 965 774 991.5 c 128,-1,61
 745 1018 745 1018 694 1018 c 0,62,63
 670 1018 670 1018 649.5 1010 c 128,-1,64
 629 1002 629 1002 614 988.5 c 128,-1,65
 599 975 599 975 591 957.5 c 128,-1,66
 583 940 583 940 583 921 c 0,67,68
 583 871 583 871 672 777 c 1,56,57
555 491 m 1,69,70
 522 467 522 467 500.5 447.5 c 128,-1,71
 479 428 479 428 466.5 410.5 c 128,-1,72
 454 393 454 393 449 375.5 c 128,-1,73
 444 358 444 358 444 339 c 0,74,75
 444 310 444 310 457.5 283 c 128,-1,76
 471 256 471 256 495 235.5 c 128,-1,77
 519 215 519 215 552.5 202.5 c 128,-1,78
 586 190 586 190 626 190 c 0,79,80
 712 190 712 190 821 258 c 1,81,82
 769 298 769 298 702.5 355.5 c 128,-1,83
 636 413 636 413 555 491 c 1,69,70
EndSplineSet
EndChar

StartChar: quotesingle
Encoding: 39 39 6
Width: 431
Flags: W
LayerCount: 2
Fore
SplineSet
133 1395 m 1,0,1
 137 1421 137 1421 161 1438 c 128,-1,2
 185 1455 185 1455 214 1457.5 c 128,-1,3
 243 1460 243 1460 268.5 1445.5 c 128,-1,4
 294 1431 294 1431 302 1395 c 1,5,-1
 267 997 l 1,6,-1
 165 997 l 1,7,-1
 133 1395 l 1,0,1
EndSplineSet
EndChar

StartChar: asterisk
Encoding: 42 42 7
Width: 774
Flags: W
LayerCount: 2
Fore
SplineSet
430 713 m 1,0,-1
 430 569 l 2,1,2
 430 555 430 555 422 545 c 128,-1,3
 414 535 414 535 399 535 c 2,4,-1
 348 535 l 2,5,6
 340 535 340 535 329.5 545 c 128,-1,7
 319 555 319 555 319 569 c 2,8,-1
 319 713 l 1,9,-1
 221 612 l 1,10,11
 193 594 193 594 164 612 c 1,12,-1
 133 645 l 2,13,14
 115 668 115 668 139 694 c 2,15,-1
 240 797 l 1,16,-1
 96 797 l 2,17,18
 82 797 82 797 69.5 806 c 128,-1,19
 57 815 57 815 57 831 c 2,20,-1
 57 881 l 2,21,22
 57 891 57 891 69.5 900 c 128,-1,23
 82 909 82 909 96 909 c 2,24,-1
 231 909 l 1,25,-1
 133 1010 l 2,26,27
 119 1022 119 1022 118 1036.5 c 128,-1,28
 117 1051 117 1051 127 1065 c 1,29,-1
 164 1096 l 2,30,31
 174 1106 174 1106 186.5 1105 c 128,-1,32
 199 1104 199 1104 211 1090 c 2,33,-1
 319 985 l 1,34,-1
 319 1141 l 2,35,36
 319 1153 319 1153 329.5 1164.5 c 128,-1,37
 340 1176 340 1176 348 1176 c 2,38,-1
 399 1176 l 2,39,40
 414 1176 414 1176 422 1164.5 c 128,-1,41
 430 1153 430 1153 430 1141 c 2,42,-1
 430 991 l 1,43,-1
 537 1096 l 2,44,45
 549 1110 549 1110 561 1111 c 128,-1,46
 573 1112 573 1112 592 1104 c 1,47,-1
 618 1065 l 1,48,49
 629 1057 629 1057 629 1044.5 c 128,-1,50
 629 1032 629 1032 616 1016 c 2,51,-1
 512 909 l 1,52,-1
 668 909 l 2,53,54
 678 909 678 909 690 900 c 128,-1,55
 702 891 702 891 702 881 c 2,56,-1
 702 831 l 2,57,58
 702 815 702 815 690 806 c 128,-1,59
 678 797 678 797 668 797 c 2,60,-1
 504 797 l 1,61,-1
 616 694 l 1,62,63
 635 668 635 668 616 637 c 1,64,-1
 586 606 l 1,65,66
 563 588 563 588 537 612 c 2,67,-1
 430 713 l 1,0,-1
EndSplineSet
EndChar

StartChar: plus
Encoding: 43 43 8
Width: 1218
Flags: W
LayerCount: 2
Fore
SplineSet
495 221 m 1,0,-1
 495 570 l 1,1,-1
 147 570 l 1,2,-1
 147 763 l 1,3,-1
 495 763 l 1,4,-1
 495 1112 l 1,5,-1
 688 1112 l 1,6,-1
 688 763 l 1,7,-1
 1038 763 l 1,8,-1
 1038 570 l 1,9,-1
 688 570 l 1,10,-1
 688 221 l 1,11,-1
 495 221 l 1,0,-1
EndSplineSet
EndChar

StartChar: hyphen
Encoding: 45 45 9
Width: 1209
Flags: W
LayerCount: 2
Fore
SplineSet
147 570 m 1,0,-1
 147 763 l 1,1,-1
 1038 763 l 1,2,-1
 1038 570 l 1,3,-1
 147 570 l 1,0,-1
EndSplineSet
EndChar

StartChar: period
Encoding: 46 46 10
Width: 746
Flags: W
LayerCount: 2
Fore
SplineSet
639 165 m 256,0,1
 639 129 639 129 626 98 c 128,-1,2
 613 67 613 67 589.5 43.5 c 128,-1,3
 566 20 566 20 535 7 c 128,-1,4
 504 -6 504 -6 468 -6 c 256,5,6
 432 -6 432 -6 401 7 c 128,-1,7
 370 20 370 20 346.5 43.5 c 128,-1,8
 323 67 323 67 309.5 98 c 128,-1,9
 296 129 296 129 296 165 c 256,10,11
 296 201 296 201 309.5 232 c 128,-1,12
 323 263 323 263 346.5 286.5 c 128,-1,13
 370 310 370 310 401 323.5 c 128,-1,14
 432 337 432 337 468 337 c 256,15,16
 504 337 504 337 535 323.5 c 128,-1,17
 566 310 566 310 589.5 286.5 c 128,-1,18
 613 263 613 263 626 232 c 128,-1,19
 639 201 639 201 639 165 c 256,0,1
EndSplineSet
EndChar

StartChar: slash
Encoding: 47 47 11
Width: 906
Flags: W
LayerCount: 2
Fore
SplineSet
731 1188 m 1,0,-1
 290 -171 l 1,1,-1
 126 -171 l 1,2,-1
 567 1188 l 1,3,-1
 731 1188 l 1,0,-1
EndSplineSet
EndChar

StartChar: zero
Encoding: 48 48 12
Width: 1093
Flags: W
LayerCount: 2
Fore
SplineSet
67 591 m 0,0,1
 67 927 67 927 186 1058 c 0,2,3
 306 1193 306 1193 554 1193 c 0,4,5
 673 1193 673 1193 748.5 1163.5 c 128,-1,6
 824 1134 824 1134 872 1086 c 0,7,8
 921 1041 921 1041 948.5 989 c 128,-1,9
 976 937 976 937 993 868 c 0,10,11
 1009 803 1009 803 1017.5 734.5 c 128,-1,12
 1026 666 1026 666 1026 594 c 0,13,14
 1026 275 1026 275 918 128 c 0,15,16
 809 -20 809 -20 546 -20 c 0,17,18
 472 -20 472 -20 413 -8.5 c 128,-1,19
 354 3 354 3 306.5 26.5 c 128,-1,20
 259 50 259 50 222.5 84.5 c 128,-1,21
 186 119 186 119 158 166 c 0,22,23
 136 198 136 198 119 243 c 128,-1,24
 102 288 102 288 90.5 343 c 128,-1,25
 79 398 79 398 73 460.5 c 128,-1,26
 67 523 67 523 67 591 c 0,0,1
390 590 m 0,27,28
 390 365 390 365 430 285 c 0,29,30
 450 244 450 244 478.5 223.5 c 128,-1,31
 507 203 507 203 546 203 c 0,32,33
 595 203 595 203 631 237.5 c 128,-1,34
 667 272 667 272 683 347 c 0,35,36
 691 385 691 385 696.5 443 c 128,-1,37
 702 501 702 501 702 582 c 0,38,39
 702 700 702 700 692 777.5 c 128,-1,40
 682 855 682 855 662 896 c 0,41,42
 623 977 623 977 544 977 c 0,43,44
 462 977 462 977 426 894 c 0,45,46
 390 814 390 814 390 590 c 0,27,28
EndSplineSet
EndChar

StartChar: one
Encoding: 49 49 13
Width: 1093
Flags: W
LayerCount: 2
Fore
SplineSet
806 0 m 1,0,-1
 477 0 l 1,1,-1
 477 782 l 1,2,3
 435 751 435 751 397 726.5 c 128,-1,4
 359 702 359 702 321 683 c 0,5,6
 244 645 244 645 134 611 c 1,7,-1
 134 878 l 1,8,9
 217 905 217 905 280.5 937 c 128,-1,10
 344 969 344 969 392 1007.5 c 128,-1,11
 440 1046 440 1046 475 1092 c 128,-1,12
 510 1138 510 1138 536 1193 c 1,13,-1
 806 1193 l 1,14,-1
 806 0 l 1,0,-1
EndSplineSet
EndChar

StartChar: two
Encoding: 50 50 14
Width: 1093
Flags: W
LayerCount: 2
Fore
SplineSet
42 0 m 1,0,1
 51 73 51 73 77 140 c 128,-1,2
 103 207 103 207 146 272 c 0,3,4
 189 336 189 336 268.5 411 c 128,-1,5
 348 486 348 486 466 574 c 0,6,7
 608 679 608 679 647 734 c 0,8,9
 688 790 688 790 688 841 c 0,10,11
 688 867 688 867 677.5 890.5 c 128,-1,12
 667 914 667 914 648.5 931.5 c 128,-1,13
 630 949 630 949 604.5 959.5 c 128,-1,14
 579 970 579 970 549 970 c 0,15,16
 518 970 518 970 492.5 960.5 c 128,-1,17
 467 951 467 951 447.5 930 c 128,-1,18
 428 909 428 909 414.5 875 c 128,-1,19
 401 841 401 841 394 791 c 1,20,-1
 67 819 l 1,21,22
 85 919 85 919 114.5 989 c 128,-1,23
 144 1059 144 1059 197.5 1103 c 128,-1,24
 251 1147 251 1147 334 1168.5 c 128,-1,25
 417 1190 417 1190 541 1193 c 0,26,27
 627 1193 627 1193 692.5 1183.5 c 128,-1,28
 758 1174 758 1174 808 1154 c 128,-1,29
 858 1134 858 1134 894 1103.5 c 128,-1,30
 930 1073 930 1073 957 1032 c 0,31,32
 1013 950 1013 950 1013 852 c 0,33,34
 1013 798 1013 798 997 746.5 c 128,-1,35
 981 695 981 695 950 646 c 0,36,37
 920 598 920 598 862.5 544.5 c 128,-1,38
 805 491 805 491 721 433 c 0,39,40
 671 398 671 398 638.5 374 c 128,-1,41
 606 350 606 350 590 336 c 256,42,43
 574 322 574 322 554.5 305 c 128,-1,44
 535 288 535 288 513 266 c 1,45,-1
 1021 266 l 1,46,-1
 1021 0 l 1,47,-1
 42 0 l 1,0,1
EndSplineSet
EndChar

StartChar: three
Encoding: 51 51 15
Width: 1093
Flags: W
LayerCount: 2
Fore
SplineSet
75 888 m 1,0,1
 113 1036 113 1036 223 1114.5 c 128,-1,2
 333 1193 333 1193 533 1193 c 0,3,4
 648 1193 648 1193 730 1172 c 128,-1,5
 812 1151 812 1151 863 1107 c 0,6,7
 966 1022 966 1022 966 891 c 0,8,9
 966 816 966 816 925 754.5 c 128,-1,10
 884 693 884 693 799 647 c 1,11,12
 833 639 833 639 858.5 629 c 128,-1,13
 884 619 884 619 902 608 c 0,14,15
 962 572 962 572 994 513.5 c 128,-1,16
 1026 455 1026 455 1026 372 c 0,17,18
 1026 321 1026 321 1012.5 271 c 128,-1,19
 999 221 999 221 973 176 c 128,-1,20
 947 131 947 131 908 93.5 c 128,-1,21
 869 56 869 56 818 31 c 0,22,23
 716 -20 716 -20 554 -20 c 0,24,25
 435 -19 435 -19 353 2 c 128,-1,26
 271 23 271 23 215 64 c 128,-1,27
 159 105 159 105 122.5 166.5 c 128,-1,28
 86 228 86 228 58 310 c 1,29,-1
 383 352 l 1,30,31
 393 303 393 303 408 269.5 c 128,-1,32
 423 236 423 236 443 216 c 128,-1,33
 463 196 463 196 488.5 187 c 128,-1,34
 514 178 514 178 546 178 c 0,35,36
 579 178 579 178 606.5 190.5 c 128,-1,37
 634 203 634 203 654.5 226 c 128,-1,38
 675 249 675 249 686.5 281.5 c 128,-1,39
 698 314 698 314 698 354 c 0,40,41
 698 437 698 437 656.5 481.5 c 128,-1,42
 615 526 615 526 542 526 c 0,43,44
 506 526 506 526 438 506 c 1,45,-1
 454 739 l 1,46,47
 468 738 468 738 478 737 c 128,-1,48
 488 736 488 736 497 736 c 0,49,50
 529 736 529 736 556 747 c 128,-1,51
 583 758 583 758 603 777 c 128,-1,52
 623 796 623 796 634.5 821 c 128,-1,53
 646 846 646 846 646 874 c 0,54,55
 646 927 646 927 614 958.5 c 128,-1,56
 582 990 582 990 526 990 c 0,57,58
 468 990 468 990 432.5 955.5 c 128,-1,59
 397 921 397 921 383 834 c 1,60,-1
 75 888 l 1,0,1
EndSplineSet
EndChar

StartChar: four
Encoding: 52 52 16
Width: 1093
Flags: W
LayerCount: 2
Fore
SplineSet
34 219 m 1,0,-1
 34 486 l 1,1,-1
 627 1193 l 1,2,-1
 911 1193 l 1,3,-1
 911 472 l 1,4,-1
 1058 472 l 1,5,-1
 1058 219 l 1,6,-1
 911 219 l 1,7,-1
 911 0 l 1,8,-1
 627 0 l 1,9,-1
 627 219 l 1,10,-1
 34 219 l 1,0,-1
627 841 m 1,11,-1
 313 472 l 1,12,-1
 627 472 l 1,13,-1
 627 841 l 1,11,-1
EndSplineSet
EndChar

StartChar: five
Encoding: 53 53 17
Width: 1093
Flags: W
LayerCount: 2
Fore
SplineSet
974 1173 m 1,0,-1
 974 913 l 1,1,-1
 449 913 l 1,2,-1
 421 738 l 1,3,4
 475 762 475 762 528 775 c 128,-1,5
 581 788 581 788 634 788 c 0,6,7
 808 788 808 788 919 682 c 0,8,9
 1029 576 1029 576 1029 413 c 0,10,11
 1029 356 1029 356 1014.5 300.5 c 128,-1,12
 1000 245 1000 245 972.5 195 c 128,-1,13
 945 145 945 145 904.5 103.5 c 128,-1,14
 864 62 864 62 813 34 c 0,15,16
 709 -20 709 -20 547 -20 c 0,17,18
 429 -20 429 -20 347.5 2 c 128,-1,19
 266 24 266 24 206 67 c 0,20,21
 149 111 149 111 113 166.5 c 128,-1,22
 77 222 77 222 54 305 c 1,23,-1
 383 341 l 1,24,25
 394 260 394 260 439 219 c 128,-1,26
 484 178 484 178 544 178 c 0,27,28
 613 178 613 178 657.5 229.5 c 128,-1,29
 702 281 702 281 702 383 c 0,30,31
 702 435 702 435 690 473.5 c 128,-1,32
 678 512 678 512 656.5 537 c 128,-1,33
 635 562 635 562 605 574 c 128,-1,34
 575 586 575 586 538 586 c 0,35,36
 492 586 492 586 446 564 c 0,37,38
 415 547 415 547 374 503 c 1,39,-1
 97 542 l 1,40,-1
 200 1173 l 1,41,-1
 974 1173 l 1,0,-1
EndSplineSet
EndChar

StartChar: six
Encoding: 54 54 18
Width: 1093
Flags: W
LayerCount: 2
Fore
SplineSet
686 868 m 1,0,1
 673 937 673 937 644 965 c 128,-1,2
 615 993 615 993 570 993 c 0,3,4
 490 993 490 993 446 913 c 0,5,6
 429 884 429 884 418.5 823 c 128,-1,7
 408 762 408 762 400 667 c 1,8,9
 429 697 429 697 458 718.5 c 128,-1,10
 487 740 487 740 518.5 754.5 c 128,-1,11
 550 769 550 769 585.5 776 c 128,-1,12
 621 783 621 783 662 783 c 0,13,14
 820 783 820 783 927 670 c 0,15,16
 1035 559 1035 559 1035 386 c 0,17,18
 1034 297 1034 297 1004 221.5 c 128,-1,19
 974 146 974 146 916.5 91.5 c 128,-1,20
 859 37 859 37 776 7 c 128,-1,21
 693 -23 693 -23 585 -20 c 0,22,23
 497 -20 497 -20 427 -5.5 c 128,-1,24
 357 9 357 9 302.5 40 c 128,-1,25
 248 71 248 71 206.5 118 c 128,-1,26
 165 165 165 165 133 231 c 0,27,28
 69 362 69 362 69 580 c 0,29,30
 69 739 69 739 103.5 854.5 c 128,-1,31
 138 970 138 970 203 1045.5 c 128,-1,32
 268 1121 268 1121 361.5 1157 c 128,-1,33
 455 1193 455 1193 574 1193 c 0,34,35
 676 1192 676 1192 748 1173.5 c 128,-1,36
 820 1155 820 1155 870.5 1119.5 c 128,-1,37
 921 1084 921 1084 954 1031.5 c 128,-1,38
 987 979 987 979 1011 910 c 1,39,-1
 686 868 l 1,0,1
410 386 m 256,40,41
 410 339 410 339 423 301.5 c 128,-1,42
 436 264 436 264 458.5 237.5 c 128,-1,43
 481 211 481 211 511.5 197 c 128,-1,44
 542 183 542 183 577 183 c 0,45,46
 609 183 609 183 636 195 c 128,-1,47
 663 207 663 207 683 231 c 128,-1,48
 703 255 703 255 714.5 291.5 c 128,-1,49
 726 328 726 328 726 377 c 0,50,51
 726 427 726 427 714.5 465 c 128,-1,52
 703 503 703 503 682 528.5 c 128,-1,53
 661 554 661 554 632.5 567 c 128,-1,54
 604 580 604 580 570 580 c 256,55,56
 536 580 536 580 507 567.5 c 128,-1,57
 478 555 478 555 456.5 530 c 128,-1,58
 435 505 435 505 422.5 469 c 128,-1,59
 410 433 410 433 410 386 c 256,40,41
EndSplineSet
EndChar

StartChar: seven
Encoding: 55 55 19
Width: 1093
Flags: W
LayerCount: 2
Fore
SplineSet
1024 1173 m 1,0,-1
 1024 954 l 1,1,2
 961 897 961 897 910 837 c 128,-1,3
 859 777 859 777 818 711 c 0,4,5
 716 552 716 552 657 357 c 0,6,7
 634 282 634 282 618.5 193 c 128,-1,8
 603 104 603 104 594 0 c 1,9,-1
 270 0 l 1,10,11
 289 145 289 145 319 264.5 c 128,-1,12
 349 384 349 384 390 482 c 0,13,14
 475 678 475 678 652 898 c 1,15,-1
 72 898 l 1,16,-1
 72 1173 l 1,17,-1
 1024 1173 l 1,0,-1
EndSplineSet
EndChar

StartChar: eight
Encoding: 56 56 20
Width: 1093
Flags: W
LayerCount: 2
Fore
SplineSet
264 630 m 1,0,1
 187 672 187 672 150 721 c 0,2,3
 127 755 127 755 115 794.5 c 128,-1,4
 103 834 103 834 103 880 c 0,5,6
 103 1026 103 1026 241 1121 c 0,7,8
 351 1193 351 1193 527 1193 c 0,9,10
 762 1193 762 1193 875 1102 c 0,11,12
 988 1015 988 1015 988 878 c 0,13,14
 988 837 988 837 977 800.5 c 128,-1,15
 966 764 966 764 942 729 c 0,16,17
 926 703 926 703 899.5 678.5 c 128,-1,18
 873 654 873 654 838 630 c 1,19,20
 932 585 932 585 979 510.5 c 128,-1,21
 1026 436 1026 436 1026 342 c 0,22,23
 1026 298 1026 298 1015 257 c 128,-1,24
 1004 216 1004 216 985.5 179.5 c 128,-1,25
 967 143 967 143 941.5 112.5 c 128,-1,26
 916 82 916 82 886 61 c 0,27,28
 827 19 827 19 739.5 -0.5 c 128,-1,29
 652 -20 652 -20 552 -20 c 0,30,31
 459 -20 459 -20 390 -8.5 c 128,-1,32
 321 3 321 3 269 25 c 128,-1,33
 217 47 217 47 181 79.5 c 128,-1,34
 145 112 145 112 118 154 c 0,35,36
 92 197 92 197 79.5 244 c 128,-1,37
 67 291 67 291 67 344 c 0,38,39
 67 553 67 553 264 630 c 1,0,1
410 860 m 0,40,41
 410 800 410 800 447.5 763 c 128,-1,42
 485 726 485 726 549 726 c 0,43,44
 576 726 576 726 599.5 735.5 c 128,-1,45
 623 745 623 745 640.5 762.5 c 128,-1,46
 658 780 658 780 667.5 804 c 128,-1,47
 677 828 677 828 677 857 c 0,48,49
 677 920 677 920 639.5 957 c 128,-1,50
 602 994 602 994 544 994 c 0,51,52
 484 994 484 994 447 957.5 c 128,-1,53
 410 921 410 921 410 860 c 0,40,41
391 355 m 0,54,55
 391 316 391 316 404 284 c 128,-1,56
 417 252 417 252 439 229 c 128,-1,57
 461 206 461 206 489 193 c 128,-1,58
 517 180 517 180 547 180 c 256,59,60
 577 180 577 180 604 193 c 128,-1,61
 631 206 631 206 652 229.5 c 128,-1,62
 673 253 673 253 685.5 285.5 c 128,-1,63
 698 318 698 318 698 357 c 256,64,65
 698 396 698 396 685 428.5 c 128,-1,66
 672 461 672 461 651 484.5 c 128,-1,67
 630 508 630 508 602 521 c 128,-1,68
 574 534 574 534 544 534 c 0,69,70
 512 534 512 534 484.5 521.5 c 128,-1,71
 457 509 457 509 436 486 c 128,-1,72
 415 463 415 463 403 430 c 128,-1,73
 391 397 391 397 391 355 c 0,54,55
EndSplineSet
EndChar

StartChar: nine
Encoding: 57 57 21
Width: 1093
Flags: W
LayerCount: 2
Fore
SplineSet
406 305 m 1,0,1
 417 236 417 236 447.5 208 c 128,-1,2
 478 180 478 180 522 180 c 0,3,4
 601 180 601 180 646 259 c 0,5,6
 678 319 678 319 693 506 c 1,7,8
 664 476 664 476 635 454 c 128,-1,9
 606 432 606 432 574.5 418 c 128,-1,10
 543 404 543 404 507.5 397 c 128,-1,11
 472 390 472 390 431 390 c 0,12,13
 275 390 275 390 166 502 c 0,14,15
 58 614 58 614 58 785 c 0,16,17
 59 875 59 875 89 951 c 128,-1,18
 119 1027 119 1027 176 1081.5 c 128,-1,19
 233 1136 233 1136 316.5 1166 c 128,-1,20
 400 1196 400 1196 508 1193 c 0,21,22
 596 1193 596 1193 665.5 1178 c 128,-1,23
 735 1163 735 1163 790 1132.5 c 128,-1,24
 845 1102 845 1102 886.5 1054.5 c 128,-1,25
 928 1007 928 1007 960 941 c 0,26,27
 1024 808 1024 808 1024 593 c 0,28,29
 1024 434 1024 434 989.5 318.5 c 128,-1,30
 955 203 955 203 889.5 127.5 c 128,-1,31
 824 52 824 52 730.5 16 c 128,-1,32
 637 -20 637 -20 519 -20 c 0,33,34
 448 -20 448 -20 394 -12 c 128,-1,35
 340 -4 340 -4 298 12 c 128,-1,36
 256 28 256 28 223.5 51.5 c 128,-1,37
 191 75 191 75 164 106 c 0,38,39
 109 172 109 172 82 264 c 1,40,-1
 406 305 l 1,0,1
682 786 m 0,41,42
 682 834 682 834 669 871.5 c 128,-1,43
 656 909 656 909 633.5 935.5 c 128,-1,44
 611 962 611 962 580.5 976 c 128,-1,45
 550 990 550 990 516 990 c 0,46,47
 484 990 484 990 457 977.5 c 128,-1,48
 430 965 430 965 410 940.5 c 128,-1,49
 390 916 390 916 378.5 879.5 c 128,-1,50
 367 843 367 843 367 794 c 256,51,52
 367 745 367 745 379 707 c 128,-1,53
 391 669 391 669 411.5 643.5 c 128,-1,54
 432 618 432 618 460 604.5 c 128,-1,55
 488 591 488 591 521 591 c 0,56,57
 555 591 555 591 584.5 604 c 128,-1,58
 614 617 614 617 636 642 c 128,-1,59
 658 667 658 667 670 703 c 128,-1,60
 682 739 682 739 682 786 c 0,41,42
EndSplineSet
EndChar

StartChar: less
Encoding: 60 60 22
Width: 1082
Flags: W
LayerCount: 2
Fore
SplineSet
85 469 m 1,0,-1
 85 705 l 1,1,-1
 994 1083 l 1,2,-1
 994 798 l 1,3,-1
 442 585 l 1,4,-1
 994 372 l 1,5,-1
 994 90 l 1,6,-1
 85 469 l 1,0,-1
EndSplineSet
EndChar

StartChar: equal
Encoding: 61 61 23
Width: 954
Flags: W
LayerCount: 2
Fore
SplineSet
118 535 m 1,0,-1
 118 666 l 1,1,-1
 798 666 l 1,2,-1
 798 535 l 1,3,-1
 118 535 l 1,0,-1
118 296 m 1,4,-1
 118 428 l 1,5,-1
 798 428 l 1,6,-1
 798 296 l 1,7,-1
 118 296 l 1,4,-1
EndSplineSet
EndChar

StartChar: greater
Encoding: 62 62 24
Width: 1082
Flags: W
LayerCount: 2
Fore
SplineSet
639 585 m 1,0,-1
 87 798 l 1,1,-1
 87 1083 l 1,2,-1
 996 705 l 1,3,-1
 996 469 l 1,4,-1
 87 90 l 1,5,-1
 87 372 l 1,6,-1
 639 585 l 1,0,-1
EndSplineSet
EndChar

StartChar: question
Encoding: 63 63 25
Width: 1001
Flags: W
LayerCount: 2
Fore
SplineSet
325 369 m 1,0,-1
 325 398 l 2,1,2
 325 437 325 437 329 468 c 128,-1,3
 333 499 333 499 341.5 524.5 c 128,-1,4
 350 550 350 550 363 571.5 c 128,-1,5
 376 593 376 593 394 613 c 0,6,7
 430 652 430 652 550 754 c 0,8,9
 614 805 614 805 614 850 c 256,10,11
 614 895 614 895 589.5 919.5 c 128,-1,12
 565 944 565 944 511 944 c 0,13,14
 453 944 453 944 416 906 c 128,-1,15
 379 868 379 868 369 775 c 1,16,-1
 59 813 l 1,17,18
 66 899 66 899 96.5 969 c 128,-1,19
 127 1039 127 1039 182.5 1089 c 128,-1,20
 238 1139 238 1139 320.5 1166 c 128,-1,21
 403 1193 403 1193 514 1193 c 0,22,23
 689 1193 689 1193 796 1121 c 0,24,25
 942 1022 942 1022 942 857 c 0,26,27
 942 791 942 791 904 726 c 0,28,29
 886 695 886 695 847 656.5 c 128,-1,30
 808 618 808 618 750 572 c 0,31,32
 709 540 709 540 684.5 514 c 128,-1,33
 660 488 660 488 649 469 c 0,34,35
 627 432 627 432 627 369 c 1,36,-1
 325 369 l 1,0,-1
639 286 m 1,37,-1
 639 0 l 1,38,-1
 313 0 l 1,39,-1
 313 286 l 1,40,-1
 639 286 l 1,37,-1
EndSplineSet
EndChar

StartChar: at
Encoding: 64 64 26
Width: 1213
Flags: W
LayerCount: 2
Fore
SplineSet
824 285 m 2,0,1
 821 268 821 268 821 258 c 0,2,3
 821 228 821 228 854 228 c 0,4,5
 890 228 890 228 937 261 c 0,6,7
 1006 309 1006 309 1050 399 c 128,-1,8
 1094 489 1094 489 1094 618 c 0,9,10
 1094 829 1094 829 974 952 c 0,11,12
 853 1074 853 1074 649 1074 c 0,13,14
 573 1074 573 1074 503.5 1056 c 128,-1,15
 434 1038 434 1038 374 1002.5 c 128,-1,16
 314 967 314 967 265.5 914.5 c 128,-1,17
 217 862 217 862 183 793 c 0,18,19
 116 656 116 656 116 491 c 0,20,21
 116 361 116 361 153 259.5 c 128,-1,22
 190 158 190 158 262 82 c 0,23,24
 408 -69 408 -69 638 -69 c 0,25,26
 750 -69 750 -69 852 -31 c 128,-1,27
 954 7 954 7 1052 82 c 1,28,-1
 1216 82 l 1,29,30
 1182 43 1182 43 1151 12.5 c 128,-1,31
 1120 -18 1120 -18 1091 -39 c 0,32,33
 1003 -105 1003 -105 889 -145.5 c 128,-1,34
 775 -186 775 -186 641 -186 c 0,35,36
 548 -186 548 -186 464 -164 c 128,-1,37
 380 -142 380 -142 308 -100 c 128,-1,38
 236 -58 236 -58 177.5 3 c 128,-1,39
 119 64 119 64 77 142 c 0,40,41
 -5 304 -5 304 -5 491 c 0,42,43
 -5 692 -5 692 80 855 c 0,44,45
 168 1022 168 1022 310 1106 c 0,46,47
 452 1194 452 1194 647 1194 c 0,48,49
 899 1194 899 1194 1057 1034 c 0,50,51
 1216 873 1216 873 1216 619 c 0,52,53
 1216 545 1216 545 1200.5 475.5 c 128,-1,54
 1185 406 1185 406 1154.5 345 c 128,-1,55
 1124 284 1124 284 1078.5 233.5 c 128,-1,56
 1033 183 1033 183 974 147 c 0,57,58
 883 92 883 92 799 92 c 0,59,60
 751 92 751 92 721 114 c 128,-1,61
 691 136 691 136 677 185 c 1,62,63
 650 158 650 158 626.5 140 c 128,-1,64
 603 122 603 122 580 111 c 128,-1,65
 557 100 557 100 533.5 95 c 128,-1,66
 510 90 510 90 483 90 c 0,67,68
 376 90 376 90 300 178 c 0,69,70
 225 268 225 268 225 434 c 0,71,72
 225 627 225 627 322 788 c 0,73,74
 421 947 421 947 567 947 c 0,75,76
 622 947 622 947 666 919.5 c 128,-1,77
 710 892 710 892 754 827 c 1,78,-1
 769 919 l 1,79,-1
 924 919 l 1,80,-1
 824 285 l 2,0,1
391 395 m 0,81,82
 391 300 391 300 433 246 c 0,83,84
 464 206 464 206 511 206 c 0,85,86
 536 206 536 206 559.5 216 c 128,-1,87
 583 226 583 226 604 250.5 c 128,-1,88
 625 275 625 275 643.5 317 c 128,-1,89
 662 359 662 359 677 424 c 0,90,91
 693 490 693 490 700.5 548.5 c 128,-1,92
 708 607 708 607 708 658 c 0,93,94
 708 737 708 737 674.5 777.5 c 128,-1,95
 641 818 641 818 593 818 c 0,96,97
 539 818 539 818 502 778 c 0,98,99
 447 723 447 723 419 608 c 0,100,101
 406 550 406 550 398.5 496.5 c 128,-1,102
 391 443 391 443 391 395 c 0,81,82
EndSplineSet
EndChar

StartChar: A
Encoding: 65 65 27
Width: 1274
Flags: W
LayerCount: 2
Fore
SplineSet
430 194 m 1,0,-1
 372 0 l 1,1,-1
 2 0 l 1,2,-1
 442 1173 l 1,3,-1
 838 1173 l 1,4,-1
 1278 0 l 1,5,-1
 899 0 l 1,6,-1
 842 194 l 1,7,-1
 430 194 l 1,0,-1
636 868 m 1,8,-1
 508 447 l 1,9,-1
 765 447 l 1,10,-1
 636 868 l 1,8,-1
EndSplineSet
EndChar

StartChar: B
Encoding: 66 66 28
Width: 1274
Flags: W
LayerCount: 2
Fore
SplineSet
799 1173 m 2,0,1
 885 1173 885 1173 949 1152.5 c 128,-1,2
 1013 1132 1013 1132 1058 1088 c 0,3,4
 1150 1004 1150 1004 1150 882 c 0,5,6
 1150 776 1150 776 1086 703 c 0,7,8
 1042 651 1042 651 958 624 c 1,9,10
 1087 593 1087 593 1145.5 519.5 c 128,-1,11
 1204 446 1204 446 1204 334 c 0,12,13
 1204 241 1204 241 1163 169 c 128,-1,14
 1122 97 1122 97 1047 54 c 0,15,16
 1024 40 1024 40 989.5 31.5 c 128,-1,17
 955 23 955 23 910 16 c 0,18,19
 847 8 847 8 807 4 c 128,-1,20
 767 0 767 0 747 0 c 2,21,-1
 122 0 l 1,22,-1
 122 1173 l 1,23,-1
 799 1173 l 2,0,1
644 713 m 2,24,25
 686 713 686 713 715 720.5 c 128,-1,26
 744 728 744 728 761.5 742.5 c 128,-1,27
 779 757 779 757 786.5 778 c 128,-1,28
 794 799 794 799 794 826 c 0,29,30
 794 878 794 878 761.5 906.5 c 128,-1,31
 729 935 729 935 647 935 c 2,32,-1
 486 935 l 1,33,-1
 486 713 l 1,34,-1
 644 713 l 2,24,25
672 252 m 2,35,36
 765 252 765 252 803.5 284.5 c 128,-1,37
 842 317 842 317 842 375 c 0,38,39
 842 400 842 400 833 421 c 128,-1,40
 824 442 824 442 803.5 457.5 c 128,-1,41
 783 473 783 473 750 481.5 c 128,-1,42
 717 490 717 490 670 490 c 2,43,-1
 486 490 l 1,44,-1
 486 252 l 1,45,-1
 672 252 l 2,35,36
EndSplineSet
EndChar

StartChar: C
Encoding: 67 67 29
Width: 1274
Flags: W
LayerCount: 2
Fore
SplineSet
1219 383 m 1,0,1
 1192 283 1192 283 1149 207.5 c 128,-1,2
 1106 132 1106 132 1042.5 81 c 128,-1,3
 979 30 979 30 891 4.5 c 128,-1,4
 803 -21 803 -21 686 -22 c 0,5,6
 496 -22 496 -22 375 34 c 0,7,8
 315 63 315 63 263 111 c 128,-1,9
 211 159 211 159 166 230 c 0,10,11
 121 299 121 299 99 388.5 c 128,-1,12
 77 478 77 478 77 588 c 0,13,14
 77 734 77 734 116.5 846.5 c 128,-1,15
 156 959 156 959 231.5 1036 c 128,-1,16
 307 1113 307 1113 417.5 1153 c 128,-1,17
 528 1193 528 1193 670 1193 c 0,18,19
 781 1193 781 1193 867 1171 c 128,-1,20
 953 1149 953 1149 1018 1104 c 128,-1,21
 1083 1059 1083 1059 1129.5 990 c 128,-1,22
 1176 921 1176 921 1207 827 c 1,23,-1
 888 757 l 1,24,25
 880 784 880 784 870 803.5 c 128,-1,26
 860 823 860 823 852 835 c 0,27,28
 821 877 821 877 777.5 899.5 c 128,-1,29
 734 922 734 922 680 922 c 0,30,31
 555 922 555 922 490 822 c 0,32,33
 441 751 441 751 441 591 c 0,34,35
 441 396 441 396 500 322 c 0,36,37
 560 250 560 250 667 250 c 0,38,39
 719 250 719 250 757.5 265 c 128,-1,40
 796 280 796 280 823.5 309.5 c 128,-1,41
 851 339 851 339 870 381.5 c 128,-1,42
 889 424 889 424 901 478 c 1,43,-1
 1219 383 l 1,0,1
EndSplineSet
EndChar

StartChar: D
Encoding: 68 68 30
Width: 1274
Flags: W
LayerCount: 2
Fore
SplineSet
663 1173 m 2,0,1
 742 1173 742 1173 806 1162 c 128,-1,2
 870 1151 870 1151 921 1129.5 c 128,-1,3
 972 1108 972 1108 1011.5 1076.5 c 128,-1,4
 1051 1045 1051 1045 1083 1004 c 0,5,6
 1147 924 1147 924 1175.5 818 c 128,-1,7
 1204 712 1204 712 1204 590 c 0,8,9
 1204 404 1204 404 1162 298 c 0,10,11
 1141 247 1141 247 1110.5 203.5 c 128,-1,12
 1080 160 1080 160 1042 125 c 0,13,14
 965 54 965 54 880 33 c 0,15,16
 758 0 758 0 663 0 c 2,17,-1
 125 0 l 1,18,-1
 125 1173 l 1,19,-1
 663 1173 l 2,0,1
486 267 m 1,20,-1
 577 267 l 2,21,22
 691 267 691 267 738 292 c 0,23,24
 761 304 761 304 780 326 c 128,-1,25
 799 348 799 348 813 378 c 0,26,27
 826 410 826 410 833.5 461.5 c 128,-1,28
 841 513 841 513 841 583 c 0,29,30
 841 768 841 768 778 839 c 0,31,32
 718 908 718 908 578 908 c 2,33,-1
 486 908 l 1,34,-1
 486 267 l 1,20,-1
EndSplineSet
EndChar

StartChar: E
Encoding: 69 69 31
Width: 1183
Flags: W
LayerCount: 2
Fore
SplineSet
1091 1173 m 1,0,-1
 1091 922 l 1,1,-1
 482 922 l 1,2,-1
 482 736 l 1,3,-1
 1047 736 l 1,4,-1
 1047 497 l 1,5,-1
 482 497 l 1,6,-1
 482 266 l 1,7,-1
 1107 266 l 1,8,-1
 1107 0 l 1,9,-1
 120 0 l 1,10,-1
 120 1173 l 1,11,-1
 1091 1173 l 1,0,-1
EndSplineSet
EndChar

StartChar: F
Encoding: 70 70 32
Width: 1093
Flags: W
LayerCount: 2
Fore
SplineSet
1018 1173 m 1,0,-1
 1018 921 l 1,1,-1
 485 921 l 1,2,-1
 485 716 l 1,3,-1
 941 716 l 1,4,-1
 941 478 l 1,5,-1
 485 478 l 1,6,-1
 485 0 l 1,7,-1
 122 0 l 1,8,-1
 122 1173 l 1,9,-1
 1018 1173 l 1,0,-1
EndSplineSet
EndChar

StartChar: G
Encoding: 71 71 33
Width: 1365
Flags: W
LayerCount: 2
Fore
SplineSet
710 669 m 1,0,-1
 1270 669 l 1,1,-1
 1270 169 l 1,2,3
 1189 113 1189 113 1118.5 76.5 c 128,-1,4
 1048 40 1048 40 985 20 c 256,5,6
 922 0 922 0 849.5 -10 c 128,-1,7
 777 -20 777 -20 691 -20 c 0,8,9
 483 -20 483 -20 351.5 51 c 128,-1,10
 220 122 220 122 147 264 c 0,11,12
 112 334 112 334 93.5 414.5 c 128,-1,13
 75 495 75 495 75 586 c 0,14,15
 75 779 75 779 154 920 c 128,-1,16
 233 1061 233 1061 386 1135 c 0,17,18
 447 1164 447 1164 527 1178.5 c 128,-1,19
 607 1193 607 1193 708 1193 c 0,20,21
 806 1193 806 1193 878 1184.5 c 128,-1,22
 950 1176 950 1176 998 1157 c 0,23,24
 1095 1122 1095 1122 1158 1049 c 256,25,26
 1221 976 1221 976 1254 860 c 1,27,-1
 904 798 l 1,28,29
 884 866 884 866 832 900.5 c 128,-1,30
 780 935 780 935 699 935 c 0,31,32
 640 935 640 935 592 915 c 128,-1,33
 544 895 544 895 510 852.5 c 128,-1,34
 476 810 476 810 457.5 745 c 128,-1,35
 439 680 439 680 439 590 c 0,36,37
 439 495 439 495 457.5 428 c 128,-1,38
 476 361 476 361 510.5 319 c 128,-1,39
 545 277 545 277 595.5 257.5 c 128,-1,40
 646 238 646 238 710 238 c 0,41,42
 740 238 740 238 768.5 242 c 128,-1,43
 797 246 797 246 826 255 c 128,-1,44
 855 264 855 264 886 278.5 c 128,-1,45
 917 293 917 293 952 314 c 1,46,-1
 952 424 l 1,47,-1
 710 424 l 1,48,-1
 710 669 l 1,0,-1
EndSplineSet
EndChar

StartChar: H
Encoding: 72 72 34
Width: 1365
Flags: W
LayerCount: 2
Fore
SplineSet
483 1173 m 1,0,-1
 483 762 l 1,1,-1
 880 762 l 1,2,-1
 880 1173 l 1,3,-1
 1243 1173 l 1,4,-1
 1243 0 l 1,5,-1
 880 0 l 1,6,-1
 880 475 l 1,7,-1
 483 475 l 1,8,-1
 483 0 l 1,9,-1
 122 0 l 1,10,-1
 122 1173 l 1,11,-1
 483 1173 l 1,0,-1
EndSplineSet
EndChar

StartChar: I
Encoding: 73 73 35
Width: 638
Flags: W
LayerCount: 2
Fore
SplineSet
498 1173 m 1,0,-1
 498 0 l 1,1,-1
 134 0 l 1,2,-1
 134 1173 l 1,3,-1
 498 1173 l 1,0,-1
EndSplineSet
EndChar

StartChar: J
Encoding: 74 74 36
Width: 1093
Flags: W
LayerCount: 2
Fore
SplineSet
971 1173 m 1,0,-1
 971 536 l 2,1,2
 971 435 971 435 962.5 359 c 128,-1,3
 954 283 954 283 935 230 c 0,4,5
 900 125 900 125 791 50 c 0,6,7
 684 -22 684 -22 516 -22 c 0,8,9
 427 -22 427 -22 359.5 -10 c 128,-1,10
 292 2 292 2 241 26 c 128,-1,11
 190 50 190 50 153.5 85.5 c 128,-1,12
 117 121 117 121 90 167 c 0,13,14
 64 215 64 215 48.5 271.5 c 128,-1,15
 33 328 33 328 28 397 c 1,16,-1
 375 444 l 1,17,18
 375 405 375 405 378 376.5 c 128,-1,19
 381 348 381 348 388 327.5 c 128,-1,20
 395 307 395 307 405.5 293 c 128,-1,21
 416 279 416 279 431 267 c 0,22,23
 442 260 442 260 457 256 c 128,-1,24
 472 252 472 252 490 252 c 0,25,26
 550 252 550 252 579 297 c 128,-1,27
 608 342 608 342 608 449 c 2,28,-1
 608 1173 l 1,29,-1
 971 1173 l 1,0,-1
EndSplineSet
EndChar

StartChar: K
Encoding: 75 75 37
Width: 1365
Flags: W
LayerCount: 2
Fore
SplineSet
483 1173 m 1,0,-1
 483 729 l 1,1,-1
 863 1173 l 1,2,-1
 1345 1173 l 1,3,-1
 919 730 l 1,4,-1
 1365 0 l 1,5,-1
 919 0 l 1,6,-1
 672 482 l 1,7,-1
 483 286 l 1,8,-1
 483 0 l 1,9,-1
 122 0 l 1,10,-1
 122 1173 l 1,11,-1
 483 1173 l 1,0,-1
EndSplineSet
EndChar

StartChar: L
Encoding: 76 76 38
Width: 1093
Flags: W
LayerCount: 2
Fore
SplineSet
482 1173 m 1,0,-1
 482 288 l 1,1,-1
 1049 288 l 1,2,-1
 1049 0 l 1,3,-1
 120 0 l 1,4,-1
 120 1173 l 1,5,-1
 482 1173 l 1,0,-1
EndSplineSet
EndChar

StartChar: M
Encoding: 77 77 39
Width: 1546
Flags: W
LayerCount: 2
Fore
SplineSet
593 1173 m 1,0,-1
 777 458 l 1,1,-1
 960 1173 l 1,2,-1
 1435 1173 l 1,3,-1
 1435 0 l 1,4,-1
 1138 0 l 1,5,-1
 1138 894 l 1,6,-1
 910 0 l 1,7,-1
 642 0 l 1,8,-1
 413 894 l 1,9,-1
 413 0 l 1,10,-1
 116 0 l 1,11,-1
 116 1173 l 1,12,-1
 593 1173 l 1,0,-1
EndSplineSet
EndChar

StartChar: N
Encoding: 78 78 40
Width: 1365
Flags: W
LayerCount: 2
Fore
SplineSet
460 1173 m 1,0,-1
 902 524 l 1,1,-1
 902 1173 l 1,2,-1
 1243 1173 l 1,3,-1
 1243 0 l 1,4,-1
 902 0 l 1,5,-1
 464 644 l 1,6,-1
 464 0 l 1,7,-1
 123 0 l 1,8,-1
 123 1173 l 1,9,-1
 460 1173 l 1,0,-1
EndSplineSet
EndChar

StartChar: O
Encoding: 79 79 41
Width: 1365
Flags: W
LayerCount: 2
Fore
SplineSet
74 585 m 0,0,1
 74 872 74 872 234 1032 c 0,2,3
 315 1112 315 1112 426 1152.5 c 128,-1,4
 537 1193 537 1193 680 1193 c 0,5,6
 827 1193 827 1193 940.5 1153 c 128,-1,7
 1054 1113 1054 1113 1131.5 1036 c 128,-1,8
 1209 959 1209 959 1249.5 847.5 c 128,-1,9
 1290 736 1290 736 1290 594 c 0,10,11
 1288 291 1288 291 1137.5 138 c 128,-1,12
 987 -15 987 -15 694 -20 c 0,13,14
 497 -20 497 -20 366.5 43 c 128,-1,15
 236 106 236 106 154 242 c 0,16,17
 113 311 113 311 93.5 396.5 c 128,-1,18
 74 482 74 482 74 585 c 0,0,1
438 583 m 0,19,20
 438 494 438 494 455 431 c 128,-1,21
 472 368 472 368 503.5 328 c 128,-1,22
 535 288 535 288 580.5 269 c 128,-1,23
 626 250 626 250 683 250 c 0,24,25
 800 250 800 250 863 326 c 0,26,27
 927 402 927 402 927 600 c 0,28,29
 927 683 927 683 909.5 743 c 128,-1,30
 892 803 892 803 859.5 842 c 128,-1,31
 827 881 827 881 781.5 900 c 128,-1,32
 736 919 736 919 680 919 c 0,33,34
 625 919 625 919 580.5 900.5 c 128,-1,35
 536 882 536 882 504.5 841.5 c 128,-1,36
 473 801 473 801 455.5 737 c 128,-1,37
 438 673 438 673 438 583 c 0,19,20
EndSplineSet
EndChar

StartChar: P
Encoding: 80 80 42
Width: 1183
Flags: W
LayerCount: 2
Fore
SplineSet
721 1173 m 2,0,1
 917 1173 917 1173 1015.5 1079.5 c 128,-1,2
 1114 986 1114 986 1114 813 c 0,3,4
 1114 724 1114 724 1087 654.5 c 128,-1,5
 1060 585 1060 585 1006 536 c 128,-1,6
 952 487 952 487 871 461.5 c 128,-1,7
 790 436 790 436 682 436 c 2,8,-1
 482 436 l 1,9,-1
 482 0 l 1,10,-1
 118 0 l 1,11,-1
 118 1173 l 1,12,-1
 721 1173 l 2,0,1
572 674 m 2,13,14
 624 674 624 674 660 683.5 c 128,-1,15
 696 693 696 693 718 710 c 128,-1,16
 740 727 740 727 750 750.5 c 128,-1,17
 760 774 760 774 760 803 c 0,18,19
 760 830 760 830 752 854 c 128,-1,20
 744 878 744 878 723.5 895.5 c 128,-1,21
 703 913 703 913 669.5 923.5 c 128,-1,22
 636 934 636 934 585 934 c 2,23,-1
 482 934 l 1,24,-1
 482 674 l 1,25,-1
 572 674 l 2,13,14
EndSplineSet
EndChar

StartChar: Q
Encoding: 81 81 43
Width: 1365
Flags: W
LayerCount: 2
Fore
SplineSet
1162 170 m 1,0,1
 1195 147 1195 147 1217 132.5 c 128,-1,2
 1239 118 1239 118 1250 111 c 0,3,4
 1266 103 1266 103 1287 93 c 128,-1,5
 1308 83 1308 83 1334 70 c 1,6,-1
 1234 -133 l 1,7,8
 1196 -114 1196 -114 1158.5 -92 c 128,-1,9
 1121 -70 1121 -70 1083 -44 c 0,10,11
 1046 -18 1046 -18 1020 0.5 c 128,-1,12
 994 19 994 19 980 33 c 1,13,14
 857 -20 857 -20 678 -20 c 0,15,16
 411 -20 411 -20 258 120 c 0,17,18
 74 283 74 283 74 582 c 0,19,20
 74 874 74 874 233 1032 c 0,21,22
 394 1193 394 1193 680 1193 c 0,23,24
 825 1193 825 1193 938.5 1153.5 c 128,-1,25
 1052 1114 1052 1114 1130 1036.5 c 128,-1,26
 1208 959 1208 959 1249 846 c 128,-1,27
 1290 733 1290 733 1290 586 c 0,28,29
 1290 328 1290 328 1162 170 c 1,0,1
885 357 m 1,30,31
 927 433 927 433 927 588 c 0,32,33
 927 677 927 677 910 740 c 128,-1,34
 893 803 893 803 860.5 842.5 c 128,-1,35
 828 882 828 882 782.5 900.5 c 128,-1,36
 737 919 737 919 680 919 c 0,37,38
 626 919 626 919 581.5 900 c 128,-1,39
 537 881 537 881 505 841.5 c 128,-1,40
 473 802 473 802 455.5 741.5 c 128,-1,41
 438 681 438 681 438 598 c 0,42,43
 438 502 438 502 455 435.5 c 128,-1,44
 472 369 472 369 503.5 328 c 128,-1,45
 535 287 535 287 580.5 268.5 c 128,-1,46
 626 250 626 250 683 250 c 0,47,48
 702 250 702 250 718.5 252.5 c 128,-1,49
 735 255 735 255 752 259 c 1,50,51
 729 281 729 281 693.5 301.5 c 128,-1,52
 658 322 658 322 608 341 c 1,53,-1
 665 472 l 1,54,55
 688 468 688 468 706.5 462 c 128,-1,56
 725 456 725 456 739 450 c 0,57,58
 766 438 766 438 844 383 c 0,59,60
 852 377 852 377 863 370.5 c 128,-1,61
 874 364 874 364 885 357 c 1,30,31
EndSplineSet
EndChar

StartChar: R
Encoding: 82 82 44
Width: 1274
Flags: W
LayerCount: 2
Fore
SplineSet
125 1173 m 1,0,-1
 729 1173 l 2,1,2
 895 1173 895 1173 985 1144 c 0,3,4
 1074 1118 1074 1118 1129 1037 c 0,5,6
 1183 959 1183 959 1183 847 c 0,7,8
 1183 750 1183 750 1141.5 679 c 128,-1,9
 1100 608 1100 608 1027 564 c 0,10,11
 1004 550 1004 550 972.5 538.5 c 128,-1,12
 941 527 941 527 899 518 c 1,13,14
 933 507 933 507 956.5 496.5 c 128,-1,15
 980 486 980 486 994 475 c 0,16,17
 1005 468 1005 468 1019 452 c 128,-1,18
 1033 436 1033 436 1052 413 c 0,19,20
 1072 390 1072 390 1084 371.5 c 128,-1,21
 1096 353 1096 353 1102 341 c 2,22,-1
 1278 0 l 1,23,-1
 868 0 l 1,24,-1
 675 359 l 2,25,26
 638 427 638 427 610 449 c 0,27,28
 568 477 568 477 521 477 c 2,29,-1
 488 477 l 1,30,-1
 488 0 l 1,31,-1
 125 0 l 1,32,-1
 125 1173 l 1,0,-1
642 698 m 2,33,34
 668 698 668 698 738 714 c 0,35,36
 773 720 773 720 796 749.5 c 128,-1,37
 819 779 819 779 819 819 c 0,38,39
 819 847 819 847 811 868.5 c 128,-1,40
 803 890 803 890 783.5 905 c 128,-1,41
 764 920 764 920 731 927.5 c 128,-1,42
 698 935 698 935 649 935 c 2,43,-1
 488 935 l 1,44,-1
 488 698 l 1,45,-1
 642 698 l 2,33,34
EndSplineSet
EndChar

StartChar: S
Encoding: 83 83 45
Width: 1183
Flags: W
LayerCount: 2
Fore
SplineSet
402 410 m 1,0,1
 408 368 408 368 419 336 c 128,-1,2
 430 304 430 304 447 282 c 0,3,4
 504 210 504 210 608 210 c 0,5,6
 647 210 647 210 677 220 c 128,-1,7
 707 230 707 230 727.5 246.5 c 128,-1,8
 748 263 748 263 758.5 285 c 128,-1,9
 769 307 769 307 769 331 c 0,10,11
 769 375 769 375 729 413 c 0,12,13
 709 432 709 432 663 447.5 c 128,-1,14
 617 463 617 463 544 480 c 0,15,16
 304 534 304 534 203 622 c 0,17,18
 102 714 102 714 102 850 c 0,19,20
 105 917 105 917 132 980 c 128,-1,21
 159 1043 159 1043 217.5 1091 c 128,-1,22
 276 1139 276 1139 369.5 1167 c 128,-1,23
 463 1195 463 1195 600 1193 c 0,24,25
 824 1193 824 1193 942 1109 c 128,-1,26
 1060 1025 1060 1025 1083 844 c 1,27,-1
 741 822 l 1,28,29
 727 903 727 903 684.5 939 c 128,-1,30
 642 975 642 975 564 975 c 0,31,32
 499 975 499 975 467.5 948 c 128,-1,33
 436 921 436 921 436 883 c 0,34,35
 436 854 436 854 462 832 c 0,36,37
 476 821 476 821 505.5 810 c 128,-1,38
 535 799 535 799 583 788 c 0,39,40
 703 762 703 762 787.5 736.5 c 128,-1,41
 872 711 872 711 924 685 c 256,42,43
 976 659 976 659 1013 626 c 128,-1,44
 1050 593 1050 593 1073 555 c 0,45,46
 1121 478 1121 478 1121 382 c 0,47,48
 1121 325 1121 325 1105 272 c 128,-1,49
 1089 219 1089 219 1058.5 173.5 c 128,-1,50
 1028 128 1028 128 984 91 c 128,-1,51
 940 54 940 54 883 30 c 0,52,53
 772 -20 772 -20 602 -20 c 0,54,55
 302 -20 302 -20 186 95 c 0,56,57
 71 211 71 211 58 388 c 1,58,-1
 402 410 l 1,0,1
EndSplineSet
EndChar

StartChar: T
Encoding: 84 84 46
Width: 1183
Flags: W
LayerCount: 2
Fore
SplineSet
1138 1173 m 1,0,-1
 1138 883 l 1,1,-1
 770 883 l 1,2,-1
 770 0 l 1,3,-1
 408 0 l 1,4,-1
 408 883 l 1,5,-1
 38 883 l 1,6,-1
 38 1173 l 1,7,-1
 1138 1173 l 1,0,-1
EndSplineSet
EndChar

StartChar: U
Encoding: 85 85 47
Width: 1365
Flags: W
LayerCount: 2
Fore
SplineSet
1245 1173 m 1,0,-1
 1245 474 l 2,1,2
 1245 370 1245 370 1212.5 277.5 c 128,-1,3
 1180 185 1180 185 1111 114 c 0,4,5
 1076 80 1076 80 1039.5 56 c 128,-1,6
 1003 32 1003 32 965 18 c 0,7,8
 911 -2 911 -2 849 -12 c 128,-1,9
 787 -22 787 -22 713 -22 c 0,10,11
 669 -22 669 -22 622 -18 c 128,-1,12
 575 -14 575 -14 524 -8 c 256,13,14
 473 -2 473 -2 431.5 9 c 128,-1,15
 390 20 390 20 355 38 c 0,16,17
 322 56 322 56 290 82 c 128,-1,18
 258 108 258 108 231.5 139.5 c 128,-1,19
 205 171 205 171 184.5 205.5 c 128,-1,20
 164 240 164 240 154 275 c 0,21,22
 122 388 122 388 122 474 c 2,23,-1
 122 1173 l 1,24,-1
 482 1173 l 1,25,-1
 482 457 l 2,26,27
 482 360 482 360 535 306 c 128,-1,28
 588 252 588 252 683 252 c 0,29,30
 777 252 777 252 830 305 c 128,-1,31
 883 358 883 358 883 457 c 2,32,-1
 883 1173 l 1,33,-1
 1245 1173 l 1,0,-1
EndSplineSet
EndChar

StartChar: V
Encoding: 86 86 48
Width: 1274
Flags: W
LayerCount: 2
Fore
SplineSet
383 1173 m 1,0,-1
 647 330 l 1,1,-1
 908 1173 l 1,2,-1
 1274 1173 l 1,3,-1
 841 0 l 1,4,-1
 447 0 l 1,5,-1
 3 1173 l 1,6,-1
 383 1173 l 1,0,-1
EndSplineSet
EndChar

StartChar: W
Encoding: 87 87 49
Width: 1638
Flags: W
LayerCount: 2
Fore
SplineSet
342 1173 m 1,0,-1
 467 518 l 1,1,-1
 649 1173 l 1,2,-1
 991 1173 l 1,3,-1
 1173 518 l 1,4,-1
 1298 1173 l 1,5,-1
 1638 1173 l 1,6,-1
 1381 0 l 1,7,-1
 1026 0 l 1,8,-1
 819 739 l 1,9,-1
 614 0 l 1,10,-1
 261 0 l 1,11,-1
 0 1173 l 1,12,-1
 342 1173 l 1,0,-1
EndSplineSet
EndChar

StartChar: X
Encoding: 88 88 50
Width: 1274
Flags: W
LayerCount: 2
Fore
SplineSet
439 1173 m 1,0,-1
 647 813 l 1,1,-1
 849 1173 l 1,2,-1
 1243 1173 l 1,3,-1
 878 605 l 1,4,-1
 1278 0 l 1,5,-1
 870 0 l 1,6,-1
 639 377 l 1,7,-1
 408 0 l 1,8,-1
 2 0 l 1,9,-1
 408 611 l 1,10,-1
 39 1173 l 1,11,-1
 439 1173 l 1,0,-1
EndSplineSet
EndChar

StartChar: Y
Encoding: 89 89 51
Width: 1274
Flags: W
LayerCount: 2
Fore
SplineSet
405 1173 m 1,0,-1
 641 777 l 1,1,-1
 878 1173 l 1,2,-1
 1278 1173 l 1,3,-1
 821 491 l 1,4,-1
 821 0 l 1,5,-1
 458 0 l 1,6,-1
 458 491 l 1,7,-1
 2 1173 l 1,8,-1
 405 1173 l 1,0,-1
EndSplineSet
EndChar

StartChar: Z
Encoding: 90 90 52
Width: 1183
Flags: W
LayerCount: 2
Fore
SplineSet
1116 1173 m 1,0,-1
 1116 939 l 1,1,-1
 458 252 l 1,2,-1
 1140 252 l 1,3,-1
 1140 0 l 1,4,-1
 28 0 l 1,5,-1
 28 242 l 1,6,-1
 678 922 l 1,7,-1
 90 922 l 1,8,-1
 90 1173 l 1,9,-1
 1116 1173 l 1,0,-1
EndSplineSet
EndChar

StartChar: bracketleft
Encoding: 91 91 53
Width: 638
Flags: W
LayerCount: 2
Fore
SplineSet
600 1173 m 1,0,-1
 600 921 l 1,1,-1
 406 921 l 1,2,-1
 406 -72 l 1,3,-1
 600 -72 l 1,4,-1
 600 -326 l 1,5,-1
 108 -326 l 1,6,-1
 108 1173 l 1,7,-1
 600 1173 l 1,0,-1
EndSplineSet
EndChar

StartChar: backslash
Encoding: 92 92 54
Width: 455
Flags: W
LayerCount: 2
Fore
SplineSet
290 -20 m 1,0,-1
 -5 1193 l 1,1,-1
 162 1193 l 1,2,-1
 454 -20 l 1,3,-1
 290 -20 l 1,0,-1
EndSplineSet
EndChar

StartChar: bracketright
Encoding: 93 93 55
Width: 638
Flags: W
LayerCount: 2
Fore
SplineSet
38 -326 m 1,0,-1
 38 -72 l 1,1,-1
 233 -72 l 1,2,-1
 233 921 l 1,3,-1
 38 921 l 1,4,-1
 38 1173 l 1,5,-1
 530 1173 l 1,6,-1
 530 -326 l 1,7,-1
 38 -326 l 1,0,-1
EndSplineSet
EndChar

StartChar: asciicircum
Encoding: 94 94 56
Width: 1082
Flags: W
LayerCount: 2
Fore
SplineSet
649 1193 m 1,0,-1
 977 542 l 1,1,-1
 693 542 l 1,2,-1
 539 935 l 1,3,-1
 383 542 l 1,4,-1
 100 542 l 1,5,-1
 426 1193 l 1,6,-1
 649 1193 l 1,0,-1
EndSplineSet
EndChar

StartChar: underscore
Encoding: 95 95 57
Width: 819
Flags: W
LayerCount: 2
Fore
SplineSet
829 -123 m 1,0,-1
 829 -205 l 1,1,-1
 -10 -205 l 1,2,-1
 -10 -123 l 1,3,-1
 829 -123 l 1,0,-1
EndSplineSet
EndChar

StartChar: grave
Encoding: 96 96 58
Width: 170
Flags: W
LayerCount: 2
Fore
SplineSet
96 802 m 1,0,1
 124 738 124 738 141 681 c 1,2,3
 146 639 146 639 138 644 c 0,4,5
 120 670 120 670 82 742 c 128,-1,6
 44 814 44 814 37 839 c 1,7,8
 34 869 34 869 96 802 c 1,0,1
EndSplineSet
EndChar

StartChar: a
Encoding: 97 97 59
Width: 1093
Flags: W
LayerCount: 2
Fore
SplineSet
83 608 m 1,0,1
 92 648 92 648 104.5 679 c 128,-1,2
 117 710 117 710 134.5 735.5 c 128,-1,3
 152 761 152 761 175.5 781 c 128,-1,4
 199 801 199 801 231 818 c 0,5,6
 276 842 276 842 354 855 c 128,-1,7
 432 868 432 868 522 868 c 0,8,9
 596 868 596 868 654 864.5 c 128,-1,10
 712 861 712 861 758 851.5 c 128,-1,11
 804 842 804 842 840 826 c 128,-1,12
 876 810 876 810 906 785 c 0,13,14
 927 767 927 767 944 740.5 c 128,-1,15
 961 714 961 714 972.5 683 c 128,-1,16
 984 652 984 652 990 618.5 c 128,-1,17
 996 585 996 585 996 555 c 2,18,-1
 996 180 l 2,19,20
 996 121 996 121 1002 87 c 0,21,22
 1007 70 1007 70 1015 48 c 128,-1,23
 1023 26 1023 26 1037 0 c 1,24,-1
 730 0 l 1,25,26
 721 16 721 16 715.5 28 c 128,-1,27
 710 40 710 40 706.5 50.5 c 128,-1,28
 703 61 703 61 701 73 c 128,-1,29
 699 85 699 85 696 103 c 1,30,31
 664 72 664 72 632.5 51 c 128,-1,32
 601 30 601 30 569 16 c 0,33,34
 482 -20 482 -20 369 -20 c 0,35,36
 293 -20 293 -20 235 -1 c 128,-1,37
 177 18 177 18 138 51 c 128,-1,38
 99 84 99 84 79 128.5 c 128,-1,39
 59 173 59 173 59 225 c 0,40,41
 59 322 59 322 114 383 c 0,42,43
 170 444 170 444 325 477 c 0,44,45
 417 496 417 496 476 508 c 128,-1,46
 535 520 535 520 562 527 c 0,47,48
 589 536 589 536 618.5 546 c 128,-1,49
 648 556 648 556 678 567 c 1,50,51
 678 627 678 627 653 651 c 128,-1,52
 628 675 628 675 566 675 c 0,53,54
 484 675 484 675 446 649 c 0,55,56
 415 631 415 631 395 575 c 1,57,-1
 83 608 l 1,0,1
678 403 m 1,58,59
 645 390 645 390 609.5 379.5 c 128,-1,60
 574 369 574 369 538 361 c 0,61,62
 488 347 488 347 456.5 334.5 c 128,-1,63
 425 322 425 322 411 308 c 0,64,65
 385 280 385 280 385 249 c 0,66,67
 385 210 385 210 412 186 c 128,-1,68
 439 162 439 162 490 162 c 0,69,70
 533 165 533 165 569 178.5 c 128,-1,71
 605 192 605 192 630 216 c 128,-1,72
 655 240 655 240 668 273.5 c 128,-1,73
 681 307 681 307 678 350 c 2,74,-1
 678 403 l 1,58,59
EndSplineSet
EndChar

StartChar: b
Encoding: 98 98 60
Width: 1093
Flags: W
LayerCount: 2
Fore
SplineSet
430 1173 m 1,0,-1
 430 766 l 1,1,2
 526 868 526 868 677 868 c 0,3,4
 831 868 831 868 934 757 c 0,5,6
 1035 645 1035 645 1035 438 c 0,7,8
 1036 332 1036 332 1008.5 246 c 128,-1,9
 981 160 981 160 932.5 100 c 128,-1,10
 884 40 884 40 818.5 8.5 c 128,-1,11
 753 -23 753 -23 678 -20 c 0,12,13
 635 -20 635 -20 596 -10 c 128,-1,14
 557 0 557 0 521 18 c 0,15,16
 468 45 468 45 405 126 c 1,17,-1
 405 0 l 1,18,-1
 100 0 l 1,19,-1
 100 1173 l 1,20,-1
 430 1173 l 1,0,-1
426 428 m 0,21,22
 426 373 426 373 437 333.5 c 128,-1,23
 448 294 448 294 467.5 268.5 c 128,-1,24
 487 243 487 243 513.5 231 c 128,-1,25
 540 219 540 219 572 219 c 0,26,27
 601 219 601 219 626.5 230.5 c 128,-1,28
 652 242 652 242 670.5 267.5 c 128,-1,29
 689 293 689 293 699.5 333.5 c 128,-1,30
 710 374 710 374 710 431 c 0,31,32
 710 481 710 481 699.5 517.5 c 128,-1,33
 689 554 689 554 671 578 c 128,-1,34
 653 602 653 602 628.5 614 c 128,-1,35
 604 626 604 626 577 626 c 0,36,37
 544 626 544 626 516.5 613.5 c 128,-1,38
 489 601 489 601 469 576.5 c 128,-1,39
 449 552 449 552 437.5 514.5 c 128,-1,40
 426 477 426 477 426 428 c 0,21,22
EndSplineSet
EndChar

StartChar: c
Encoding: 99 99 61
Width: 1093
Flags: W
LayerCount: 2
Fore
SplineSet
1042 297 m 1,0,1
 1022 225 1022 225 985.5 166.5 c 128,-1,2
 949 108 949 108 892.5 66.5 c 128,-1,3
 836 25 836 25 758 2.5 c 128,-1,4
 680 -20 680 -20 578 -20 c 0,5,6
 510 -20 510 -20 454 -13.5 c 128,-1,7
 398 -7 398 -7 351.5 6 c 128,-1,8
 305 19 305 19 267 39 c 128,-1,9
 229 59 229 59 197 87 c 256,10,11
 165 115 165 115 139.5 147 c 128,-1,12
 114 179 114 179 96 218.5 c 128,-1,13
 78 258 78 258 68.5 308 c 128,-1,14
 59 358 59 358 59 421 c 0,15,16
 59 553 59 553 103 639 c 0,17,18
 119 671 119 671 142.5 700 c 128,-1,19
 166 729 166 729 193.5 753.5 c 128,-1,20
 221 778 221 778 250.5 797.5 c 128,-1,21
 280 817 280 817 310 829 c 0,22,23
 406 868 406 868 554 868 c 0,24,25
 657 868 657 868 735.5 849 c 128,-1,26
 814 830 814 830 871 793.5 c 128,-1,27
 928 757 928 757 965 702.5 c 128,-1,28
 1002 648 1002 648 1024 577 c 1,29,-1
 718 536 l 1,30,31
 689 646 689 646 564 646 c 0,32,33
 524 646 524 646 490.5 631.5 c 128,-1,34
 457 617 457 617 433 587.5 c 128,-1,35
 409 558 409 558 396 514 c 128,-1,36
 383 470 383 470 383 411 c 0,37,38
 383 360 383 360 396 320 c 128,-1,39
 409 280 409 280 432 253 c 128,-1,40
 455 226 455 226 487 212 c 128,-1,41
 519 198 519 198 558 198 c 0,42,43
 623 198 623 198 667.5 231 c 128,-1,44
 712 264 712 264 732 333 c 1,45,-1
 1042 297 l 1,0,1
EndSplineSet
EndChar

StartChar: d
Encoding: 100 100 62
Width: 1093
Flags: W
LayerCount: 2
Fore
SplineSet
993 0 m 1,0,-1
 688 0 l 1,1,-1
 688 126 l 1,2,3
 656 85 656 85 627 58.5 c 128,-1,4
 598 32 598 32 572 18 c 0,5,6
 536 0 536 0 497 -10 c 128,-1,7
 458 -20 458 -20 414 -20 c 0,8,9
 242 -20 242 -20 149 111 c 0,10,11
 58 246 58 246 58 434 c 0,12,13
 58 645 58 645 159 757 c 0,14,15
 261 868 261 868 416 868 c 0,16,17
 568 868 568 868 663 766 c 1,18,-1
 663 1173 l 1,19,-1
 993 1173 l 1,20,-1
 993 0 l 1,0,-1
667 428 m 0,21,22
 667 477 667 477 655.5 514.5 c 128,-1,23
 644 552 644 552 624 576.5 c 128,-1,24
 604 601 604 601 576.5 613.5 c 128,-1,25
 549 626 549 626 516 626 c 0,26,27
 488 626 488 626 464 614.5 c 128,-1,28
 440 603 440 603 422 578.5 c 128,-1,29
 404 554 404 554 393.5 514.5 c 128,-1,30
 383 475 383 475 383 419 c 0,31,32
 383 368 383 368 393.5 330 c 128,-1,33
 404 292 404 292 422.5 267.5 c 128,-1,34
 441 243 441 243 466 231 c 128,-1,35
 491 219 491 219 521 219 c 0,36,37
 552 219 552 219 579 230.5 c 128,-1,38
 606 242 606 242 625.5 267 c 128,-1,39
 645 292 645 292 656 332 c 128,-1,40
 667 372 667 372 667 428 c 0,21,22
EndSplineSet
EndChar

StartChar: e
Encoding: 101 101 63
Width: 1093
Flags: W
LayerCount: 2
Fore
SplineSet
388 344 m 1,0,1
 399 265 399 265 431 228 c 0,2,3
 477 172 477 172 554 172 c 0,4,5
 578 172 578 172 601.5 178 c 128,-1,6
 625 184 625 184 646 197 c 0,7,8
 659 204 659 204 673 217.5 c 128,-1,9
 687 231 687 231 703 249 c 1,10,-1
 1024 219 l 1,11,12
 952 93 952 93 846 36 c 0,13,14
 744 -20 744 -20 547 -20 c 0,15,16
 463 -20 463 -20 397.5 -8.5 c 128,-1,17
 332 3 332 3 281.5 27.5 c 128,-1,18
 231 52 231 52 192 89.5 c 128,-1,19
 153 127 153 127 122 178 c 0,20,21
 89 232 89 232 73.5 292.5 c 128,-1,22
 58 353 58 353 58 422 c 0,23,24
 58 622 58 622 185 746 c 0,25,26
 313 868 313 868 538 868 c 0,27,28
 671 866 671 866 765.5 836.5 c 128,-1,29
 860 807 860 807 920 747.5 c 128,-1,30
 980 688 980 688 1009 596.5 c 128,-1,31
 1038 505 1038 505 1042 380 c 1,32,-1
 1042 344 l 1,33,-1
 388 344 l 1,0,1
711 500 m 1,34,35
 701 595 701 595 660 636 c 128,-1,36
 619 677 619 677 550 677 c 0,37,38
 474 677 474 677 428 614 c 0,39,40
 413 596 413 596 403.5 567 c 128,-1,41
 394 538 394 538 390 500 c 1,42,-1
 711 500 l 1,34,35
EndSplineSet
EndChar

StartChar: f
Encoding: 102 102 64
Width: 638
Flags: W
LayerCount: 2
Fore
SplineSet
616 850 m 1,0,-1
 616 611 l 1,1,-1
 460 611 l 1,2,-1
 460 0 l 1,3,-1
 134 0 l 1,4,-1
 134 611 l 1,5,-1
 13 611 l 1,6,-1
 13 850 l 1,7,-1
 134 850 l 1,8,-1
 134 888 l 2,9,10
 134 914 134 914 136.5 944 c 128,-1,11
 139 974 139 974 145 1003 c 128,-1,12
 151 1032 151 1032 161 1058 c 128,-1,13
 171 1084 171 1084 186 1104 c 0,14,15
 202 1124 202 1124 223 1140.5 c 128,-1,16
 244 1157 244 1157 274 1168.5 c 128,-1,17
 304 1180 304 1180 344 1186.5 c 128,-1,18
 384 1193 384 1193 438 1193 c 0,19,20
 480 1193 480 1193 542 1188 c 128,-1,21
 604 1183 604 1183 685 1173 c 1,22,-1
 649 977 l 1,23,24
 592 986 592 986 555 986 c 0,25,26
 511 986 511 986 492.5 970.5 c 128,-1,27
 474 955 474 955 466 924 c 0,28,29
 460 907 460 907 460 850 c 1,30,-1
 616 850 l 1,0,-1
EndSplineSet
EndChar

StartChar: g
Encoding: 103 103 65
Width: 1093
Flags: W
LayerCount: 2
Fore
SplineSet
994 850 m 1,0,-1
 994 47 l 1,1,-1
 994 10 l 2,2,3
 994 -71 994 -71 961 -142.5 c 128,-1,4
 928 -214 928 -214 870 -259 c 0,5,6
 814 -304 814 -304 728 -324 c 128,-1,7
 642 -344 642 -344 530 -344 c 0,8,9
 274 -344 274 -344 177 -267 c 0,10,11
 82 -191 82 -191 82 -62 c 0,12,13
 82 -53 82 -53 82 -43.5 c 128,-1,14
 82 -34 82 -34 83 -20 c 1,15,-1
 400 -56 l 1,16,17
 412 -101 412 -101 436 -116 c 0,18,19
 471 -141 471 -141 526 -141 c 0,20,21
 596 -141 596 -141 631.5 -103.5 c 128,-1,22
 667 -66 667 -66 667 28 c 2,23,-1
 667 158 l 1,24,25
 617 100 617 100 570 74 c 0,26,27
 494 34 494 34 408 34 c 0,28,29
 237 34 237 34 133 183 c 0,30,31
 59 288 59 288 59 462 c 0,32,33
 59 561 59 561 84 637 c 128,-1,34
 109 713 109 713 154.5 764 c 128,-1,35
 200 815 200 815 264 841.5 c 128,-1,36
 328 868 328 868 406 868 c 0,37,38
 455 868 455 868 495.5 860 c 128,-1,39
 536 852 536 852 570 834.5 c 128,-1,40
 604 817 604 817 633 790 c 128,-1,41
 662 763 662 763 690 724 c 1,42,-1
 690 850 l 1,43,-1
 994 850 l 1,0,-1
383 438 m 0,44,45
 383 345 383 345 422.5 301.5 c 128,-1,46
 462 258 462 258 526 258 c 0,47,48
 556 258 556 258 582 269.5 c 128,-1,49
 608 281 608 281 627.5 303.5 c 128,-1,50
 647 326 647 326 658 360.5 c 128,-1,51
 669 395 669 395 669 442 c 0,52,53
 669 488 669 488 657.5 524 c 128,-1,54
 646 560 646 560 625.5 584 c 128,-1,55
 605 608 605 608 577.5 620.5 c 128,-1,56
 550 633 550 633 519 633 c 0,57,58
 457 633 457 633 420 587.5 c 128,-1,59
 383 542 383 542 383 438 c 0,44,45
EndSplineSet
EndChar

StartChar: h
Encoding: 104 104 66
Width: 1093
Flags: W
LayerCount: 2
Fore
SplineSet
424 1173 m 1,0,-1
 424 741 l 1,1,2
 457 775 457 775 489 799 c 128,-1,3
 521 823 521 823 555.5 838.5 c 128,-1,4
 590 854 590 854 628 861 c 128,-1,5
 666 868 666 868 711 868 c 0,6,7
 844 868 844 868 920 787.5 c 128,-1,8
 996 707 996 707 996 541 c 2,9,-1
 996 0 l 1,10,-1
 670 0 l 1,11,-1
 670 467 l 2,12,13
 670 547 670 547 640.5 580.5 c 128,-1,14
 611 614 611 614 557 614 c 0,15,16
 527 614 527 614 502.5 603.5 c 128,-1,17
 478 593 478 593 460.5 569 c 128,-1,18
 443 545 443 545 433.5 505.5 c 128,-1,19
 424 466 424 466 424 408 c 2,20,-1
 424 0 l 1,21,-1
 98 0 l 1,22,-1
 98 1173 l 1,23,-1
 424 1173 l 1,0,-1
EndSplineSet
EndChar

StartChar: i
Encoding: 105 105 67
Width: 546
Flags: W
LayerCount: 2
Fore
SplineSet
436 1173 m 1,0,-1
 436 952 l 1,1,-1
 110 952 l 1,2,-1
 110 1173 l 1,3,-1
 436 1173 l 1,0,-1
436 850 m 1,4,-1
 436 0 l 1,5,-1
 110 0 l 1,6,-1
 110 850 l 1,7,-1
 436 850 l 1,4,-1
EndSplineSet
EndChar

StartChar: j
Encoding: 106 106 68
Width: 546
Flags: W
LayerCount: 2
Fore
SplineSet
438 1173 m 1,0,-1
 438 949 l 1,1,-1
 111 949 l 1,2,-1
 111 1173 l 1,3,-1
 438 1173 l 1,0,-1
438 850 m 1,4,-1
 438 26 l 2,5,6
 438 -132 438 -132 414 -198 c 0,7,8
 403 -231 403 -231 381.5 -257 c 128,-1,9
 360 -283 360 -283 330 -303 c 0,10,11
 268 -344 268 -344 154 -344 c 0,12,13
 107 -344 107 -344 48.5 -337 c 128,-1,14
 -10 -330 -10 -330 -80 -316 c 1,15,-1
 -31 -80 l 1,16,17
 -11 -84 -11 -84 3 -86.5 c 128,-1,18
 17 -89 17 -89 26 -89 c 0,19,20
 47 -89 47 -89 63 -82.5 c 128,-1,21
 79 -76 79 -76 89.5 -60 c 128,-1,22
 100 -44 100 -44 105.5 -16 c 128,-1,23
 111 12 111 12 111 54 c 2,24,-1
 111 850 l 1,25,-1
 438 850 l 1,4,-1
EndSplineSet
EndChar

StartChar: k
Encoding: 107 107 69
Width: 1093
Flags: W
LayerCount: 2
Fore
SplineSet
431 1173 m 1,0,-1
 431 569 l 1,1,-1
 675 850 l 1,2,-1
 1074 850 l 1,3,-1
 770 552 l 1,4,-1
 1093 0 l 1,5,-1
 726 0 l 1,6,-1
 554 341 l 1,7,-1
 431 221 l 1,8,-1
 431 0 l 1,9,-1
 98 0 l 1,10,-1
 98 1173 l 1,11,-1
 431 1173 l 1,0,-1
EndSplineSet
EndChar

StartChar: l
Encoding: 108 108 70
Width: 546
Flags: W
LayerCount: 2
Fore
SplineSet
436 1173 m 1,0,-1
 436 0 l 1,1,-1
 110 0 l 1,2,-1
 110 1173 l 1,3,-1
 436 1173 l 1,0,-1
EndSplineSet
EndChar

StartChar: m
Encoding: 109 109 71
Width: 1638
Flags: W
LayerCount: 2
Fore
SplineSet
405 850 m 1,0,-1
 405 726 l 1,1,2
 437 765 437 765 469.5 792 c 128,-1,3
 502 819 502 819 537 836 c 128,-1,4
 572 853 572 853 611.5 860.5 c 128,-1,5
 651 868 651 868 698 868 c 0,6,7
 800 868 800 868 860 832 c 128,-1,8
 920 796 920 796 955 726 c 1,9,10
 993 768 993 768 1028.5 796 c 128,-1,11
 1064 824 1064 824 1096 839 c 0,12,13
 1160 868 1160 868 1252 868 c 0,14,15
 1389 868 1389 868 1465.5 787 c 128,-1,16
 1542 706 1542 706 1542 534 c 2,17,-1
 1542 0 l 1,18,-1
 1216 0 l 1,19,-1
 1216 483 l 2,20,21
 1216 544 1216 544 1194 570 c 0,22,23
 1160 614 1160 614 1113 614 c 0,24,25
 1054 614 1054 614 1019.5 573 c 128,-1,26
 985 532 985 532 985 439 c 2,27,-1
 985 0 l 1,28,-1
 657 0 l 1,29,-1
 657 469 l 2,30,31
 657 526 657 526 650 544 c 0,32,33
 641 577 641 577 615.5 595.5 c 128,-1,34
 590 614 590 614 555 614 c 0,35,36
 500 614 500 614 464 572.5 c 128,-1,37
 428 531 428 531 428 434 c 2,38,-1
 428 0 l 1,39,-1
 102 0 l 1,40,-1
 102 850 l 1,41,-1
 405 850 l 1,0,-1
EndSplineSet
EndChar

StartChar: n
Encoding: 110 110 72
Width: 1093
Flags: W
LayerCount: 2
Fore
SplineSet
402 850 m 1,0,-1
 402 711 l 1,1,2
 436 753 436 753 469.5 783 c 128,-1,3
 503 813 503 813 540 832 c 128,-1,4
 577 851 577 851 618.5 859.5 c 128,-1,5
 660 868 660 868 710 868 c 0,6,7
 777 868 777 868 830 848 c 128,-1,8
 883 828 883 828 920 787.5 c 128,-1,9
 957 747 957 747 976.5 685.5 c 128,-1,10
 996 624 996 624 996 541 c 2,11,-1
 996 0 l 1,12,-1
 670 0 l 1,13,-1
 670 467 l 2,14,15
 670 547 670 547 640.5 580.5 c 128,-1,16
 611 614 611 614 557 614 c 0,17,18
 527 614 527 614 502.5 603.5 c 128,-1,19
 478 593 478 593 460.5 569 c 128,-1,20
 443 545 443 545 433.5 505.5 c 128,-1,21
 424 466 424 466 424 408 c 2,22,-1
 424 0 l 1,23,-1
 98 0 l 1,24,-1
 98 850 l 1,25,-1
 402 850 l 1,0,-1
EndSplineSet
EndChar

StartChar: o
Encoding: 111 111 73
Width: 1093
Flags: W
LayerCount: 2
Fore
SplineSet
59 422 m 0,0,1
 59 616 59 616 190 742 c 0,2,3
 320 868 320 868 544 868 c 0,4,5
 798 868 798 868 929 721 c 0,6,7
 1034 601 1034 601 1034 428 c 0,8,9
 1034 231 1034 231 904 105 c 0,10,11
 774 -20 774 -20 546 -20 c 0,12,13
 443 -20 443 -20 360 5.5 c 128,-1,14
 277 31 277 31 213 85 c 0,15,16
 59 212 59 212 59 422 c 0,0,1
385 422 m 0,17,18
 385 366 385 366 397 324.5 c 128,-1,19
 409 283 409 283 431 256 c 128,-1,20
 453 229 453 229 482 215.5 c 128,-1,21
 511 202 511 202 546 202 c 256,22,23
 581 202 581 202 610.5 215 c 128,-1,24
 640 228 640 228 662 255 c 128,-1,25
 684 282 684 282 696 324.5 c 128,-1,26
 708 367 708 367 708 426 c 0,27,28
 708 482 708 482 696 523.5 c 128,-1,29
 684 565 684 565 662.5 592 c 128,-1,30
 641 619 641 619 612 632.5 c 128,-1,31
 583 646 583 646 549 646 c 0,32,33
 514 646 514 646 484 632.5 c 128,-1,34
 454 619 454 619 432 591 c 128,-1,35
 410 563 410 563 397.5 521 c 128,-1,36
 385 479 385 479 385 422 c 0,17,18
EndSplineSet
EndChar

StartChar: p
Encoding: 112 112 74
Width: 1093
Flags: W
LayerCount: 2
Fore
SplineSet
100 850 m 1,0,-1
 405 850 l 1,1,-1
 405 724 l 1,2,3
 469 805 469 805 521 830 c 0,4,5
 594 868 594 868 678 868 c 0,6,7
 848 868 848 868 942 738 c 0,8,9
 1035 606 1035 606 1035 416 c 0,10,11
 1035 205 1035 205 934 92 c 0,12,13
 831 -20 831 -20 677 -20 c 0,14,15
 602 -20 602 -20 540 6 c 128,-1,16
 478 32 478 32 430 82 c 1,17,-1
 430 -322 l 1,18,-1
 100 -322 l 1,19,-1
 100 850 l 1,0,-1
426 422 m 0,20,21
 426 371 426 371 437.5 334 c 128,-1,22
 449 297 449 297 469 272.5 c 128,-1,23
 489 248 489 248 516.5 236.5 c 128,-1,24
 544 225 544 225 577 225 c 0,25,26
 604 225 604 225 628.5 236 c 128,-1,27
 653 247 653 247 671 271.5 c 128,-1,28
 689 296 689 296 699.5 335 c 128,-1,29
 710 374 710 374 710 430 c 0,30,31
 710 481 710 481 699.5 518.5 c 128,-1,32
 689 556 689 556 670 580.5 c 128,-1,33
 651 605 651 605 626 617 c 128,-1,34
 601 629 601 629 572 629 c 0,35,36
 540 629 540 629 513.5 617.5 c 128,-1,37
 487 606 487 606 467.5 581 c 128,-1,38
 448 556 448 556 437 516.5 c 128,-1,39
 426 477 426 477 426 422 c 0,20,21
EndSplineSet
EndChar

StartChar: q
Encoding: 113 113 75
Width: 1093
Flags: W
LayerCount: 2
Fore
SplineSet
663 -322 m 1,0,-1
 663 82 l 1,1,2
 615 32 615 32 553 6 c 128,-1,3
 491 -20 491 -20 416 -20 c 0,4,5
 260 -20 260 -20 159 92 c 0,6,7
 58 205 58 205 58 411 c 0,8,9
 56 517 56 517 84 602.5 c 128,-1,10
 112 688 112 688 160.5 748 c 128,-1,11
 209 808 209 808 274.5 839.5 c 128,-1,12
 340 871 340 871 414 868 c 0,13,14
 499 868 499 868 572 830 c 0,15,16
 625 803 625 803 688 724 c 1,17,-1
 688 850 l 1,18,-1
 993 850 l 1,19,-1
 993 -322 l 1,20,-1
 663 -322 l 1,0,-1
667 422 m 0,21,22
 667 477 667 477 656 516.5 c 128,-1,23
 645 556 645 556 625.5 581 c 128,-1,24
 606 606 606 606 579 617.5 c 128,-1,25
 552 629 552 629 521 629 c 0,26,27
 491 629 491 629 466 617.5 c 128,-1,28
 441 606 441 606 422.5 580.5 c 128,-1,29
 404 555 404 555 393.5 515.5 c 128,-1,30
 383 476 383 476 383 419 c 0,31,32
 383 368 383 368 393.5 331.5 c 128,-1,33
 404 295 404 295 422 271 c 128,-1,34
 440 247 440 247 464 236 c 128,-1,35
 488 225 488 225 516 225 c 0,36,37
 549 225 549 225 576.5 236.5 c 128,-1,38
 604 248 604 248 624 272.5 c 128,-1,39
 644 297 644 297 655.5 334 c 128,-1,40
 667 371 667 371 667 422 c 0,21,22
EndSplineSet
EndChar

StartChar: r
Encoding: 114 114 76
Width: 727
Flags: W
LayerCount: 2
Fore
SplineSet
406 850 m 1,0,-1
 406 711 l 1,1,2
 428 756 428 756 450.5 786 c 128,-1,3
 473 816 473 816 497.5 834 c 128,-1,4
 522 852 522 852 550 860 c 128,-1,5
 578 868 578 868 613 868 c 0,6,7
 686 868 686 868 770 824 c 1,8,-1
 670 591 l 1,9,10
 616 616 616 616 578 616 c 0,11,12
 516 616 516 616 478 564 c 1,13,14
 430 487 430 487 430 285 c 2,15,-1
 430 0 l 1,16,-1
 102 0 l 1,17,-1
 102 850 l 1,18,-1
 406 850 l 1,0,-1
EndSplineSet
EndChar

StartChar: s
Encoding: 115 115 77
Width: 1001
Flags: W
LayerCount: 2
Fore
SplineSet
364 266 m 1,0,1
 384 208 384 208 420 183.5 c 128,-1,2
 456 159 456 159 516 159 c 0,3,4
 549 159 549 159 574 166 c 128,-1,5
 599 173 599 173 618 186 c 0,6,7
 646 208 646 208 646 239 c 0,8,9
 646 273 646 273 610 294 c 1,10,11
 579 307 579 307 469 326 c 0,12,13
 300 356 300 356 233 380 c 0,14,15
 166 407 166 407 122 466 c 0,16,17
 77 526 77 526 77 603 c 0,18,19
 80 667 80 667 105 717 c 128,-1,20
 130 767 130 767 180.5 801 c 128,-1,21
 231 835 231 835 307.5 852 c 128,-1,22
 384 869 384 869 490 868 c 0,23,24
 566 868 566 868 622.5 862.5 c 128,-1,25
 679 857 679 857 714 846 c 0,26,27
 788 821 788 821 834 774 c 0,28,29
 883 724 883 724 916 642 c 1,30,-1
 606 611 l 1,31,32
 600 632 600 632 590.5 646.5 c 128,-1,33
 581 661 581 661 567 672 c 0,34,35
 528 696 528 696 474 696 c 0,36,37
 418 696 418 696 393.5 677 c 128,-1,38
 369 658 369 658 369 629 c 0,39,40
 369 597 369 597 400 582 c 0,41,42
 433 566 433 566 539 554 c 0,43,44
 620 545 620 545 680 532 c 128,-1,45
 740 519 740 519 780 503 c 0,46,47
 821 487 821 487 851 463 c 128,-1,48
 881 439 881 439 901 408 c 0,49,50
 944 345 944 345 944 275 c 0,51,52
 942 220 942 220 918.5 166 c 128,-1,53
 895 112 895 112 843 70 c 128,-1,54
 791 28 791 28 707 3 c 128,-1,55
 623 -22 623 -22 500 -20 c 0,56,57
 267 -20 267 -20 167 46 c 0,58,59
 68 113 68 113 41 236 c 1,60,-1
 364 266 l 1,0,1
EndSplineSet
EndChar

StartChar: t
Encoding: 116 116 78
Width: 727
Flags: W
LayerCount: 2
Fore
SplineSet
491 850 m 1,0,-1
 670 850 l 1,1,-1
 670 613 l 1,2,-1
 491 613 l 1,3,-1
 491 310 l 2,4,5
 491 254 491 254 502 239 c 0,6,7
 519 211 519 211 557 211 c 0,8,9
 593 211 593 211 658 233 c 1,10,-1
 683 6 l 1,11,12
 561 -20 561 -20 457 -20 c 0,13,14
 396 -20 396 -20 352.5 -12 c 128,-1,15
 309 -4 309 -4 278 11.5 c 128,-1,16
 247 27 247 27 226.5 50.5 c 128,-1,17
 206 74 206 74 192 106 c 0,18,19
 166 168 166 168 166 313 c 2,20,-1
 166 613 l 1,21,-1
 44 613 l 1,22,-1
 44 850 l 1,23,-1
 166 850 l 1,24,-1
 166 1006 l 1,25,-1
 491 1173 l 1,26,-1
 491 850 l 1,0,-1
EndSplineSet
EndChar

StartChar: u
Encoding: 117 117 79
Width: 1093
Flags: W
LayerCount: 2
Fore
SplineSet
690 0 m 1,0,-1
 690 138 l 1,1,2
 655 96 655 96 622 66 c 128,-1,3
 589 36 589 36 552.5 17 c 128,-1,4
 516 -2 516 -2 474.5 -11 c 128,-1,5
 433 -20 433 -20 382 -20 c 0,6,7
 315 -20 315 -20 261.5 0 c 128,-1,8
 208 20 208 20 171 60.5 c 128,-1,9
 134 101 134 101 114.5 162.5 c 128,-1,10
 95 224 95 224 95 308 c 2,11,-1
 95 850 l 1,12,-1
 422 850 l 1,13,-1
 422 382 l 2,14,15
 422 303 422 303 452 269.5 c 128,-1,16
 482 236 482 236 536 236 c 0,17,18
 565 236 565 236 589.5 246 c 128,-1,19
 614 256 614 256 631.5 280 c 128,-1,20
 649 304 649 304 659 343 c 128,-1,21
 669 382 669 382 669 441 c 2,22,-1
 669 850 l 1,23,-1
 993 850 l 1,24,-1
 993 0 l 1,25,-1
 690 0 l 1,0,-1
EndSplineSet
EndChar

StartChar: v
Encoding: 118 118 80
Width: 1001
Flags: W
LayerCount: 2
Fore
SplineSet
341 850 m 1,0,-1
 506 311 l 1,1,-1
 677 850 l 1,2,-1
 1004 850 l 1,3,-1
 644 0 l 1,4,-1
 355 0 l 1,5,-1
 2 850 l 1,6,-1
 341 850 l 1,0,-1
EndSplineSet
EndChar

StartChar: w
Encoding: 119 119 81
Width: 1546
Flags: W
LayerCount: 2
Fore
SplineSet
318 850 m 1,0,-1
 454 314 l 1,1,-1
 627 850 l 1,2,-1
 921 850 l 1,3,-1
 1099 314 l 1,4,-1
 1237 850 l 1,5,-1
 1550 850 l 1,6,-1
 1237 0 l 1,7,-1
 947 0 l 1,8,-1
 775 511 l 1,9,-1
 610 0 l 1,10,-1
 318 0 l 1,11,-1
 2 850 l 1,12,-1
 318 850 l 1,0,-1
EndSplineSet
EndChar

StartChar: x
Encoding: 120 120 82
Width: 1093
Flags: W
LayerCount: 2
Fore
SplineSet
411 850 m 1,0,-1
 546 613 l 1,1,-1
 703 850 l 1,2,-1
 1062 850 l 1,3,-1
 774 444 l 1,4,-1
 1083 0 l 1,5,-1
 703 0 l 1,6,-1
 546 274 l 1,7,-1
 362 0 l 1,8,-1
 8 0 l 1,9,-1
 318 444 l 1,10,-1
 25 850 l 1,11,-1
 411 850 l 1,0,-1
EndSplineSet
EndChar

StartChar: y
Encoding: 121 121 83
Width: 1001
Flags: W
LayerCount: 2
Fore
SplineSet
347 850 m 1,0,-1
 522 283 l 1,1,-1
 685 850 l 1,2,-1
 1006 850 l 1,3,-1
 670 -59 l 2,4,5
 642 -137 642 -137 612.5 -188.5 c 128,-1,6
 583 -240 583 -240 552 -269 c 0,7,8
 508 -307 508 -307 445 -325.5 c 128,-1,9
 382 -344 382 -344 294 -344 c 0,10,11
 223 -344 223 -344 75 -326 c 1,12,-1
 50 -98 l 1,13,14
 86 -109 86 -109 124.5 -115.5 c 128,-1,15
 163 -122 163 -122 206 -122 c 0,16,17
 236 -122 236 -122 259 -116 c 128,-1,18
 282 -110 282 -110 300.5 -95.5 c 128,-1,19
 319 -81 319 -81 334 -58 c 128,-1,20
 349 -35 349 -35 361 0 c 1,21,-1
 3 850 l 1,22,-1
 347 850 l 1,0,-1
EndSplineSet
EndChar

StartChar: z
Encoding: 122 122 84
Width: 911
Flags: W
LayerCount: 2
Fore
SplineSet
850 850 m 1,0,-1
 850 658 l 1,1,-1
 421 223 l 1,2,-1
 877 223 l 1,3,-1
 877 0 l 1,4,-1
 30 0 l 1,5,-1
 30 211 l 1,6,-1
 436 627 l 1,7,-1
 62 627 l 1,8,-1
 62 850 l 1,9,-1
 850 850 l 1,0,-1
EndSplineSet
EndChar

StartChar: braceleft
Encoding: 123 123 85
Width: 638
Flags: W
LayerCount: 2
Fore
SplineSet
619 930 m 1,0,-1
 583 930 l 2,1,2
 532 930 532 930 507 909 c 128,-1,3
 482 888 482 888 472 844 c 0,4,5
 467 818 467 818 466 711 c 0,6,7
 466 608 466 608 444 544 c 0,8,9
 436 521 436 521 424.5 501 c 128,-1,10
 413 481 413 481 398 467 c 0,11,12
 387 456 387 456 369 445 c 128,-1,13
 351 434 351 434 325 422 c 1,14,15
 351 410 351 410 370 398 c 128,-1,16
 389 386 389 386 403 371 c 128,-1,17
 417 356 417 356 427.5 336.5 c 128,-1,18
 438 317 438 317 447 290 c 0,19,20
 467 235 467 235 467 114 c 0,21,22
 467 4 467 4 477 -26 c 0,23,24
 483 -42 483 -42 492 -54 c 128,-1,25
 501 -66 501 -66 514 -72 c 0,26,27
 528 -78 528 -78 554 -81.5 c 128,-1,28
 580 -85 580 -85 619 -85 c 1,29,-1
 619 -344 l 1,30,-1
 518 -344 l 2,31,32
 362 -344 362 -344 297 -310 c 0,33,34
 230 -277 230 -277 203 -211 c 0,35,36
 189 -178 189 -178 182 -130 c 128,-1,37
 175 -82 175 -82 175 -16 c 0,38,39
 175 -2 175 -2 175 12.5 c 128,-1,40
 175 27 175 27 177 41 c 2,41,-1
 177 77 l 2,42,43
 176 146 176 146 168 185.5 c 128,-1,44
 160 225 160 225 142 245.5 c 128,-1,45
 124 266 124 266 94.5 273 c 128,-1,46
 65 280 65 280 22 285 c 1,47,-1
 22 560 l 1,48,49
 67 564 67 564 95.5 572 c 128,-1,50
 124 580 124 580 141 601.5 c 128,-1,51
 158 623 158 623 165.5 663.5 c 128,-1,52
 173 704 173 704 175 772 c 2,53,-1
 175 799 l 1,54,-1
 175 835 l 2,55,56
 175 977 175 977 198 1040 c 0,57,58
 223 1106 223 1106 264 1137 c 0,59,60
 296 1164 296 1164 349 1176 c 0,61,62
 385 1185 385 1185 425 1189 c 128,-1,63
 465 1193 465 1193 511 1193 c 2,64,-1
 619 1193 l 1,65,-1
 619 930 l 1,0,-1
EndSplineSet
EndChar

StartChar: bar
Encoding: 124 124 86
Width: 455
Flags: W
LayerCount: 2
Fore
SplineSet
333 1173 m 1,0,-1
 333 -322 l 1,1,-1
 128 -322 l 1,2,-1
 128 1173 l 1,3,-1
 333 1173 l 1,0,-1
EndSplineSet
EndChar

StartChar: asciitilde
Encoding: 126 126 87
Width: 1082
Flags: W
LayerCount: 2
Fore
SplineSet
996 516 m 1,0,1
 904 445 904 445 847 418 c 0,2,3
 791 394 791 394 730 394 c 0,4,5
 682 394 682 394 636 406 c 0,6,7
 613 414 613 414 577 430 c 128,-1,8
 541 446 541 446 490 470 c 0,9,10
 440 496 440 496 401.5 508.5 c 128,-1,11
 363 521 363 521 334 521 c 0,12,13
 271 521 271 521 207.5 489 c 128,-1,14
 144 457 144 457 78 394 c 1,15,-1
 78 657 l 1,16,17
 115 690 115 690 149.5 713 c 128,-1,18
 184 736 184 736 218 751 c 128,-1,19
 252 766 252 766 287 773 c 128,-1,20
 322 780 322 780 361 780 c 0,21,22
 380 780 380 780 399.5 777 c 128,-1,23
 419 774 419 774 442.5 766.5 c 128,-1,24
 466 759 466 759 496.5 746 c 128,-1,25
 527 733 527 733 569 713 c 256,26,27
 611 693 611 693 640 680.5 c 128,-1,28
 669 668 669 668 686 662 c 0,29,30
 722 652 722 652 754 652 c 0,31,32
 861 652 861 652 996 778 c 1,33,-1
 996 516 l 1,0,1
EndSplineSet
EndChar

StartChar: ccedilla
Encoding: 231 231 90
Width: 805
Flags: W
LayerCount: 2
Fore
SplineSet
775 198 m 1,0,-1
 764 142 l 1,1,2
 616 37 616 37 445 -9 c 1,3,-1
 408 -65 l 1,4,5
 481 -86 481 -86 481 -146 c 0,6,7
 481 -197 481 -197 424.5 -240.5 c 128,-1,8
 368 -284 368 -284 301 -284 c 0,9,10
 272 -284 272 -284 232 -277 c 1,11,-1
 287 -201 l 1,12,13
 322 -223 322 -223 348 -223 c 0,14,15
 412 -223 412 -223 412 -172 c 0,16,17
 412 -117 412 -117 311 -111 c 1,18,-1
 376 -19 l 1,19,20
 145 5 145 5 145 228 c 0,21,22
 145 445 145 445 302 622 c 128,-1,23
 459 799 459 799 652 799 c 0,24,25
 736 799 736 799 819 762 c 1,26,-1
 770 578 l 1,27,-1
 725 578 l 1,28,-1
 728 589 l 2,29,30
 735 622 735 622 735 638 c 0,31,32
 735 737 735 737 599 737 c 0,33,34
 475 737 475 737 382.5 595 c 128,-1,35
 290 453 290 453 290 263 c 0,36,37
 290 62 290 62 446 62 c 0,38,39
 563 62 563 62 775 198 c 1,0,-1
EndSplineSet
EndChar

StartChar: icircumflex
Encoding: 238 238 95
Width: 468
Flags: W
LayerCount: 2
Fore
SplineSet
328 0 m 1,0,-1
 140 0 l 1,1,-1
 140 1117 l 1,2,-1
 328 1117 l 1,3,-1
 328 0 l 1,0,-1
521 1297 m 1,4,-1
 370 1297 l 1,5,-1
 231 1560 l 1,6,-1
 93 1297 l 1,7,-1
 -54 1297 l 1,8,-1
 120 1676 l 1,9,-1
 347 1676 l 1,10,-1
 521 1297 l 1,4,-1
EndSplineSet
EndChar

StartChar: idieresis
Encoding: 239 239 96
Width: 468
Flags: W
LayerCount: 2
Fore
SplineSet
328 0 m 1,0,-1
 140 0 l 1,1,-1
 140 1117 l 1,2,-1
 328 1117 l 1,3,-1
 328 0 l 1,0,-1
506 1304 m 1,4,-1
 317 1304 l 1,5,-1
 317 1499 l 1,6,-1
 506 1499 l 1,7,-1
 506 1304 l 1,4,-1
151 1304 m 1,8,-1
 -38 1304 l 1,9,-1
 -38 1499 l 1,10,-1
 151 1499 l 1,11,-1
 151 1304 l 1,8,-1
EndSplineSet
EndChar

StartChar: dagger
Encoding: 8224 8224 101
Width: 932
Flags: W
LayerCount: 2
Fore
SplineSet
347 -231 m 1,0,-1
 567 622 l 1,1,-1
 248 592 l 1,2,-1
 297 700 l 1,3,-1
 576 668 l 1,4,-1
 607 1066 l 1,5,-1
 755 1093 l 1,6,-1
 621 668 l 1,7,-1
 941 700 l 1,8,-1
 895 592 l 1,9,-1
 612 622 l 1,10,-1
 496 -213 l 1,11,-1
 347 -231 l 1,0,-1
EndSplineSet
EndChar

StartChar: degree
Encoding: 176 176 102
Width: 409
Flags: W
LayerCount: 2
Fore
SplineSet
395 844 m 0,0,1
 344 844 344 844 307.5 880 c 128,-1,2
 271 916 271 916 271 968 c 0,3,4
 271 1021 271 1021 307.5 1057 c 128,-1,5
 344 1093 344 1093 395 1093 c 0,6,7
 447 1093 447 1093 483 1057 c 128,-1,8
 519 1021 519 1021 519 968 c 0,9,10
 519 916 519 916 483 880 c 128,-1,11
 447 844 447 844 395 844 c 0,0,1
395 888 m 256,12,13
 427 888 427 888 450.5 912 c 128,-1,14
 474 936 474 936 474 968 c 256,15,16
 474 1000 474 1000 450.5 1024 c 128,-1,17
 427 1048 427 1048 395 1048 c 256,18,19
 363 1048 363 1048 339 1024 c 128,-1,20
 315 1000 315 1000 315 968 c 256,21,22
 315 936 315 936 339 912 c 128,-1,23
 363 888 363 888 395 888 c 256,12,13
EndSplineSet
EndChar

StartChar: cent
Encoding: 162 162 103
Width: 693
Flags: W
LayerCount: 2
Fore
SplineSet
365 -18 m 1,0,-1
 404 176 l 1,1,2
 142 195 142 195 142 355 c 0,3,4
 142 459 142 459 242 534.5 c 128,-1,5
 342 610 342 610 492 622 c 1,6,-1
 527 799 l 1,7,-1
 572 799 l 1,8,-1
 537 622 l 1,9,10
 637 617 637 617 715 601 c 1,11,-1
 689 471 l 1,12,-1
 644 471 l 1,13,14
 644 477 644 477 645 488 c 0,15,16
 648 509 648 509 648 517 c 0,17,18
 648 572 648 572 528 578 c 1,19,-1
 459 229 l 1,20,21
 567 229 567 229 661 280 c 1,22,-1
 650 229 l 1,23,24
 544 176 544 176 448 176 c 1,25,-1
 409 -18 l 1,26,-1
 365 -18 l 1,0,-1
415 232 m 1,27,-1
 484 578 l 1,28,29
 272 547 272 547 272 383 c 0,30,31
 272 255 272 255 415 232 c 1,27,-1
EndSplineSet
EndChar

StartChar: sterling
Encoding: 163 163 104
Width: 874
Flags: W
LayerCount: 2
Fore
SplineSet
17 0 m 1,0,-1
 109 88 l 1,1,-1
 122 88 l 2,2,3
 229 88 229 88 272.5 136.5 c 128,-1,4
 316 185 316 185 347 343 c 2,5,-1
 356 391 l 1,6,-1
 196 391 l 1,7,-1
 205 436 l 1,8,-1
 365 436 l 1,9,-1
 378 499 l 2,10,11
 407 642 407 642 496.5 721 c 128,-1,12
 586 800 586 800 718 800 c 0,13,14
 797 800 797 800 892 765 c 1,15,-1
 858 586 l 1,16,-1
 808 586 l 1,17,-1
 810 598 l 2,18,19
 812 608 812 608 812 620 c 0,20,21
 812 746 812 746 679 746 c 0,22,23
 614 746 614 746 584.5 710 c 128,-1,24
 555 674 555 674 535 569 c 2,25,-1
 508 436 l 1,26,-1
 748 436 l 1,27,-1
 739 391 l 1,28,-1
 499 391 l 1,29,-1
 492 359 l 2,30,31
 473 265 473 265 427.5 208 c 128,-1,32
 382 151 382 151 275 88 c 1,33,-1
 480 88 l 2,34,35
 617 88 617 88 679 102.5 c 128,-1,36
 741 117 741 117 819 167 c 1,37,-1
 808 113 l 1,38,39
 735 35 735 35 665.5 7.5 c 128,-1,40
 596 -20 596 -20 470 -20 c 1,41,-1
 442 -19 l 1,42,-1
 17 0 l 1,0,-1
EndSplineSet
EndChar

StartChar: section
Encoding: 167 167 105
Width: 932
Flags: W
LayerCount: 2
Fore
SplineSet
107 -153 m 1,0,-1
 232 -80 l 1,1,2
 348 -178 348 -178 481 -178 c 0,3,4
 564 -178 564 -178 621.5 -127.5 c 128,-1,5
 679 -77 679 -77 679 -5 c 0,6,7
 679 48 679 48 645.5 80.5 c 128,-1,8
 612 113 612 113 513 160 c 2,9,-1
 440 193 l 2,10,11
 247 283 247 283 247 409 c 0,12,13
 247 528 247 528 409 652 c 1,14,15
 328 717 328 717 328 815 c 0,16,17
 328 938 328 938 440 1015.5 c 128,-1,18
 552 1093 552 1093 727 1093 c 0,19,20
 814 1093 814 1093 933 1060 c 1,21,-1
 897 879 l 1,22,-1
 853 879 l 1,23,24
 857 904 857 904 857 916 c 0,25,26
 857 1039 857 1039 652 1039 c 0,27,28
 560 1039 560 1039 500.5 987 c 128,-1,29
 441 935 441 935 441 853 c 0,30,31
 441 798 441 798 466 774.5 c 128,-1,32
 491 751 491 751 613 686 c 2,33,-1
 674 652 l 2,34,35
 854 553 854 553 854 444 c 0,36,37
 854 319 854 319 703 200 c 1,38,39
 801 136 801 136 801 40 c 0,40,41
 801 -75 801 -75 684.5 -153 c 128,-1,42
 568 -231 568 -231 397 -231 c 0,43,44
 244 -231 244 -231 107 -153 c 1,0,-1
667 229 m 1,45,46
 747 319 747 319 747 394 c 0,47,48
 747 470 747 470 628 527 c 2,49,-1
 558 562 l 2,50,51
 495 593 495 593 445 625 c 1,52,53
 355 545 355 545 355 456 c 0,54,55
 355 382 355 382 474 326 c 2,56,-1
 571 279 l 2,57,58
 607 263 607 263 667 229 c 1,45,46
EndSplineSet
EndChar

StartChar: bullet
Encoding: 8226 8226 106
Width: 931
Flags: W
LayerCount: 2
Fore
SplineSet
817 662 m 256,0,1
 817 517 817 517 713.5 414 c 128,-1,2
 610 311 610 311 465 311 c 256,3,4
 320 311 320 311 217 414 c 128,-1,5
 114 517 114 517 114 662 c 256,6,7
 114 807 114 807 217 910 c 128,-1,8
 320 1013 320 1013 465 1013 c 256,9,10
 610 1013 610 1013 713.5 910 c 128,-1,11
 817 807 817 807 817 662 c 256,0,1
EndSplineSet
EndChar

StartChar: paragraph
Encoding: 182 182 107
Width: 932
Flags: W
LayerCount: 2
Fore
SplineSet
365 -239 m 1,0,-1
 511 496 l 1,1,2
 241 542 241 542 241 747 c 0,3,4
 241 876 241 876 346.5 968 c 128,-1,5
 452 1060 452 1060 628 1085 c 1,6,-1
 660 1244 l 1,7,-1
 704 1244 l 1,8,-1
 673 1085 l 1,9,-1
 703 1086 l 2,10,11
 744 1086 744 1086 796 1080 c 1,12,-1
 828 1244 l 1,13,-1
 873 1244 l 1,14,-1
 839 1071 l 1,15,16
 891 1057 891 1057 948 1036 c 1,17,-1
 938 988 l 1,18,19
 898 1005 898 1005 830 1024 c 1,20,-1
 742 586 l 1,21,22
 794 603 794 603 869 643 c 1,23,-1
 859 586 l 1,24,25
 794 549 794 549 732 530 c 1,26,-1
 578 -239 l 1,27,-1
 534 -239 l 1,28,-1
 684 514 l 1,29,30
 597 496 597 496 556 496 c 1,31,-1
 409 -239 l 1,32,-1
 365 -239 l 1,0,-1
695 568 m 1,33,-1
 787 1031 l 1,34,35
 738 1040 738 1040 704 1040 c 0,36,37
 691 1040 691 1040 664 1039 c 1,38,-1
 567 553 l 1,39,40
 625 553 625 553 695 568 c 1,33,-1
EndSplineSet
EndChar

StartChar: registered
Encoding: 174 174 108
Width: 897
Flags: W
LayerCount: 2
Fore
SplineSet
580 445 m 0,0,1
 448 445 448 445 354.5 538.5 c 128,-1,2
 261 632 261 632 261 764 c 256,3,4
 261 896 261 896 354.5 990 c 128,-1,5
 448 1084 448 1084 580 1084 c 0,6,7
 714 1084 714 1084 807 990 c 128,-1,8
 900 896 900 896 900 764 c 256,9,10
 900 632 900 632 806.5 538.5 c 128,-1,11
 713 445 713 445 580 445 c 0,0,1
580 484 m 0,12,13
 695 484 695 484 777.5 567 c 128,-1,14
 860 650 860 650 860 764 c 256,15,16
 860 878 860 878 777.5 961 c 128,-1,17
 695 1044 695 1044 580 1044 c 0,18,19
 466 1044 466 1044 383.5 961 c 128,-1,20
 301 878 301 878 301 764 c 256,21,22
 301 650 301 650 383.5 567 c 128,-1,23
 466 484 466 484 580 484 c 0,12,13
529 737 m 1,24,-1
 501 596 l 1,25,-1
 394 596 l 1,26,-1
 403 639 l 1,27,-1
 456 639 l 1,28,-1
 511 915 l 1,29,-1
 458 915 l 1,30,-1
 466 959 l 1,31,-1
 598 959 l 2,32,33
 751 959 751 959 751 875 c 0,34,35
 751 800 751 800 650 750 c 1,36,-1
 685 639 l 1,37,-1
 747 639 l 1,38,-1
 738 596 l 1,39,-1
 641 596 l 1,40,-1
 591 737 l 1,41,-1
 529 737 l 1,24,-1
538 782 m 1,42,-1
 574 782 l 2,43,44
 697 782 697 782 697 866 c 0,45,46
 697 915 697 915 607 915 c 2,47,-1
 564 915 l 1,48,-1
 538 782 l 1,42,-1
EndSplineSet
EndChar

StartChar: copyright
Encoding: 169 169 109
Width: 1244
Flags: W
LayerCount: 2
Fore
SplineSet
725 -27 m 0,0,1
 495 -27 495 -27 330.5 137 c 128,-1,2
 166 301 166 301 166 533 c 256,3,4
 166 765 166 765 330.5 929 c 128,-1,5
 495 1093 495 1093 725 1093 c 0,6,7
 958 1093 958 1093 1122 929 c 128,-1,8
 1286 765 1286 765 1286 533 c 256,9,10
 1286 301 1286 301 1122 137 c 128,-1,11
 958 -27 958 -27 725 -27 c 0,0,1
725 18 m 0,12,13
 939 18 939 18 1090 169 c 128,-1,14
 1241 320 1241 320 1241 533 c 256,15,16
 1241 746 1241 746 1090 897 c 128,-1,17
 939 1048 939 1048 725 1048 c 0,18,19
 513 1048 513 1048 362 897 c 128,-1,20
 211 746 211 746 211 533 c 256,21,22
 211 320 211 320 362 169 c 128,-1,23
 513 18 513 18 725 18 c 0,12,13
890 246 m 1,24,25
 785 213 785 213 704 213 c 0,26,27
 580 213 580 213 508 279.5 c 128,-1,28
 436 346 436 346 436 462 c 0,29,30
 436 625 436 625 541 734.5 c 128,-1,31
 646 844 646 844 805 844 c 0,32,33
 896 844 896 844 1003 814 c 1,34,-1
 967 675 l 1,35,-1
 915 684 l 1,36,-1
 923 766 l 1,37,38
 854 798 854 798 792 798 c 0,39,40
 688 798 688 798 616 700 c 128,-1,41
 544 602 544 602 544 462 c 0,42,43
 544 271 544 271 722 271 c 0,44,45
 823 271 823 271 902 307 c 1,46,-1
 890 246 l 1,24,25
EndSplineSet
EndChar

StartChar: trademark
Encoding: 8482 8482 110
Width: 1333
Flags: W
LayerCount: 2
Fore
SplineSet
440 1021 m 1,0,-1
 307 1021 l 1,1,-1
 288 923 l 1,2,-1
 225 923 l 1,3,-1
 254 1066 l 1,4,-1
 751 1066 l 1,5,-1
 723 923 l 1,6,-1
 661 923 l 1,7,-1
 679 1021 l 1,8,-1
 546 1021 l 1,9,-1
 456 569 l 1,10,-1
 554 569 l 1,11,-1
 545 524 l 1,12,-1
 243 524 l 1,13,-1
 253 569 l 1,14,-1
 350 569 l 1,15,-1
 440 1021 l 1,0,-1
1011 569 m 1,16,-1
 942 956 l 1,17,-1
 857 524 l 1,18,-1
 688 524 l 1,19,-1
 697 569 l 1,20,-1
 794 569 l 1,21,-1
 884 1021 l 1,22,-1
 787 1021 l 1,23,-1
 796 1066 l 1,24,-1
 1036 1066 l 1,25,-1
 1092 747 l 1,26,-1
 1265 1066 l 1,27,-1
 1481 1066 l 1,28,-1
 1473 1021 l 1,29,-1
 1375 1021 l 1,30,-1
 1285 569 l 1,31,-1
 1383 569 l 1,32,-1
 1373 524 l 1,33,-1
 1178 524 l 1,34,-1
 1270 985 l 1,35,-1
 1041 569 l 1,36,-1
 1011 569 l 1,16,-1
EndSplineSet
EndChar

StartChar: acute
Encoding: 180 180 111
Width: 256
Flags: W
LayerCount: 2
Fore
SplineSet
118 999 m 1,0,1
 195 1083 195 1083 192 1046 c 1,2,3
 183 1014 183 1014 135.5 924 c 128,-1,4
 88 834 88 834 66 802 c 1,5,6
 55 796 55 796 62 848 c 1,7,8
 83 919 83 919 118 999 c 1,0,1
EndSplineSet
EndChar

StartChar: dieresis
Encoding: 168 168 112
Width: 862
Flags: W
LayerCount: 2
Fore
SplineSet
495 923 m 1,0,-1
 408 1033 l 1,1,-1
 520 1119 l 1,2,-1
 607 1003 l 1,3,-1
 495 923 l 1,0,-1
841 923 m 1,4,-1
 752 1035 l 1,5,-1
 866 1119 l 1,6,-1
 951 1004 l 1,7,-1
 841 923 l 1,4,-1
EndSplineSet
EndChar

StartChar: plusminus
Encoding: 177 177 113
Width: 932
Flags: W
LayerCount: 2
Fore
SplineSet
76 0 m 1,0,-1
 92 80 l 1,1,-1
 873 80 l 1,2,-1
 858 0 l 1,3,-1
 76 0 l 1,0,-1
469 213 m 1,4,-1
 525 493 l 1,5,-1
 174 493 l 1,6,-1
 189 573 l 1,7,-1
 541 573 l 1,8,-1
 596 852 l 1,9,-1
 676 852 l 1,10,-1
 621 573 l 1,11,-1
 971 573 l 1,12,-1
 956 493 l 1,13,-1
 605 493 l 1,14,-1
 549 213 l 1,15,-1
 469 213 l 1,4,-1
EndSplineSet
EndChar

StartChar: yen
Encoding: 165 165 114
Width: 965
Flags: W
LayerCount: 2
Fore
SplineSet
156 0 m 1,0,-1
 247 99 l 1,1,2
 269 97 269 97 279 97 c 0,3,4
 415 97 415 97 477 257 c 1,5,-1
 272 257 l 1,6,-1
 280 301 l 1,7,-1
 489 301 l 1,8,9
 495 346 495 346 499 409 c 1,10,-1
 301 409 l 1,11,-1
 310 453 l 1,12,-1
 499 453 l 1,13,14
 499 465 499 465 499 470 c 0,15,16
 499 567 499 567 463.5 631 c 128,-1,17
 428 695 428 695 375 695 c 256,18,19
 322 695 322 695 250 638 c 128,-1,20
 178 581 178 581 139 509 c 1,21,-1
 106 534 l 1,22,23
 172 650 172 650 268.5 724.5 c 128,-1,24
 365 799 365 799 452 799 c 0,25,26
 612 799 612 799 612 518 c 1,27,-1
 611 472 l 1,28,29
 736 799 736 799 971 799 c 0,30,31
 1045 799 1045 799 1100 765 c 1,32,-1
 1016 653 l 1,33,34
 967 684 967 684 915 684 c 0,35,36
 742 684 742 684 651 453 c 1,37,-1
 835 453 l 1,38,-1
 826 409 l 1,39,-1
 643 409 l 1,40,-1
 634 369 l 2,41,42
 627 335 627 335 609 301 c 1,43,-1
 805 301 l 1,44,-1
 796 257 l 1,45,-1
 585 257 l 1,46,47
 519 138 519 138 389 91 c 1,48,-1
 624 77 l 1,49,-1
 534 -18 l 1,50,-1
 156 0 l 1,0,-1
EndSplineSet
EndChar

StartChar: mu1
Encoding: 181 181 115
Width: 992
Flags: W
LayerCount: 2
Fore
SplineSet
100 -302 m 1,0,-1
 155 -76 l 1,1,-1
 270 500 l 2,2,3
 282 560 282 560 282 611 c 0,4,5
 282 693 282 693 206 782 c 1,6,-1
 368 790 l 1,7,8
 427 740 427 740 427 623 c 0,9,10
 427 576 427 576 409 481 c 2,11,-1
 355 213 l 2,12,13
 347 176 347 176 347 161 c 0,14,15
 347 106 347 106 391 106 c 0,16,17
 446 106 446 106 553.5 229 c 128,-1,18
 661 352 661 352 753 519 c 1,19,-1
 805 782 l 1,20,-1
 958 790 l 1,21,-1
 905 569 l 1,22,-1
 834 213 l 2,23,24
 818 132 818 132 818 106 c 0,25,26
 818 53 818 53 861 53 c 0,27,28
 931 53 931 53 1075 218 c 1,29,-1
 1062 151 l 1,30,31
 905 -18 905 -18 779 -18 c 0,32,33
 675 -18 675 -18 675 91 c 0,34,35
 675 128 675 128 692 213 c 2,36,-1
 727 391 l 1,37,-1
 717 391 l 1,38,39
 517 0 517 0 312 0 c 1,40,-1
 255 -284 l 1,41,-1
 100 -302 l 1,0,-1
EndSplineSet
EndChar

StartChar: logicalnot
Encoding: 172 172 116
Width: 932
Flags: W
LayerCount: 2
Fore
SplineSet
177 510 m 1,0,-1
 193 590 l 1,1,-1
 975 590 l 1,2,-1
 906 248 l 1,3,-1
 814 248 l 1,4,-1
 866 510 l 1,5,-1
 177 510 l 1,0,-1
EndSplineSet
EndChar

StartChar: florin
Encoding: 402 402 117
Width: 679
Flags: W
LayerCount: 2
Fore
SplineSet
158 -231 m 1,0,-1
 210 -18 l 1,1,-1
 286 364 l 1,2,-1
 108 364 l 1,3,-1
 117 409 l 1,4,-1
 294 409 l 1,5,-1
 298 427 l 2,6,7
 330 586 330 586 463 692.5 c 128,-1,8
 596 799 596 799 761 799 c 0,9,10
 818 799 818 799 860 784 c 1,11,-1
 764 678 l 1,12,13
 712 729 712 729 643 729 c 0,14,15
 500 729 500 729 457 512 c 2,16,-1
 436 409 l 1,17,-1
 623 409 l 1,18,-1
 614 364 l 1,19,-1
 427 364 l 1,20,-1
 313 -213 l 1,21,-1
 158 -231 l 1,0,-1
EndSplineSet
EndChar

StartChar: ellipsis
Encoding: 8230 8230 118
Width: 1474
Flags: W
LayerCount: 2
Fore
SplineSet
178 0 m 1,0,-1
 206 142 l 1,1,-1
 348 142 l 1,2,-1
 319 0 l 1,3,-1
 178 0 l 1,0,-1
667 0 m 1,4,-1
 695 142 l 1,5,-1
 837 142 l 1,6,-1
 808 0 l 1,7,-1
 667 0 l 1,4,-1
1155 0 m 1,8,-1
 1183 142 l 1,9,-1
 1326 142 l 1,10,-1
 1297 0 l 1,11,-1
 1155 0 l 1,8,-1
EndSplineSet
EndChar

StartChar: OE
Encoding: 338 338 119
Width: 1477
Flags: W
LayerCount: 2
Fore
SplineSet
816 0 m 1,0,-1
 831 70 l 1,1,2
 711 -27 711 -27 549 -27 c 0,3,4
 371 -27 371 -27 269 81 c 128,-1,5
 167 189 167 189 167 378 c 0,6,7
 167 661 167 661 358 877 c 128,-1,8
 549 1093 549 1093 799 1093 c 0,9,10
 931 1093 931 1093 1017 1007 c 1,11,-1
 1029 1066 l 1,12,-1
 1593 1066 l 1,13,-1
 1529 862 l 1,14,-1
 1484 862 l 1,15,16
 1490 891 1490 891 1490 913 c 0,17,18
 1490 969 1490 969 1424.5 990.5 c 128,-1,19
 1359 1012 1359 1012 1187 1012 c 2,20,-1
 1165 1012 l 1,21,-1
 1082 586 l 1,22,-1
 1402 586 l 1,23,-1
 1329 512 l 1,24,25
 1165 533 1165 533 1107 533 c 2,26,-1
 1071 533 l 1,27,-1
 1012 218 l 2,28,29
 1002 167 1002 167 1002 156 c 0,30,31
 1002 80 1002 80 1228 80 c 0,32,33
 1348 80 1348 80 1453 160 c 1,34,-1
 1442 103 l 1,35,36
 1318 -23 1318 -23 1203 -23 c 0,37,38
 1183 -23 1183 -23 1161 -21 c 2,39,-1
 816 0 l 1,0,-1
888 361 m 2,40,-1
 961 723 l 2,41,42
 974 786 974 786 974 841 c 0,43,44
 974 933 974 933 916.5 990.5 c 128,-1,45
 859 1048 859 1048 769 1048 c 0,46,47
 604 1048 604 1048 466.5 844 c 128,-1,48
 329 640 329 640 329 395 c 0,49,50
 329 218 329 218 396.5 117.5 c 128,-1,51
 464 17 464 17 585 17 c 0,52,53
 818 17 818 17 888 361 c 2,40,-1
EndSplineSet
EndChar

StartChar: oe
Encoding: 339 339 120
Width: 1350
Flags: W
LayerCount: 2
Fore
SplineSet
706 145 m 1,0,1
 535 -18 535 -18 370 -18 c 0,2,3
 273 -18 273 -18 209 55 c 128,-1,4
 145 128 145 128 145 237 c 0,5,6
 145 448 145 448 302.5 623.5 c 128,-1,7
 460 799 460 799 650 799 c 0,8,9
 794 799 794 799 859 630 c 1,10,11
 1025 799 1025 799 1183 799 c 0,12,13
 1246 799 1246 799 1286.5 758 c 128,-1,14
 1327 717 1327 717 1327 651 c 0,15,16
 1327 508 1327 508 1192.5 414 c 128,-1,17
 1058 320 1058 320 841 311 c 1,18,-1
 840 278 l 1,19,20
 840 66 840 66 998 66 c 0,21,22
 1113 66 1113 66 1327 200 c 1,23,-1
 1316 146 l 1,24,25
 1083 -18 1083 -18 917 -18 c 0,26,27
 758 -18 758 -18 706 145 c 1,0,1
431 35 m 0,28,29
 544 35 544 35 636 178.5 c 128,-1,30
 728 322 728 322 728 499 c 0,31,32
 728 607 728 607 689 672 c 128,-1,33
 650 737 650 737 584 737 c 0,34,35
 472 737 472 737 382 594 c 128,-1,36
 292 451 292 451 292 272 c 0,37,38
 292 35 292 35 431 35 c 0,28,29
844 355 m 1,39,40
 1004 368 1004 368 1097.5 438.5 c 128,-1,41
 1191 509 1191 509 1191 620 c 0,42,43
 1191 733 1191 733 1110 733 c 0,44,45
 1024 733 1024 733 941.5 616 c 128,-1,46
 859 499 859 499 844 355 c 1,39,40
EndSplineSet
EndChar

StartChar: endash
Encoding: 8211 8211 121
Width: 434
Flags: W
LayerCount: 2
Fore
SplineSet
434 154 m 1,0,-1
 0 154 l 1,1,-1
 0 234 l 1,2,-1
 434 234 l 1,3,-1
 434 154 l 1,0,-1
EndSplineSet
EndChar

StartChar: emdash
Encoding: 8212 8212 122
Width: 1862
Flags: W
LayerCount: 2
Fore
SplineSet
1866 572 m 1,0,-1
 -4 572 l 1,1,-1
 -4 732 l 1,2,-1
 1866 732 l 1,3,-1
 1866 572 l 1,0,-1
EndSplineSet
EndChar

StartChar: quotedblleft
Encoding: 8220 8220 123
Width: 774
Flags: W
LayerCount: 2
Fore
SplineSet
311 1167 m 0,0,1
 306 1142 306 1142 294.5 1122 c 128,-1,2
 283 1102 283 1102 265 1088.5 c 128,-1,3
 247 1075 247 1075 224.5 1069 c 128,-1,4
 202 1063 202 1063 178 1067 c 0,5,6
 151 1071 151 1071 131 1084.5 c 128,-1,7
 111 1098 111 1098 98 1119.5 c 128,-1,8
 85 1141 85 1141 80.5 1167.5 c 128,-1,9
 76 1194 76 1194 81 1222 c 0,10,11
 91 1287 91 1287 146 1367 c 0,12,13
 160 1386 160 1386 176.5 1406 c 128,-1,14
 193 1426 193 1426 210.5 1444.5 c 128,-1,15
 228 1463 228 1463 246 1479 c 128,-1,16
 264 1495 264 1495 279 1506.5 c 128,-1,17
 294 1518 294 1518 305.5 1525 c 128,-1,18
 317 1532 317 1532 324 1531 c 0,19,20
 362 1525 362 1525 357 1492 c 0,21,22
 354 1476 354 1476 304 1426 c 0,23,24
 247 1369 247 1369 221 1306 c 1,25,26
 272 1298 272 1298 295.5 1260.5 c 128,-1,27
 319 1223 319 1223 311 1167 c 0,0,1
631 1167 m 0,28,29
 626 1142 626 1142 614.5 1122 c 128,-1,30
 603 1102 603 1102 585 1088.5 c 128,-1,31
 567 1075 567 1075 544.5 1069 c 128,-1,32
 522 1063 522 1063 498 1067 c 0,33,34
 471 1071 471 1071 451 1084.5 c 128,-1,35
 431 1098 431 1098 418 1119.5 c 128,-1,36
 405 1141 405 1141 400.5 1167.5 c 128,-1,37
 396 1194 396 1194 401 1222 c 0,38,39
 411 1287 411 1287 466 1367 c 0,40,41
 480 1386 480 1386 496.5 1406 c 128,-1,42
 513 1426 513 1426 530.5 1444.5 c 128,-1,43
 548 1463 548 1463 566 1479 c 128,-1,44
 584 1495 584 1495 599 1506.5 c 128,-1,45
 614 1518 614 1518 625.5 1525 c 128,-1,46
 637 1532 637 1532 644 1531 c 0,47,48
 682 1525 682 1525 677 1492 c 0,49,50
 674 1476 674 1476 624 1426 c 0,51,52
 567 1369 567 1369 541 1306 c 1,53,54
 592 1298 592 1298 615.5 1260.5 c 128,-1,55
 639 1223 639 1223 631 1167 c 0,28,29
EndSplineSet
EndChar

StartChar: quotedblright
Encoding: 8221 8221 124
Width: 800
Flags: W
LayerCount: 2
Fore
SplineSet
447 1428 m 0,0,1
 452 1453 452 1453 463.5 1473 c 128,-1,2
 475 1493 475 1493 493 1506.5 c 128,-1,3
 511 1520 511 1520 533.5 1526 c 128,-1,4
 556 1532 556 1532 580 1528 c 0,5,6
 607 1524 607 1524 627 1510.5 c 128,-1,7
 647 1497 647 1497 660 1475.5 c 128,-1,8
 673 1454 673 1454 677.5 1427.5 c 128,-1,9
 682 1401 682 1401 677 1373 c 0,10,11
 667 1308 667 1308 612 1228 c 0,12,13
 598 1209 598 1209 581.5 1189 c 128,-1,14
 565 1169 565 1169 547.5 1150.5 c 128,-1,15
 530 1132 530 1132 512 1116 c 128,-1,16
 494 1100 494 1100 479 1088.5 c 128,-1,17
 464 1077 464 1077 452.5 1070 c 128,-1,18
 441 1063 441 1063 434 1064 c 0,19,20
 396 1070 396 1070 401 1103 c 0,21,22
 404 1119 404 1119 454 1169 c 0,23,24
 511 1226 511 1226 537 1289 c 1,25,26
 486 1297 486 1297 462.5 1334.5 c 128,-1,27
 439 1372 439 1372 447 1428 c 0,0,1
127 1428 m 0,28,29
 132 1453 132 1453 143.5 1473 c 128,-1,30
 155 1493 155 1493 173 1506.5 c 128,-1,31
 191 1520 191 1520 213.5 1526 c 128,-1,32
 236 1532 236 1532 260 1528 c 0,33,34
 287 1524 287 1524 307 1510.5 c 128,-1,35
 327 1497 327 1497 340 1475.5 c 128,-1,36
 353 1454 353 1454 357.5 1427.5 c 128,-1,37
 362 1401 362 1401 357 1373 c 0,38,39
 347 1308 347 1308 292 1228 c 0,40,41
 278 1209 278 1209 261.5 1189 c 128,-1,42
 245 1169 245 1169 227.5 1150.5 c 128,-1,43
 210 1132 210 1132 192 1116 c 128,-1,44
 174 1100 174 1100 159 1088.5 c 128,-1,45
 144 1077 144 1077 132.5 1070 c 128,-1,46
 121 1063 121 1063 114 1064 c 0,47,48
 76 1070 76 1070 81 1103 c 0,49,50
 84 1119 84 1119 134 1169 c 0,51,52
 191 1226 191 1226 217 1289 c 1,53,54
 166 1297 166 1297 142.5 1334.5 c 128,-1,55
 119 1372 119 1372 127 1428 c 0,28,29
EndSplineSet
EndChar

StartChar: divide
Encoding: 247 247 125
Width: 1099
Flags: W
LayerCount: 2
Fore
SplineSet
658 857 m 1,0,-1
 482 857 l 1,1,-1
 482 1047 l 1,2,-1
 658 1047 l 1,3,-1
 658 857 l 1,0,-1
972 551 m 1,4,-1
 157 551 l 1,5,-1
 157 705 l 1,6,-1
 972 705 l 1,7,-1
 972 551 l 1,4,-1
668 167 m 1,8,-1
 482 167 l 1,9,-1
 482 357 l 1,10,-1
 668 357 l 1,11,-1
 668 167 l 1,8,-1
EndSplineSet
EndChar

StartChar: lozenge
Encoding: 9674 9674 126
Width: 1118
Flags: W
LayerCount: 2
Fore
SplineSet
1003 699 m 1,0,-1
 560 197 l 1,1,-1
 117 699 l 1,2,-1
 560 1202 l 1,3,-1
 1003 699 l 1,0,-1
848 699 m 1,4,-1
 560 1036 l 1,5,-1
 271 699 l 1,6,-1
 560 364 l 1,7,-1
 848 699 l 1,4,-1
EndSplineSet
EndChar

StartChar: Euro
Encoding: 8364 8364 128
Width: 812
Flags: W
LayerCount: 2
Fore
SplineSet
210 464 m 1,0,1
 252 596 252 596 371.5 697.5 c 128,-1,2
 491 799 491 799 674 799 c 0,3,4
 773 799 773 799 885 769 c 1,5,-1
 845 624 l 1,6,-1
 795 624 l 1,7,8
 801 653 801 653 801 665 c 0,9,10
 801 701 801 701 757 726 c 128,-1,11
 713 751 713 751 649 751 c 0,12,13
 445 751 445 751 349 464 c 1,14,-1
 686 464 l 1,15,-1
 677 420 l 1,16,-1
 337 420 l 2,17,18
 335 418 335 418 332 404 c 2,19,-1
 325 365 l 1,20,-1
 325 360 l 1,21,-1
 665 360 l 1,22,-1
 656 315 l 1,23,-1
 319 315 l 1,24,-1
 319 289 l 2,25,26
 319 178 319 178 370 115.5 c 128,-1,27
 421 53 421 53 512 53 c 0,28,29
 636 53 636 53 765 135 c 1,30,-1
 755 72 l 1,31,32
 604 -18 604 -18 459 -18 c 0,33,34
 324 -18 324 -18 249.5 59 c 128,-1,35
 175 136 175 136 175 274 c 0,36,37
 175 300 175 300 175 315 c 1,38,-1
 111 315 l 1,39,-1
 120 360 l 1,40,-1
 182 360 l 1,41,-1
 182 364 l 1,42,43
 189 401 189 401 194 420 c 1,44,-1
 118 420 l 1,45,-1
 127 464 l 1,46,-1
 210 464 l 1,0,1
EndSplineSet
EndChar

StartChar: guilsinglleft
Encoding: 8249 8249 129
Width: 560
Flags: W
LayerCount: 2
Fore
SplineSet
375 71 m 1,0,1
 304 237 304 237 167 391 c 1,2,3
 358 507 358 507 437 653 c 1,4,-1
 587 711 l 1,5,6
 536 589 536 589 315 441 c 1,7,8
 423 310 423 310 499 138 c 1,9,-1
 375 71 l 1,0,1
EndSplineSet
EndChar

StartChar: guilsinglright
Encoding: 8250 8250 130
Width: 560
Flags: W
LayerCount: 2
Fore
SplineSet
339 711 m 1,0,1
 410 545 410 545 546 391 c 1,2,3
 356 275 356 275 276 128 c 1,4,-1
 128 71 l 1,5,6
 178 193 178 193 400 341 c 1,7,8
 293 470 293 470 215 643 c 1,9,-1
 339 711 l 1,0,1
EndSplineSet
EndChar

StartChar: daggerdbl
Encoding: 8225 8225 133
Width: 932
Flags: W
LayerCount: 2
Fore
SplineSet
349 -231 m 1,0,-1
 481 185 l 1,1,-1
 161 154 l 1,2,-1
 211 261 l 1,3,-1
 490 229 l 1,4,-1
 567 616 l 1,5,-1
 247 586 l 1,6,-1
 297 693 l 1,7,-1
 575 661 l 1,8,-1
 608 1066 l 1,9,-1
 758 1093 l 1,10,-1
 620 661 l 1,11,-1
 940 693 l 1,12,-1
 889 586 l 1,13,-1
 611 616 l 1,14,-1
 535 229 l 1,15,-1
 855 261 l 1,16,-1
 804 154 l 1,17,-1
 525 185 l 1,18,-1
 499 -213 l 1,19,-1
 349 -231 l 1,0,-1
EndSplineSet
EndChar

StartChar: middot.001
Encoding: 8729 8729 134
Width: 620
Flags: W
LayerCount: 2
Fore
SplineSet
429 516 m 1,0,-1
 190 516 l 1,1,-1
 190 789 l 1,2,-1
 429 789 l 1,3,-1
 429 516 l 1,0,-1
EndSplineSet
EndChar

StartChar: quotesinglbase
Encoding: 8218 8218 135
Width: 418
Flags: W
LayerCount: 2
Fore
SplineSet
103 128 m 1,0,-1
 247 231 l 1,1,-1
 353 90 l 1,2,3
 345 -56 345 -56 262.5 -134.5 c 128,-1,4
 180 -213 180 -213 36 -213 c 1,5,-1
 76 -168 l 1,6,7
 189 -158 189 -158 211 -18 c 1,8,-1
 103 128 l 1,0,-1
EndSplineSet
EndChar

StartChar: quotedblbase
Encoding: 8222 8222 136
Width: 684
Flags: W
LayerCount: 2
Fore
SplineSet
91 92 m 1,0,-1
 204 178 l 1,1,-1
 292 64 l 1,2,3
 270 -213 270 -213 31 -213 c 1,4,-1
 60 -168 l 1,5,6
 166 -148 166 -148 179 -16 c 1,7,-1
 91 92 l 1,0,-1
401 92 m 1,8,-1
 516 178 l 1,9,-1
 602 64 l 1,10,11
 581 -213 581 -213 341 -213 c 1,12,-1
 372 -168 l 1,13,14
 476 -148 476 -148 490 -16 c 1,15,-1
 401 92 l 1,8,-1
EndSplineSet
EndChar

StartChar: perthousand
Encoding: 8240 8240 137
Width: 1571
Flags: W
LayerCount: 2
Fore
SplineSet
385 533 m 0,0,1
 304 533 304 533 254.5 584.5 c 128,-1,2
 205 636 205 636 205 722 c 0,3,4
 205 865 205 865 286.5 965.5 c 128,-1,5
 368 1066 368 1066 483 1066 c 0,6,7
 567 1066 567 1066 617.5 1014.5 c 128,-1,8
 668 963 668 963 668 877 c 0,9,10
 668 733 668 733 585.5 633 c 128,-1,11
 503 533 503 533 385 533 c 0,0,1
311 715 m 0,12,13
 311 578 311 578 398 578 c 0,14,15
 463 578 463 578 517 671.5 c 128,-1,16
 571 765 571 765 571 881 c 0,17,18
 571 1022 571 1022 483 1022 c 0,19,20
 416 1022 416 1022 363.5 928 c 128,-1,21
 311 834 311 834 311 715 c 0,12,13
850 0 m 0,22,23
 769 0 769 0 719.5 51.5 c 128,-1,24
 670 103 670 103 670 189 c 0,25,26
 670 331 670 331 751 432 c 128,-1,27
 832 533 832 533 947 533 c 0,28,29
 1031 533 1031 533 1081.5 481.5 c 128,-1,30
 1132 430 1132 430 1132 344 c 0,31,32
 1132 200 1132 200 1049.5 100 c 128,-1,33
 967 0 967 0 850 0 c 0,22,23
776 182 m 0,34,35
 776 44 776 44 862 44 c 0,36,37
 929 44 929 44 982 138 c 128,-1,38
 1035 232 1035 232 1035 348 c 0,39,40
 1035 490 1035 490 948 490 c 0,41,42
 880 490 880 490 828 395.5 c 128,-1,43
 776 301 776 301 776 182 c 0,34,35
131 -27 m 1,44,-1
 1111 1093 l 1,45,-1
 1206 1093 l 1,46,-1
 225 -27 l 1,47,-1
 131 -27 l 1,44,-1
1376 0 m 0,48,49
 1294 0 1294 0 1244.5 51.5 c 128,-1,50
 1195 103 1195 103 1195 189 c 0,51,52
 1195 331 1195 331 1276.5 432 c 128,-1,53
 1358 533 1358 533 1473 533 c 0,54,55
 1557 533 1557 533 1607.5 481.5 c 128,-1,56
 1658 430 1658 430 1658 344 c 0,57,58
 1658 200 1658 200 1575.5 100 c 128,-1,59
 1493 0 1493 0 1376 0 c 0,48,49
1301 183 m 0,60,61
 1301 44 1301 44 1389 44 c 0,62,63
 1453 44 1453 44 1507 138 c 128,-1,64
 1561 232 1561 232 1561 347 c 0,65,66
 1561 490 1561 490 1473 490 c 0,67,68
 1406 490 1406 490 1353.5 395.5 c 128,-1,69
 1301 301 1301 301 1301 183 c 0,60,61
EndSplineSet
EndChar

StartChar: circumflex
Encoding: 710 710 139
Width: 862
Flags: W
LayerCount: 2
Fore
SplineSet
870 976 m 1,0,-1
 783 923 l 1,1,2
 729 984 729 984 693 1082 c 1,3,4
 652 1032 652 1032 574 953 c 0,5,6
 571 949 571 949 553 931 c 1,7,-1
 452 923 l 1,8,9
 607 1037 607 1037 674 1120 c 1,10,-1
 772 1182 l 1,11,12
 805 1069 805 1069 870 976 c 1,0,-1
EndSplineSet
EndChar

StartChar: cedilla
Encoding: 184 184 140
Width: 862
Flags: W
LayerCount: 2
Fore
SplineSet
456 0 m 1,0,-1
 414 -64 l 1,1,2
 485 -86 485 -86 485 -147 c 0,3,4
 485 -198 485 -198 428.5 -241 c 128,-1,5
 372 -284 372 -284 303 -284 c 0,6,7
 272 -284 272 -284 237 -277 c 1,8,-1
 292 -201 l 1,9,10
 326 -223 326 -223 352 -223 c 0,11,12
 416 -223 416 -223 416 -171 c 0,13,14
 416 -112 416 -112 318 -112 c 1,15,-1
 394 0 l 1,16,-1
 456 0 l 1,0,-1
EndSplineSet
EndChar

StartChar: brokenbar
Encoding: 166 166 141
Width: 355
Flags: W
LayerCount: 2
Fore
SplineSet
86 -213 m 1,0,-1
 203 373 l 1,1,-1
 301 373 l 1,2,-1
 184 -213 l 1,3,-1
 86 -213 l 1,0,-1
238 551 m 1,4,-1
 355 1137 l 1,5,-1
 453 1137 l 1,6,-1
 337 551 l 1,7,-1
 238 551 l 1,4,-1
EndSplineSet
EndChar

StartChar: minus
Encoding: 8722 8722 142
Width: 1490
Flags: W
LayerCount: 2
Fore
SplineSet
1308 572 m 1,0,-1
 182 572 l 1,1,-1
 182 732 l 1,2,-1
 1308 732 l 1,3,-1
 1308 572 l 1,0,-1
EndSplineSet
EndChar

StartChar: multiply
Encoding: 215 215 143
Width: 1152
Flags: W
LayerCount: 2
Fore
SplineSet
209 420 m 1,0,-1
 456 667 l 1,1,-1
 209 913 l 1,2,-1
 346 1049 l 1,3,-1
 592 803 l 1,4,-1
 839 1050 l 1,5,-1
 975 913 l 1,6,-1
 728 667 l 1,7,-1
 976 419 l 1,8,-1
 839 283 l 1,9,-1
 592 530 l 1,10,-1
 345 283 l 1,11,-1
 209 420 l 1,0,-1
EndSplineSet
EndChar

StartChar: onesuperior
Encoding: 185 185 144
Width: 596
Flags: W
LayerCount: 2
Fore
SplineSet
573 1093 m 1,0,-1
 487 657 l 2,1,2
 476 607 476 607 476 589 c 0,3,4
 476 570 476 570 532 563 c 1,5,-1
 591 560 l 1,6,-1
 582 516 l 1,7,-1
 210 516 l 1,8,-1
 218 560 l 1,9,-1
 279 563 l 2,10,11
 328 567 328 567 337.5 578 c 128,-1,12
 347 589 347 589 362 657 c 2,13,-1
 418 938 l 2,14,15
 423 960 423 960 423 978 c 0,16,17
 423 1004 423 1004 355 1013 c 2,18,-1
 310 1021 l 1,19,-1
 319 1066 l 1,20,-1
 573 1093 l 1,0,-1
EndSplineSet
EndChar

StartChar: twosuperior
Encoding: 178 178 145
Width: 596
Flags: W
LayerCount: 2
Fore
SplineSet
187 516 m 1,0,-1
 207 617 l 1,1,2
 362 712 362 712 454.5 803.5 c 128,-1,3
 547 895 547 895 547 952 c 0,4,5
 547 1046 547 1046 463 1046 c 0,6,7
 352 1046 352 1046 331 928 c 1,8,-1
 278 928 l 1,9,-1
 304 1059 l 1,10,11
 400 1093 400 1093 484 1093 c 0,12,13
 674 1093 674 1093 674 959 c 0,14,15
 674 887 674 887 624.5 842 c 128,-1,16
 575 797 575 797 297 617 c 1,17,-1
 607 617 l 1,18,-1
 587 516 l 1,19,-1
 187 516 l 1,0,-1
EndSplineSet
EndChar

StartChar: threesuperior
Encoding: 179 179 146
Width: 596
Flags: W
LayerCount: 2
Fore
SplineSet
185 545 m 1,0,-1
 257 620 l 1,1,2
 337 556 337 556 418 556 c 0,3,4
 460 556 460 556 490.5 587 c 128,-1,5
 521 618 521 618 521 661 c 0,6,7
 521 776 521 776 345 776 c 0,8,9
 323 776 323 776 301 773 c 1,10,-1
 331 859 l 1,11,12
 350 860 350 860 365 860 c 0,13,14
 412 860 412 860 466 849 c 1,15,16
 547 886 547 886 547 961 c 0,17,18
 547 1046 547 1046 454 1046 c 0,19,20
 365 1046 365 1046 342 941 c 1,21,-1
 289 941 l 1,22,-1
 311 1057 l 1,23,24
 398 1093 398 1093 484 1093 c 0,25,26
 662 1093 662 1093 662 984 c 0,27,28
 662 893 662 893 520 829 c 1,29,30
 625 790 625 790 625 693 c 0,31,32
 625 616 625 616 554.5 563 c 128,-1,33
 484 510 484 510 378 510 c 0,34,35
 289 510 289 510 185 545 c 1,0,-1
EndSplineSet
EndChar

StartChar: onehalf
Encoding: 189 189 147
Width: 1262
Flags: W
LayerCount: 2
Fore
SplineSet
528 1093 m 1,0,-1
 442 657 l 2,1,2
 432 606 432 606 432 589 c 0,3,4
 432 570 432 570 488 563 c 1,5,-1
 547 560 l 1,6,-1
 538 516 l 1,7,-1
 165 516 l 1,8,-1
 174 560 l 1,9,-1
 235 563 l 2,10,11
 283 567 283 567 293 578 c 128,-1,12
 303 589 303 589 318 657 c 2,13,-1
 373 938 l 2,14,15
 378 960 378 960 378 978 c 0,16,17
 378 1004 378 1004 310 1013 c 2,18,-1
 265 1021 l 1,19,-1
 274 1066 l 1,20,-1
 528 1093 l 1,0,-1
160 -27 m 1,21,-1
 1180 1093 l 1,22,-1
 1280 1093 l 1,23,-1
 257 -27 l 1,24,-1
 160 -27 l 1,21,-1
778 0 m 1,25,-1
 797 103 l 1,26,27
 952 197 952 197 1045 288 c 128,-1,28
 1138 379 1138 379 1138 436 c 0,29,30
 1138 530 1138 530 1053 530 c 0,31,32
 942 530 942 530 922 413 c 1,33,-1
 868 413 l 1,34,-1
 895 544 l 1,35,36
 989 578 989 578 1075 578 c 0,37,38
 1264 578 1264 578 1264 445 c 0,39,40
 1264 373 1264 373 1214.5 328 c 128,-1,41
 1165 283 1165 283 887 103 c 1,42,-1
 1197 103 l 1,43,-1
 1177 0 l 1,44,-1
 778 0 l 1,25,-1
EndSplineSet
EndChar

StartChar: onequarter
Encoding: 188 188 148
Width: 1262
Flags: W
LayerCount: 2
Fore
SplineSet
546 1093 m 1,0,-1
 460 657 l 2,1,2
 450 606 450 606 450 589 c 0,3,4
 450 570 450 570 506 563 c 1,5,-1
 565 560 l 1,6,-1
 556 516 l 1,7,-1
 183 516 l 1,8,-1
 192 560 l 1,9,-1
 253 563 l 2,10,11
 301 567 301 567 311 578 c 128,-1,12
 321 589 321 589 336 657 c 2,13,-1
 391 938 l 2,14,15
 396 960 396 960 396 978 c 0,16,17
 396 1004 396 1004 328 1013 c 2,18,-1
 283 1021 l 1,19,-1
 292 1066 l 1,20,-1
 546 1093 l 1,0,-1
178 -27 m 1,21,-1
 1198 1093 l 1,22,-1
 1298 1093 l 1,23,-1
 275 -27 l 1,24,-1
 178 -27 l 1,21,-1
981 164 m 1,25,-1
 732 182 l 1,26,-1
 747 261 l 1,27,-1
 1102 578 l 1,28,-1
 1170 578 l 1,29,-1
 1102 236 l 1,30,-1
 1212 229 l 1,31,-1
 1168 149 l 1,32,-1
 1086 157 l 1,33,34
 1076 102 1076 102 1076 74 c 0,35,36
 1076 52 1076 52 1129 49 c 2,37,-1
 1189 45 l 1,38,-1
 1180 0 l 1,39,-1
 820 0 l 1,40,-1
 829 45 l 1,41,-1
 886 49 l 2,42,43
 937 52 937 52 952 64 c 128,-1,44
 967 76 967 76 973 117 c 0,45,46
 976 134 976 134 981 164 c 1,25,-1
997 244 m 1,47,-1
 1038 446 l 1,48,-1
 823 255 l 1,49,-1
 997 244 l 1,47,-1
EndSplineSet
EndChar

StartChar: threequarters
Encoding: 190 190 149
Width: 1262
Flags: W
LayerCount: 2
Fore
SplineSet
174 545 m 1,0,-1
 247 620 l 1,1,2
 326 556 326 556 407 556 c 0,3,4
 448 556 448 556 478.5 587 c 128,-1,5
 509 618 509 618 509 661 c 0,6,7
 509 776 509 776 333 776 c 0,8,9
 311 776 311 776 289 773 c 1,10,-1
 319 859 l 1,11,12
 338 860 338 860 355 860 c 0,13,14
 401 860 401 860 455 849 c 1,15,16
 535 886 535 886 535 961 c 0,17,18
 535 1046 535 1046 442 1046 c 0,19,20
 354 1046 354 1046 330 941 c 1,21,-1
 277 941 l 1,22,-1
 301 1057 l 1,23,24
 387 1093 387 1093 472 1093 c 0,25,26
 651 1093 651 1093 651 984 c 0,27,28
 651 893 651 893 508 829 c 1,29,30
 614 790 614 790 614 693 c 0,31,32
 614 616 614 616 543 563 c 128,-1,33
 472 510 472 510 366 510 c 0,34,35
 277 510 277 510 174 545 c 1,0,-1
178 -27 m 1,36,-1
 1198 1093 l 1,37,-1
 1298 1093 l 1,38,-1
 275 -27 l 1,39,-1
 178 -27 l 1,36,-1
981 164 m 1,40,-1
 732 182 l 1,41,-1
 747 261 l 1,42,-1
 1102 578 l 1,43,-1
 1170 578 l 1,44,-1
 1102 236 l 1,45,-1
 1212 229 l 1,46,-1
 1168 149 l 1,47,-1
 1086 157 l 1,48,49
 1076 102 1076 102 1076 74 c 0,50,51
 1076 52 1076 52 1129 49 c 2,52,-1
 1189 45 l 1,53,-1
 1180 0 l 1,54,-1
 820 0 l 1,55,-1
 829 45 l 1,56,-1
 886 49 l 2,57,58
 938 52 938 52 952.5 64 c 128,-1,59
 967 76 967 76 973 117 c 0,60,61
 976 134 976 134 981 164 c 1,40,-1
997 244 m 1,62,-1
 1038 446 l 1,63,-1
 823 255 l 1,64,-1
 997 244 l 1,62,-1
EndSplineSet
EndChar

StartChar: macron
Encoding: 175 175 150
Width: 1118
Flags: W
LayerCount: 2
Fore
SplineSet
1134 1659 m 1,0,-1
 -16 1659 l 1,1,-1
 -16 1789 l 1,2,-1
 1134 1789 l 1,3,-1
 1134 1659 l 1,0,-1
EndSplineSet
EndChar

StartChar: periodcentered
Encoding: 183 183 151
Width: 724
Flags: W
LayerCount: 2
Fore
SplineSet
482 832 m 1,0,-1
 243 832 l 1,1,-1
 243 1117 l 1,2,-1
 482 1117 l 1,3,-1
 482 832 l 1,0,-1
EndSplineSet
EndChar

StartChar: H22073
Encoding: 9633 9633 152
Width: 1237
Flags: W
LayerCount: 2
Fore
SplineSet
146 944 m 1,0,-1
 1090 944 l 1,1,-1
 1090 0 l 1,2,-1
 146 0 l 1,3,-1
 146 944 l 1,0,-1
222 868 m 1,4,-1
 222 76 l 1,5,-1
 1014 76 l 1,6,-1
 1014 868 l 1,7,-1
 222 868 l 1,4,-1
EndSplineSet
EndChar

StartChar: H18543
Encoding: 9642 9642 153
Width: 1089
Flags: W
LayerCount: 2
Fore
SplineSet
886 994 m 1,0,-1
 886 300 l 1,1,-1
 192 300 l 1,2,-1
 192 994 l 1,3,-1
 886 994 l 1,0,-1
EndSplineSet
EndChar

StartChar: H18551
Encoding: 9643 9643 154
Width: 1089
Flags: W
LayerCount: 2
Fore
SplineSet
888 996 m 1,0,-1
 888 301 l 1,1,-1
 193 301 l 1,2,-1
 193 996 l 1,3,-1
 888 996 l 1,0,-1
774 882 m 1,4,-1
 307 882 l 1,5,-1
 307 415 l 1,6,-1
 774 415 l 1,7,-1
 774 882 l 1,4,-1
EndSplineSet
EndChar

StartChar: H18533
Encoding: 9679 9679 155
Width: 1339
Flags: W
LayerCount: 2
Fore
SplineSet
204 719 m 0,0,1
 204 920 204 920 345 1061 c 128,-1,2
 486 1202 486 1202 685 1202 c 0,3,4
 885 1202 885 1202 1026 1061 c 128,-1,5
 1167 920 1167 920 1167 719 c 0,6,7
 1167 521 1167 521 1026 380 c 128,-1,8
 885 239 885 239 685 239 c 0,9,10
 486 239 486 239 345 380 c 128,-1,11
 204 521 204 521 204 719 c 0,0,1
EndSplineSet
EndChar

StartChar: openbullet
Encoding: 9702 9702 156
Width: 1089
Flags: W
LayerCount: 2
Fore
SplineSet
544 1171 m 0,0,1
 700 1171 700 1171 810.5 1060.5 c 128,-1,2
 921 950 921 950 921 794 c 256,3,4
 921 638 921 638 810.5 528 c 128,-1,5
 700 418 700 418 544 418 c 256,6,7
 388 418 388 418 278 528 c 128,-1,8
 168 638 168 638 168 794 c 256,9,10
 168 950 168 950 277.5 1060.5 c 128,-1,11
 387 1171 387 1171 544 1171 c 0,0,1
544 1057 m 0,12,13
 435 1057 435 1057 358.5 979.5 c 128,-1,14
 282 902 282 902 282 794 c 0,15,16
 282 685 282 685 359 608.5 c 128,-1,17
 436 532 436 532 544 532 c 256,18,19
 652 532 652 532 729.5 608.5 c 128,-1,20
 807 685 807 685 807 794 c 0,21,22
 807 902 807 902 730.5 979.5 c 128,-1,23
 654 1057 654 1057 544 1057 c 0,12,13
EndSplineSet
EndChar

StartChar: currency
Encoding: 164 164 157
Width: 932
Flags: W
LayerCount: 2
Fore
SplineSet
769 322 m 1,0,-1
 879 184 l 1,1,-1
 841 153 l 1,2,-1
 732 292 l 1,3,4
 616 214 616 214 504 214 c 0,5,6
 394 214 394 214 310 292 c 1,7,-1
 145 153 l 1,8,-1
 120 184 l 1,9,-1
 286 322 l 1,10,11
 243 397 243 397 243 470 c 0,12,13
 243 613 243 613 369 743 c 1,14,-1
 259 882 l 1,15,-1
 297 913 l 1,16,-1
 407 775 l 1,17,18
 521 852 521 852 634 852 c 0,19,20
 744 852 744 852 828 775 c 1,21,-1
 994 913 l 1,22,-1
 1019 882 l 1,23,-1
 852 743 l 1,24,25
 895 668 895 668 895 596 c 0,26,27
 895 455 895 455 769 322 c 1,0,-1
818 579 m 0,28,29
 818 666 818 666 762 721.5 c 128,-1,30
 706 777 706 777 620 777 c 0,31,32
 502 777 502 777 411 688 c 128,-1,33
 320 599 320 599 320 485 c 0,34,35
 320 400 320 400 376.5 344.5 c 128,-1,36
 433 289 433 289 519 289 c 0,37,38
 635 289 635 289 726.5 377.5 c 128,-1,39
 818 466 818 466 818 579 c 0,28,29
EndSplineSet
EndChar

StartChar: uniFFFC
Encoding: 65532 65532 158
Width: 2048
Flags: W
LayerCount: 2
Fore
SplineSet
2048 1150 m 1,0,-1
 1948 1150 l 1,1,-1
 1948 1373 l 1,2,-1
 1725 1373 l 1,3,-1
 1725 1473 l 1,4,-1
 2048 1473 l 1,5,-1
 2048 1150 l 1,0,-1
1473 1373 m 1,6,-1
 1150 1373 l 1,7,-1
 1150 1473 l 1,8,-1
 1473 1473 l 1,9,-1
 1473 1373 l 1,6,-1
2048 575 m 1,10,-1
 1948 575 l 1,11,-1
 1948 898 l 1,12,-1
 2048 898 l 1,13,-1
 2048 575 l 1,10,-1
1782 611 m 2,14,15
 1782 370 1782 370 1571 370 c 0,16,17
 1485 370 1485 370 1433 415 c 1,18,-1
 1506 494 l 1,19,20
 1531 468 1531 468 1571 468 c 0,21,22
 1666 468 1666 468 1666 606 c 2,23,-1
 1666 1090 l 1,24,-1
 1782 1090 l 1,25,-1
 1782 611 l 2,14,15
898 1373 m 1,26,-1
 575 1373 l 1,27,-1
 575 1473 l 1,28,-1
 898 1473 l 1,29,-1
 898 1373 l 1,26,-1
2048 0 m 1,30,-1
 1725 0 l 1,31,-1
 1725 100 l 1,32,-1
 1948 100 l 1,33,-1
 1948 323 l 1,34,-1
 2048 323 l 1,35,-1
 2048 0 l 1,30,-1
1423 591 m 0,36,37
 1423 382 1423 382 1149 382 c 2,38,-1
 909 382 l 1,39,-1
 909 1090 l 1,40,-1
 1144 1090 l 2,41,42
 1393 1090 1393 1090 1393 904 c 0,43,44
 1393 813 1393 813 1304 759 c 1,45,46
 1423 713 1423 713 1423 591 c 0,36,37
323 1373 m 1,47,-1
 100 1373 l 1,48,-1
 100 1150 l 1,49,-1
 0 1150 l 1,50,-1
 0 1473 l 1,51,-1
 323 1473 l 1,52,-1
 323 1373 l 1,47,-1
1473 0 m 1,53,-1
 1150 0 l 1,54,-1
 1150 100 l 1,55,-1
 1473 100 l 1,56,-1
 1473 0 l 1,53,-1
854 735 m 0,57,58
 854 562 854 562 772 466 c 128,-1,59
 690 370 690 370 537 370 c 256,60,61
 384 370 384 370 303.5 466 c 128,-1,62
 223 562 223 562 223 735 c 0,63,64
 223 910 223 910 303.5 1006 c 128,-1,65
 384 1102 384 1102 537 1102 c 256,66,67
 690 1102 690 1102 772 1006 c 128,-1,68
 854 910 854 910 854 735 c 0,57,58
100 575 m 1,69,-1
 0 575 l 1,70,-1
 0 898 l 1,71,-1
 100 898 l 1,72,-1
 100 575 l 1,69,-1
898 0 m 1,73,-1
 575 0 l 1,74,-1
 575 100 l 1,75,-1
 898 100 l 1,76,-1
 898 0 l 1,73,-1
323 0 m 1,77,-1
 0 0 l 1,78,-1
 0 323 l 1,79,-1
 100 323 l 1,80,-1
 100 100 l 1,81,-1
 323 100 l 1,82,-1
 323 0 l 1,77,-1
1277 893 m 0,83,84
 1277 992 1277 992 1114 992 c 2,85,-1
 1025 992 l 1,86,-1
 1025 798 l 1,87,-1
 1126 798 l 2,88,89
 1277 798 1277 798 1277 893 c 0,83,84
1307 591 m 0,90,91
 1307 700 1307 700 1136 700 c 2,92,-1
 1025 700 l 1,93,-1
 1025 480 l 1,94,-1
 1149 480 l 2,95,96
 1307 480 1307 480 1307 591 c 0,90,91
738 735 m 0,97,98
 738 1004 738 1004 537 1004 c 0,99,100
 339 1004 339 1004 339 735 c 0,101,102
 339 468 339 468 537 468 c 0,103,104
 738 468 738 468 738 735 c 0,97,98
EndSplineSet
EndChar

StartChar: dotbelowcomb
Encoding: 65538 -1 160
Width: 0
Flags: W
LayerCount: 2
Fore
SplineSet
666 -382 m 1,0,-1
 452 -382 l 1,1,-1
 452 -187 l 1,2,-1
 666 -187 l 1,3,-1
 666 -382 l 1,0,-1
EndSplineSet
EndChar

StartChar: zerowidthnonjoiner
Encoding: 8204 8204 175
Width: 0
GlyphClass: 2
Flags: W
LayerCount: 2
Fore
SplineSet
36 1289 m 1,0,-1
 36 -275 l 1,1,-1
 -36 -275 l 1,2,-1
 -36 1289 l 1,3,-1
 36 1289 l 1,0,-1
EndSplineSet
EndChar

StartChar: zerowidthjoiner
Encoding: 8205 8205 176
Width: 0
GlyphClass: 2
Flags: W
LayerCount: 2
Fore
SplineSet
36 -275 m 1,0,-1
 -36 -275 l 1,1,-1
 -36 1114 l 1,2,-1
 -170 978 l 1,3,-1
 -219 1027 l 1,4,-1
 -48 1196 l 1,5,-1
 -219 1364 l 1,6,-1
 -170 1413 l 1,7,-1
 0 1242 l 1,8,-1
 170 1413 l 1,9,-1
 219 1364 l 1,10,-1
 48 1196 l 1,11,-1
 219 1027 l 1,12,-1
 170 978 l 1,13,-1
 36 1114 l 1,14,-1
 36 -275 l 1,0,-1
EndSplineSet
EndChar

StartChar: lefttorightmark
Encoding: 8206 8206 177
Width: 0
GlyphClass: 2
Flags: W
LayerCount: 2
Fore
SplineSet
430 1198 m 1,0,-1
 213 984 l 1,1,-1
 164 1033 l 1,2,-1
 301 1163 l 1,3,-1
 35 1163 l 1,4,-1
 35 -275 l 1,5,-1
 -36 -275 l 1,6,-1
 -36 1234 l 1,7,-1
 301 1234 l 1,8,-1
 164 1364 l 1,9,-1
 213 1413 l 1,10,-1
 430 1198 l 1,0,-1
EndSplineSet
EndChar

StartChar: righttoleftmark
Encoding: 8207 8207 178
Width: 0
GlyphClass: 2
Flags: W
LayerCount: 2
Fore
SplineSet
35 -275 m 1,0,-1
 -36 -275 l 1,1,-1
 -36 1163 l 1,2,-1
 -302 1163 l 1,3,-1
 -165 1033 l 1,4,-1
 -214 984 l 1,5,-1
 -431 1198 l 1,6,-1
 -214 1413 l 1,7,-1
 -165 1364 l 1,8,-1
 -302 1234 l 1,9,-1
 35 1234 l 1,10,-1
 35 -275 l 1,0,-1
EndSplineSet
EndChar

StartChar: afii57388.001
Encoding: 1644 1644 179
Width: 353
GlyphClass: 2
Flags: W
LayerCount: 2
Fore
SplineSet
210 654 m 0,0,1
 200 627 200 627 185 603 c 0,2,3
 180 597 180 597 173.5 593.5 c 128,-1,4
 167 590 167 590 162 590 c 128,-1,5
 157 590 157 590 154.5 593 c 128,-1,6
 152 596 152 596 155 603 c 0,7,8
 187 660 187 660 202.5 713.5 c 128,-1,9
 218 767 218 767 218 800 c 1,10,11
 194 806 194 806 179 816 c 128,-1,12
 164 826 164 826 155 837.5 c 128,-1,13
 146 849 146 849 143 859 c 128,-1,14
 140 869 140 869 140 874 c 0,15,16
 140 890 140 890 145.5 907 c 128,-1,17
 151 924 151 924 160.5 937.5 c 128,-1,18
 170 951 170 951 183.5 959.5 c 128,-1,19
 197 968 197 968 213 968 c 0,20,21
 272 968 272 968 272 874 c 0,22,23
 272 859 272 859 268 835 c 128,-1,24
 264 811 264 811 256 781.5 c 128,-1,25
 248 752 248 752 236.5 719.5 c 128,-1,26
 225 687 225 687 210 654 c 0,0,1
EndSplineSet
EndChar

StartChar: afii57409
Encoding: 1569 1569 180
Width: 1135
GlyphClass: 2
Flags: W
AnchorPoint: "Anchor-1" 405 -345 basechar 0
AnchorPoint: "Anchor-0" 315 720 basechar 0
LayerCount: 2
Fore
SplineSet
440 -111 m 1,0,1
 381 -136 381 -136 342 -123.5 c 128,-1,2
 303 -111 303 -111 290.5 -77.5 c 128,-1,3
 278 -44 278 -44 292.5 -1 c 128,-1,4
 307 42 307 42 356 74 c 128,-1,5
 405 106 405 106 423.5 116 c 128,-1,6
 442 126 442 126 473 151 c 1,7,8
 329 151 329 151 329 364 c 0,9,10
 329 511 329 511 420 640 c 1,11,12
 510 778 510 778 659 778 c 0,13,14
 757 778 757 778 852 712 c 1,15,16
 966 640 966 640 966 552 c 0,17,18
 966 517 966 517 921 517 c 0,19,20
 897 517 897 517 848.5 528.5 c 128,-1,21
 800 540 800 540 772 540 c 0,22,23
 688 540 688 540 624 511 c 0,24,25
 528 470 528 470 528 397 c 0,26,27
 528 311 528 311 716 311 c 0,28,29
 784 311 784 311 886 352 c 2,30,-1
 1050 421 l 1,31,-1
 1003 151 l 1,32,33
 731 73 731 73 440 -111 c 1,0,1
EndSplineSet
EndChar

StartChar: afii57440
Encoding: 1600 1600 181
Width: 743
GlyphClass: 2
Flags: W
LayerCount: 2
Fore
SplineSet
761 1 m 1,0,-1
 -29 1 l 1,1,-1
 -29 455 l 1,2,-1
 761 455 l 1,3,-1
 761 1 l 1,0,-1
EndSplineSet
EndChar

StartChar: afii57453
Encoding: 1613 1613 182
Width: 0
GlyphClass: 4
Flags: W
AnchorPoint: "Anchor-3" 0 0 mark 0
AnchorPoint: "Anchor-1" 0 0 mark 0
LayerCount: 2
Fore
SplineSet
171 320 m 1,0,-1
 171 210 l 1,1,-1
 -230 9 l 1,2,-1
 -230 119 l 1,3,-1
 171 320 l 1,0,-1
169 29 m 1,4,-1
 -230 -171 l 1,5,-1
 -230 -61 l 1,6,-1
 169 140 l 1,7,-1
 169 29 l 1,4,-1
EndSplineSet
EndChar

StartChar: afii57455.001
Encoding: 65539 -1 183
Width: 0
GlyphClass: 4
Flags: W
LayerCount: 2
Fore
SplineSet
23 1417 m 0,0,1
 -101 1354 -101 1354 -163 1352 c 1,2,-1
 -174 1431 l 1,3,4
 -23 1475 -23 1475 32 1530 c 1,5,6
 -35 1566 -35 1566 -35 1646 c 0,7,8
 -35 1683 -35 1683 -24.5 1712 c 128,-1,9
 -14 1741 -14 1741 4.5 1761 c 128,-1,10
 23 1781 23 1781 48.5 1791.5 c 128,-1,11
 74 1802 74 1802 103 1802 c 0,12,13
 135 1802 135 1802 159 1791.5 c 128,-1,14
 183 1781 183 1781 199.5 1762 c 128,-1,15
 216 1743 216 1743 224.5 1718 c 128,-1,16
 233 1693 233 1693 233 1663 c 0,17,18
 233 1523 233 1523 23 1417 c 0,0,1
149 1654 m 0,19,20
 149 1681 149 1681 136.5 1693 c 128,-1,21
 124 1705 124 1705 98 1705 c 0,22,23
 75 1705 75 1705 63 1692 c 128,-1,24
 51 1679 51 1679 51 1656 c 0,25,26
 51 1607 51 1607 105 1607 c 0,27,28
 149 1607 149 1607 149 1654 c 0,19,20
EndSplineSet
EndChar

StartChar: afii57458.001
Encoding: 65540 -1 184
Width: 400
GlyphClass: 4
Flags: W
LayerCount: 2
Fore
SplineSet
340 1485 m 0,0,1
 340 1396 340 1396 296.5 1343 c 128,-1,2
 253 1290 253 1290 177 1290 c 0,3,4
 146 1290 146 1290 119.5 1300 c 128,-1,5
 93 1310 93 1310 73.5 1328 c 128,-1,6
 54 1346 54 1346 43 1370 c 128,-1,7
 32 1394 32 1394 32 1423 c 0,8,9
 32 1485 32 1485 64 1566 c 0,10,11
 104 1665 104 1665 161 1665 c 0,12,13
 194 1665 194 1665 226 1651 c 128,-1,14
 258 1637 258 1637 283.5 1612.5 c 128,-1,15
 309 1588 309 1588 324.5 1555 c 128,-1,16
 340 1522 340 1522 340 1485 c 0,0,1
267 1458 m 0,17,18
 267 1474 267 1474 255.5 1491 c 128,-1,19
 244 1508 244 1508 227 1521 c 128,-1,20
 210 1534 210 1534 190.5 1542.5 c 128,-1,21
 171 1551 171 1551 155 1551 c 0,22,23
 105 1551 105 1551 105 1481 c 0,24,25
 105 1422 105 1422 193 1422 c 0,26,27
 267 1422 267 1422 267 1458 c 0,17,18
EndSplineSet
EndChar

StartChar: afii57381
Encoding: 1642 1642 185
Width: 1024
GlyphClass: 2
Flags: W
LayerCount: 2
Fore
SplineSet
220 -132 m 1,0,-1
 781 1335 l 1,1,-1
 867 1301 l 1,2,-1
 307 -166 l 1,3,-1
 220 -132 l 1,0,-1
939 52 m 0,4,5
 939 11 939 11 909.5 -18.5 c 128,-1,6
 880 -48 880 -48 839 -48 c 0,7,8
 797 -48 797 -48 767.5 -18.5 c 128,-1,9
 738 11 738 11 738 53 c 0,10,11
 738 94 738 94 767.5 123.5 c 128,-1,12
 797 153 797 153 838 153 c 0,13,14
 881 153 881 153 910 123.5 c 128,-1,15
 939 94 939 94 939 52 c 0,4,5
321 1135 m 0,16,17
 321 1095 321 1095 291.5 1065.5 c 128,-1,18
 262 1036 262 1036 221 1036 c 0,19,20
 179 1036 179 1036 149.5 1065.5 c 128,-1,21
 120 1095 120 1095 120 1137 c 0,22,23
 120 1178 120 1178 149.5 1207.5 c 128,-1,24
 179 1237 179 1237 220 1237 c 0,25,26
 263 1237 263 1237 292 1207.5 c 128,-1,27
 321 1178 321 1178 321 1135 c 0,16,17
EndSplineSet
EndChar

StartChar: afii57461
Encoding: 1643 1643 186
Width: 985
GlyphClass: 2
Flags: W
LayerCount: 2
Fore
SplineSet
118 -521 m 1,0,-1
 771 502 l 1,1,-1
 885 502 l 1,2,-1
 232 -521 l 1,3,-1
 118 -521 l 1,0,-1
EndSplineSet
EndChar

StartChar: afii63167
Encoding: 1645 1645 187
Width: 1118
GlyphClass: 2
Flags: W
LayerCount: 2
Fore
SplineSet
694 729 m 1,0,-1
 1057 733 l 1,1,-1
 1057 610 l 1,2,-1
 702 612 l 1,3,-1
 971 352 l 1,4,-1
 883 264 l 1,5,-1
 616 539 l 1,6,-1
 623 168 l 1,7,-1
 498 168 l 1,8,-1
 502 539 l 1,9,-1
 236 264 l 1,10,-1
 147 352 l 1,11,-1
 422 614 l 1,12,-1
 63 610 l 1,13,-1
 63 733 l 1,14,-1
 420 729 l 1,15,-1
 170 975 l 1,16,-1
 258 1065 l 1,17,-1
 502 817 l 1,18,-1
 498 1176 l 1,19,-1
 623 1176 l 1,20,-1
 616 813 l 1,21,-1
 860 1065 l 1,22,-1
 948 975 l 1,23,-1
 694 729 l 1,0,-1
EndSplineSet
EndChar

StartChar: afii57459
Encoding: 65541 -1 188
Width: 734
GlyphClass: 2
Flags: W
LayerCount: 2
Fore
SplineSet
670 588 m 0,0,1
 670 1 670 1 97 1 c 2,2,-1
 -70 1 l 1,3,-1
 -70 455 l 1,4,-1
 95 455 l 2,5,6
 213 455 213 455 290.5 459 c 128,-1,7
 368 463 368 463 414 472 c 128,-1,8
 460 481 460 481 478 494.5 c 128,-1,9
 496 508 496 508 496 528 c 0,10,11
 496 555 496 555 468 555 c 0,12,13
 458 555 458 555 450 551 c 0,14,15
 415 536 415 536 293 536 c 0,16,17
 36 536 36 536 36 743 c 0,18,19
 36 881 36 881 105 1018 c 0,20,21
 187 1180 187 1180 312 1180 c 0,22,23
 496 1180 496 1180 595 956 c 0,24,25
 670 786 670 786 670 588 c 0,0,1
437 811 m 0,26,27
 437 826 437 826 424 841.5 c 128,-1,28
 411 857 411 857 392 869 c 128,-1,29
 373 881 373 881 351.5 889 c 128,-1,30
 330 897 330 897 313 897 c 0,31,32
 294 897 294 897 277.5 891.5 c 128,-1,33
 261 886 261 886 248.5 877 c 128,-1,34
 236 868 236 868 228.5 855.5 c 128,-1,35
 221 843 221 843 221 828 c 0,36,37
 221 791 221 791 332 791 c 0,38,39
 435 791 435 791 437 811 c 0,26,27
EndSplineSet
EndChar

StartChar: afii57543
Encoding: 65542 -1 189
Width: 577
Flags: W
LayerCount: 2
Fore
SplineSet
577 1 m 1,0,-1
 530 1 l 2,1,2
 386 1 386 1 307 134 c 1,3,4
 229 1 229 1 70 1 c 2,5,-1
 -70 1 l 1,6,-1
 -70 455 l 1,7,-1
 35 455 l 2,8,9
 142 455 142 455 184 519 c 0,10,11
 194 533 194 533 224 636 c 0,12,13
 243 700 243 700 293 700 c 0,14,15
 340 700 340 700 355 636 c 0,16,17
 366 586 366 586 374.5 557 c 128,-1,18
 383 528 383 528 388 519 c 0,19,20
 425 455 425 455 530 455 c 2,21,-1
 577 455 l 1,22,-1
 577 1 l 1,0,-1
EndSplineSet
EndChar

StartChar: afii57534
Encoding: 1749 1749 190
Width: 917
GlyphClass: 2
Flags: W
LayerCount: 2
Fore
SplineSet
880 484 m 0,0,1
 880 376 880 376 852 287.5 c 128,-1,2
 824 199 824 199 771.5 135.5 c 128,-1,3
 719 72 719 72 644 37.5 c 128,-1,4
 569 3 569 3 475 3 c 0,5,6
 121 3 121 3 121 332 c 0,7,8
 121 450 121 450 195 681 c 0,9,10
 282 951 282 951 373 951 c 0,11,12
 532 951 532 951 687 841 c 0,13,14
 880 705 880 705 880 484 c 0,0,1
679 457 m 0,15,16
 679 496 679 496 566 546 c 0,17,18
 462 591 462 591 411 591 c 0,19,20
 397 591 397 591 385 581 c 128,-1,21
 373 571 373 571 364 555 c 128,-1,22
 355 539 355 539 350 519.5 c 128,-1,23
 345 500 345 500 345 481 c 0,24,25
 345 395 345 395 526 395 c 0,26,27
 679 395 679 395 679 457 c 0,15,16
EndSplineSet
EndChar

StartChar: afii64240
Encoding: 65543 -1 191
Width: 382
Flags: W
LayerCount: 2
Fore
SplineSet
335 175 m 2,0,1
 342 166 342 166 342 162 c 0,2,3
 342 155 342 155 334 147 c 2,4,-1
 200 13 l 2,5,6
 193 6 193 6 186 6 c 0,7,8
 178 6 178 6 171 13 c 2,9,-1
 35 145 l 2,10,11
 27 153 27 153 27 161 c 0,12,13
 27 171 27 171 37 181 c 2,14,-1
 162 307 l 2,15,16
 170 315 170 315 179 315 c 0,17,18
 187 315 187 315 197 307 c 2,19,-1
 335 175 l 2,0,1
EndSplineSet
EndChar

StartChar: afii64241
Encoding: 65544 -1 192
Width: 585
Flags: W
LayerCount: 2
Fore
SplineSet
552 164 m 2,0,1
 559 157 559 157 559 152 c 0,2,3
 559 145 559 145 551 139 c 2,4,-1
 432 22 l 2,5,6
 425 15 425 15 419 15 c 0,7,8
 412 15 412 15 406 22 c 2,9,-1
 294 132 l 1,10,-1
 184 22 l 2,11,12
 177 15 177 15 171 15 c 0,13,14
 164 15 164 15 158 22 c 2,15,-1
 39 138 l 2,16,17
 32 144 32 144 32 151 c 0,18,19
 32 160 32 160 42 170 c 2,20,-1
 151 281 l 2,21,22
 159 289 159 289 167 289 c 0,23,24
 173 289 173 289 183 281 c 2,25,-1
 294 174 l 1,26,-1
 400 281 l 2,27,28
 407 288 407 288 415 288 c 256,29,30
 423 288 423 288 431 281 c 2,31,-1
 552 164 l 2,0,1
EndSplineSet
EndChar

StartChar: afii63954
Encoding: 65545 -1 193
Width: 587
Flags: W
LayerCount: 2
Fore
SplineSet
35 134 m 2,0,1
 30 141 30 141 30 145 c 0,2,3
 30 151 30 151 36 157 c 2,4,-1
 154 275 l 2,5,6
 161 280 161 280 167 280 c 0,7,8
 172 280 172 280 179 275 c 2,9,-1
 294 160 l 1,10,-1
 410 275 l 2,11,12
 415 280 415 280 421 280 c 0,13,14
 426 280 426 280 434 275 c 2,15,-1
 553 158 l 2,16,17
 559 152 559 152 559 145 c 256,18,19
 559 138 559 138 551 130 c 2,20,-1
 441 18 l 2,21,22
 433 10 433 10 427 8 c 0,23,24
 420 10 420 10 412 18 c 2,25,-1
 294 130 l 1,26,-1
 185 18 l 2,27,28
 178 11 178 11 171 11 c 0,29,30
 163 11 163 11 156 18 c 2,31,-1
 35 134 l 2,0,1
163 362 m 2,32,33
 158 366 158 366 158 373 c 0,34,35
 158 379 158 379 164 385 c 2,36,-1
 281 503 l 2,37,38
 288 509 288 509 294 509 c 256,39,40
 300 509 300 509 306 503 c 2,41,-1
 425 386 l 2,42,43
 430 379 430 379 430 375 c 0,44,45
 430 367 430 367 421 358 c 2,46,-1
 313 247 l 2,47,48
 305 239 305 239 299 239 c 0,49,50
 291 239 291 239 283 247 c 2,51,-1
 163 362 l 2,32,33
EndSplineSet
EndChar

StartChar: afii57382
Encoding: 65546 -1 194
Width: 564
Flags: W
LayerCount: 2
Fore
SplineSet
549 -130 m 2,0,1
 554 -137 554 -137 554 -141 c 0,2,3
 554 -147 554 -147 548 -153 c 2,4,-1
 430 -270 l 2,5,6
 424 -276 424 -276 418 -276 c 256,7,8
 412 -276 412 -276 406 -270 c 2,9,-1
 290 -156 l 1,10,-1
 174 -270 l 2,11,12
 168 -276 168 -276 162 -276 c 256,13,14
 156 -276 156 -276 150 -270 c 2,15,-1
 31 -154 l 2,16,17
 25 -148 25 -148 25 -142 c 0,18,19
 25 -134 25 -134 33 -126 c 2,20,-1
 144 -13 l 2,21,22
 151 -6 151 -6 158 -6 c 0,23,24
 163 -6 163 -6 172 -13 c 2,25,-1
 290 -126 l 1,26,-1
 399 -13 l 2,27,28
 406 -6 406 -6 413 -6 c 0,29,30
 419 -6 419 -6 428 -13 c 2,31,-1
 549 -130 l 2,0,1
421 -358 m 2,32,33
 427 -364 427 -364 427 -369 c 0,34,35
 427 -375 427 -375 421 -381 c 2,36,-1
 303 -498 l 2,37,38
 297 -504 297 -504 291 -504 c 256,39,40
 285 -504 285 -504 279 -498 c 2,41,-1
 159 -381 l 2,42,43
 154 -377 154 -377 154 -370 c 0,44,45
 154 -362 154 -362 163 -353 c 2,46,-1
 271 -242 l 2,47,48
 278 -235 278 -235 285 -235 c 0,49,50
 291 -235 291 -235 300 -242 c 2,51,-1
 421 -358 l 2,32,33
EndSplineSet
EndChar

StartChar: afii64242
Encoding: 65547 -1 195
Width: 603
Flags: W
LayerCount: 2
Fore
SplineSet
545 526 m 0,0,1
 545 247 545 247 466 134 c 0,2,3
 375 1 375 1 126 1 c 2,4,-1
 -17 1 l 1,5,-1
 -17 455 l 1,6,-1
 274 455 l 2,7,8
 333 455 333 455 333 488 c 0,9,10
 333 504 333 504 316 527 c 0,11,12
 253 608 253 608 156 694 c 0,13,14
 148 700 148 700 148 710 c 0,15,16
 148 717 148 717 156 730 c 2,17,-1
 342 1000 l 2,18,19
 357 1022 357 1022 364 1022 c 0,20,21
 372 1022 372 1022 389 1002 c 0,22,23
 545 810 545 810 545 526 c 0,0,1
EndSplineSet
EndChar

StartChar: afii62881
Encoding: 59416 59416 196
Width: 0
GlyphClass: 4
Flags: W
AnchorPoint: "Anchor-2" 0 0 mark 0
AnchorPoint: "Anchor-0" 0 0 mark 0
LayerCount: 2
Fore
SplineSet
216 380 m 1,0,1
 216 80 216 80 80 80 c 0,2,3
 37 80 37 80 9 111 c 1,4,5
 -35 9 -35 9 -115 9 c 0,6,7
 -220 9 -220 9 -220 151 c 0,8,9
 -220 204 -220 204 -205 269 c 1,10,-1
 -108 284 l 1,11,12
 -130 219 -130 219 -130 178 c 256,13,14
 -130 137 -130 137 -105 137 c 0,15,16
 -57 137 -57 137 -40 311 c 1,17,-1
 60 341 l 1,18,19
 57 305 57 305 57 278 c 0,20,21
 57 208 57 208 80 208 c 0,22,23
 113 208 113 208 121 249 c 0,24,25
 123 254 123 254 127 353 c 1,26,-1
 216 380 l 1,0,1
203 851 m 1,27,-1
 203 741 l 1,28,-1
 -198 540 l 1,29,-1
 -198 650 l 1,30,-1
 203 851 l 1,27,-1
201 560 m 1,31,-1
 -198 360 l 1,32,-1
 -198 470 l 1,33,-1
 201 671 l 1,34,-1
 201 560 l 1,31,-1
EndSplineSet
Ligature2: "'ccmp' Glyph Composition/Decomposition in Arabic lookup 4 subtable" afii57457 afii57451
EndChar

StartChar: afii57373
Encoding: 65548 -1 200
Width: 557
Flags: W
LayerCount: 2
Fore
SplineSet
492 922 m 1,0,-1
 471 791 l 1,1,2
 274 734 274 734 107 621 c 1,3,-1
 113 721 l 1,4,5
 142 745 142 745 165.5 762.5 c 128,-1,6
 189 780 189 780 207 790 c 1,7,8
 193 791 193 791 179.5 798 c 128,-1,9
 166 805 166 805 156 817.5 c 128,-1,10
 146 830 146 830 139.5 845.5 c 128,-1,11
 133 861 133 861 133 877 c 0,12,13
 133 948 133 948 179 1017 c 0,14,15
 228 1096 228 1096 300 1096 c 0,16,17
 321 1096 321 1096 347.5 1087.5 c 128,-1,18
 374 1079 374 1079 396 1063.5 c 128,-1,19
 418 1048 418 1048 433 1027.5 c 128,-1,20
 448 1007 448 1007 448 985 c 0,21,22
 448 967 448 967 428 967 c 0,23,24
 423 967 423 967 413 968.5 c 128,-1,25
 403 970 403 970 392.5 972.5 c 128,-1,26
 382 975 382 975 372 977 c 128,-1,27
 362 979 362 979 357 979 c 0,28,29
 333 979 333 979 311.5 974 c 128,-1,30
 290 969 290 969 273.5 960 c 128,-1,31
 257 951 257 951 247.5 939 c 128,-1,32
 238 927 238 927 238 913 c 0,33,34
 238 869 238 869 324 869 c 0,35,36
 342 869 342 869 394 887 c 2,37,-1
 492 922 l 1,0,-1
EndSplineSet
EndChar

StartChar: afii57374
Encoding: 65549 -1 201
Width: 686
GlyphClass: 2
Flags: W
LayerCount: 2
Fore
SplineSet
686 1 m 1,0,-1
 634 1 l 2,1,2
 601 1 601 1 562.5 13 c 128,-1,3
 524 25 524 25 486.5 44.5 c 128,-1,4
 449 64 449 64 416 89 c 128,-1,5
 383 114 383 114 361 140 c 1,6,7
 197 1 197 1 39 1 c 2,8,-1
 -70 1 l 1,9,-1
 -70 455 l 1,10,-1
 112 455 l 1,11,12
 80 490 80 490 80 590 c 0,13,14
 80 716 80 716 173 850 c 0,15,16
 279 1004 279 1004 422 1004 c 0,17,18
 473 1004 473 1004 515 980 c 128,-1,19
 557 956 557 956 587 915 c 128,-1,20
 617 874 617 874 633.5 819 c 128,-1,21
 650 764 650 764 650 703 c 0,22,23
 650 539 650 539 584 455 c 1,24,-1
 686 455 l 1,25,-1
 686 1 l 1,0,-1
489 604 m 0,26,27
 489 620 489 620 477 634.5 c 128,-1,28
 465 649 465 649 447 660.5 c 128,-1,29
 429 672 429 672 407.5 679 c 128,-1,30
 386 686 386 686 367 686 c 0,31,32
 344 686 344 686 320.5 679 c 128,-1,33
 297 672 297 672 278.5 661 c 128,-1,34
 260 650 260 650 248.5 635.5 c 128,-1,35
 237 621 237 621 237 605 c 0,36,37
 237 591 237 591 251 574.5 c 128,-1,38
 265 558 265 558 285 544 c 128,-1,39
 305 530 305 530 326 520.5 c 128,-1,40
 347 511 347 511 361 511 c 0,41,42
 380 511 380 511 402.5 519 c 128,-1,43
 425 527 425 527 444 540 c 128,-1,44
 463 553 463 553 476 569.5 c 128,-1,45
 489 586 489 586 489 604 c 0,26,27
EndSplineSet
EndChar

StartChar: afii57375
Encoding: 1619 1619 202
Width: 1026
GlyphClass: 2
Flags: W
LayerCount: 2
Fore
SplineSet
947 1440 m 0,0,1
 947 1368 947 1368 815 1294 c 0,2,3
 655 1208 655 1208 481 1208 c 0,4,5
 464 1208 464 1208 437.5 1211.5 c 128,-1,6
 411 1215 411 1215 381.5 1220 c 128,-1,7
 352 1225 352 1225 322 1230.5 c 128,-1,8
 292 1236 292 1236 266.5 1241 c 128,-1,9
 241 1246 241 1246 223.5 1249.5 c 128,-1,10
 206 1253 206 1253 202 1253 c 0,11,12
 172 1253 172 1253 143 1203 c 0,13,14
 113 1155 113 1155 89 1155 c 0,15,16
 42 1155 42 1155 47 1229 c 0,17,18
 49 1277 49 1277 112 1390 c 1,19,20
 166 1474 166 1474 211 1497 c 1,21,22
 248 1507 248 1507 353.5 1475.5 c 128,-1,23
 459 1444 459 1444 529 1434 c 128,-1,24
 599 1424 599 1424 634 1425 c 0,25,26
 707 1424 707 1424 813 1450 c 1,27,28
 896 1478 896 1478 911 1478 c 0,29,30
 947 1478 947 1478 947 1440 c 0,0,1
EndSplineSet
EndChar

StartChar: afii57471
Encoding: 65550 -1 203
Width: 1658
Flags: W
LayerCount: 2
Fore
SplineSet
1658 1 m 1,0,-1
 1621 1 l 2,1,2
 1457 1 1457 1 1373 174 c 1,3,4
 1132 -58 1132 -58 654 -58 c 0,5,6
 516 -58 516 -58 415.5 -29.5 c 128,-1,7
 315 -1 315 -1 250 58 c 128,-1,8
 185 117 185 117 154 207 c 128,-1,9
 123 297 123 297 123 420 c 0,10,11
 123 521 123 521 152 629 c 0,12,13
 186 759 186 759 244 759 c 0,14,15
 306 759 306 759 312 661 c 0,16,17
 318 533 318 533 371 478 c 0,18,19
 466 380 466 380 747 380 c 0,20,21
 1047 380 1047 380 1235 459 c 0,22,23
 1357 510 1357 510 1448 607 c 0,24,25
 1521 686 1521 686 1541 686 c 0,26,27
 1594 686 1594 686 1594 620 c 0,28,29
 1594 611 1594 611 1589 591.5 c 128,-1,30
 1584 572 1584 572 1576.5 550 c 128,-1,31
 1569 528 1569 528 1561 508.5 c 128,-1,32
 1553 489 1553 489 1548 481 c 1,33,34
 1569 455 1569 455 1624 455 c 2,35,-1
 1658 455 l 1,36,-1
 1658 1 l 1,0,-1
EndSplineSet
EndChar

StartChar: afii52258
Encoding: 65551 -1 204
Width: 1671
GlyphClass: 2
Flags: W
LayerCount: 2
Fore
SplineSet
1671 1 m 1,0,-1
 1621 1 l 2,1,2
 1589 1 1589 1 1552 12.5 c 128,-1,3
 1515 24 1515 24 1479.5 43.5 c 128,-1,4
 1444 63 1444 63 1411.5 88.5 c 128,-1,5
 1379 114 1379 114 1356 143 c 1,6,7
 1151 -38 1151 -38 755 -38 c 0,8,9
 460 -38 460 -38 315 42 c 0,10,11
 122 148 122 148 122 418 c 0,12,13
 122 534 122 534 159 645 c 0,14,15
 199 771 199 771 257 771 c 0,16,17
 288 771 288 771 301 745 c 128,-1,18
 314 719 314 719 314 665 c 0,19,20
 314 548 314 548 372 493 c 0,21,22
 423 445 423 445 522 422.5 c 128,-1,23
 621 400 621 400 770 400 c 0,24,25
 998 400 998 400 1117 427 c 1,26,27
 1067 477 1067 477 1067 590 c 0,28,29
 1067 716 1067 716 1159 850 c 0,30,31
 1265 1004 1265 1004 1408 1004 c 0,32,33
 1524 1004 1524 1004 1587 894 c 0,34,35
 1637 806 1637 806 1637 703 c 0,36,37
 1637 548 1637 548 1571 455 c 1,38,-1
 1671 455 l 1,39,-1
 1671 1 l 1,0,-1
1476 604 m 0,40,41
 1476 620 1476 620 1464 634.5 c 128,-1,42
 1452 649 1452 649 1434 660.5 c 128,-1,43
 1416 672 1416 672 1394.5 679 c 128,-1,44
 1373 686 1373 686 1354 686 c 0,45,46
 1333 686 1333 686 1310 679.5 c 128,-1,47
 1287 673 1287 673 1268 662 c 128,-1,48
 1249 651 1249 651 1236.5 636 c 128,-1,49
 1224 621 1224 621 1224 605 c 0,50,51
 1224 591 1224 591 1238 574.5 c 128,-1,52
 1252 558 1252 558 1272 544 c 128,-1,53
 1292 530 1292 530 1313 520.5 c 128,-1,54
 1334 511 1334 511 1348 511 c 0,55,56
 1367 511 1367 511 1389.5 519 c 128,-1,57
 1412 527 1412 527 1431.5 540.5 c 128,-1,58
 1451 554 1451 554 1463.5 570.5 c 128,-1,59
 1476 587 1476 587 1476 604 c 0,40,41
EndSplineSet
EndChar

StartChar: afii62889
Encoding: 65552 -1 210
Width: 1352
Flags: W
LayerCount: 2
Fore
SplineSet
1352 1 m 1,0,-1
 1269 1 l 1,1,2
 1269 -250 1269 -250 1121 -377.5 c 128,-1,3
 973 -505 973 -505 697 -505 c 0,4,5
 560 -505 560 -505 453.5 -476 c 128,-1,6
 347 -447 347 -447 273.5 -391 c 128,-1,7
 200 -335 200 -335 161.5 -251.5 c 128,-1,8
 123 -168 123 -168 123 -60 c 0,9,10
 123 55 123 55 170 211 c 0,11,12
 225 395 225 395 295 395 c 0,13,14
 312 395 312 395 323.5 390.5 c 128,-1,15
 335 386 335 386 342 373.5 c 128,-1,16
 349 361 349 361 352 340 c 128,-1,17
 355 319 355 319 355 286 c 0,18,19
 355 277 355 277 351 255 c 128,-1,20
 347 233 347 233 342.5 208.5 c 128,-1,21
 338 184 338 184 334.5 161 c 128,-1,22
 331 138 331 138 331 126 c 0,23,24
 331 -72 331 -72 728 -72 c 0,25,26
 1036 -72 1036 -72 1102 -18 c 0,27,28
 1131 6 1131 6 1131 16 c 0,29,30
 1131 32 1131 32 1027 32 c 0,31,32
 866 32 866 32 796 67 c 0,33,34
 697 116 697 116 697 261 c 0,35,36
 697 456 697 456 776 618 c 0,37,38
 864 799 864 799 991 799 c 0,39,40
 1221 799 1221 799 1257 455 c 1,41,-1
 1352 455 l 1,42,-1
 1352 1 l 1,0,-1
1083 417 m 0,43,44
 1083 432 1083 432 1070 447.5 c 128,-1,45
 1057 463 1057 463 1038 475.5 c 128,-1,46
 1019 488 1019 488 997.5 496 c 128,-1,47
 976 504 976 504 959 504 c 0,48,49
 866 504 866 504 866 435 c 0,50,51
 866 397 866 397 979 397 c 0,52,53
 1083 397 1083 397 1083 417 c 0,43,44
EndSplineSet
EndChar

StartChar: afii62887
Encoding: 65553 -1 211
Width: 1550
Flags: W
LayerCount: 2
Fore
SplineSet
1515 563 m 0,0,1
 1515 214 1515 214 1291 77 c 0,2,3
 1118 -28 1118 -28 755 -28 c 0,4,5
 457 -28 457 -28 314 51 c 0,6,7
 122 157 122 157 122 428 c 0,8,9
 122 487 122 487 133 550 c 128,-1,10
 144 613 144 613 162.5 664.5 c 128,-1,11
 181 716 181 716 205.5 749 c 128,-1,12
 230 782 230 782 257 782 c 0,13,14
 288 782 288 782 301 755 c 128,-1,15
 314 728 314 728 314 674 c 0,16,17
 314 560 314 560 372 508 c 0,18,19
 470 420 470 420 770 420 c 0,20,21
 903 420 903 420 986.5 421.5 c 128,-1,22
 1070 423 1070 423 1107 425 c 0,23,24
 1148 428 1148 428 1182.5 434.5 c 128,-1,25
 1217 441 1217 441 1242 450 c 128,-1,26
 1267 459 1267 459 1281 469 c 128,-1,27
 1295 479 1295 479 1295 490 c 0,28,29
 1295 499 1295 499 1284 515 c 128,-1,30
 1273 531 1273 531 1253 551 c 128,-1,31
 1233 571 1233 571 1203.5 595 c 128,-1,32
 1174 619 1174 619 1137 644 c 0,33,34
 1124 653 1124 653 1124 663 c 0,35,36
 1124 669 1124 669 1128 676 c 2,37,-1
 1298 982 l 2,38,39
 1304 992 1304 992 1312 992 c 256,40,41
 1320 992 1320 992 1328 985 c 0,42,43
 1515 819 1515 819 1515 563 c 0,0,1
EndSplineSet
EndChar

StartChar: afii62888
Encoding: 1697 1697 212
Width: 1596
GlyphClass: 2
Flags: W
LayerCount: 2
Fore
SplineSet
1545 548 m 0,0,1
 1545 202 1545 202 1306 65 c 0,2,3
 1127 -38 1127 -38 755 -38 c 0,4,5
 460 -38 460 -38 315 42 c 0,6,7
 122 148 122 148 122 418 c 0,8,9
 122 534 122 534 159 645 c 0,10,11
 199 771 199 771 257 771 c 0,12,13
 288 771 288 771 301 745 c 128,-1,14
 314 719 314 719 314 665 c 0,15,16
 314 548 314 548 372 493 c 0,17,18
 471 400 471 400 770 400 c 0,19,20
 928 400 928 400 1022.5 401 c 128,-1,21
 1117 402 1117 402 1151 404 c 0,22,23
 1206 407 1206 407 1251.5 414.5 c 128,-1,24
 1297 422 1297 422 1329 433 c 128,-1,25
 1361 444 1361 444 1379 458 c 128,-1,26
 1397 472 1397 472 1397 489 c 0,27,28
 1397 500 1397 500 1386 500 c 0,29,30
 1379 500 1379 500 1372 497 c 0,31,32
 1327 478 1327 478 1184 478 c 0,33,34
 913 478 913 478 913 703 c 0,35,36
 913 841 913 841 982 978 c 0,37,38
 1064 1140 1064 1140 1189 1140 c 0,39,40
 1373 1140 1373 1140 1471 916 c 0,41,42
 1545 745 1545 745 1545 548 c 0,0,1
1310 764 m 0,43,44
 1310 779 1310 779 1296.5 794.5 c 128,-1,45
 1283 810 1283 810 1263.5 822.5 c 128,-1,46
 1244 835 1244 835 1222.5 843 c 128,-1,47
 1201 851 1201 851 1186 851 c 0,48,49
 1093 851 1093 851 1093 782 c 0,50,51
 1093 744 1093 744 1206 744 c 0,52,53
 1308 744 1308 744 1310 764 c 0,43,44
EndSplineSet
Substitution2: "'fina' Terminal Forms in Arabic lookup 3 subtable" afii52258
Substitution2: "'medi' Medial Forms in Arabic lookup 2 subtable" afii57374
Substitution2: "'init' Initial Forms in Arabic lookup 0 subtable" afii57459
EndChar

StartChar: afii57567
Encoding: 1705 1705 219
Width: 1874
GlyphClass: 2
Flags: W
AnchorPoint: "Anchor-1" 720 -525 basechar 0
AnchorPoint: "Anchor-0" 660 1125 basechar 0
LayerCount: 2
Fore
SplineSet
1837 1450 m 1,0,-1
 1804 1121 l 2,1,2
 1802 1098 1802 1098 1798 1093.5 c 128,-1,3
 1794 1089 1794 1089 1780 1085 c 2,4,-1
 1366 957 l 1,5,6
 1417 897 1417 897 1452 846 c 128,-1,7
 1487 795 1487 795 1509 750 c 0,8,9
 1568 626 1568 626 1568 478 c 0,10,11
 1568 165 1568 165 1342 48 c 0,12,13
 1193 -29 1193 -29 897 -29 c 2,14,-1
 823 -29 l 1,15,-1
 815 -29 l 2,16,17
 807 -29 807 -29 798 -28.5 c 128,-1,18
 789 -28 789 -28 779 -28 c 2,19,-1
 755 -28 l 2,20,21
 461 -28 461 -28 315 52 c 0,22,23
 122 158 122 158 122 428 c 0,24,25
 122 487 122 487 133 550 c 128,-1,26
 144 613 144 613 162.5 664.5 c 128,-1,27
 181 716 181 716 205.5 749 c 128,-1,28
 230 782 230 782 257 782 c 0,29,30
 288 782 288 782 301 755 c 128,-1,31
 314 728 314 728 314 674 c 0,32,33
 314 560 314 560 372 508 c 0,34,35
 469 420 469 420 770 420 c 0,36,37
 1119 420 1119 420 1280 464 c 0,38,39
 1309 472 1309 472 1309 497 c 0,40,41
 1309 528 1309 528 1223 618.5 c 128,-1,42
 1137 709 1137 709 970 864 c 1,43,-1
 1025 1186 l 2,44,45
 1028 1207 1028 1207 1047 1214 c 2,46,-1
 1822 1470 l 2,47,48
 1831 1473 1831 1473 1835 1473 c 0,49,50
 1837 1471 1837 1471 1837 1462 c 2,51,-1
 1837 1450 l 1,0,-1
EndSplineSet
Substitution2: "'fina' Terminal Forms in Arabic lookup 3 subtable" afii62964
Substitution2: "'medi' Medial Forms in Arabic lookup 2 subtable" afii52306
Substitution2: "'init' Initial Forms in Arabic lookup 0 subtable" afii52305
EndChar

StartChar: afii62964
Encoding: 64399 64399 220
Width: 1906
GlyphClass: 2
Flags: W
AnchorPoint: "Anchor-1" 765 -540 basechar 0
AnchorPoint: "Anchor-0" 675 1245 basechar 0
LayerCount: 2
Fore
SplineSet
1906 1 m 1,0,-1
 1859 1 l 2,1,2
 1765 1 1765 1 1650 75 c 0,3,4
 1554 137 1554 137 1482 226 c 1,5,6
 1405 70 1405 70 1221 11 c 0,7,8
 1098 -29 1098 -29 882 -29 c 0,9,10
 819 -29 819 -29 754 -28 c 0,11,12
 459 -28 459 -28 314 52 c 0,13,14
 121 158 121 158 121 428 c 0,15,16
 121 489 121 489 132 552 c 128,-1,17
 143 615 143 615 162 666 c 128,-1,18
 181 717 181 717 205.5 749.5 c 128,-1,19
 230 782 230 782 257 782 c 0,20,21
 287 782 287 782 300 755 c 128,-1,22
 313 728 313 728 313 674 c 0,23,24
 313 560 313 560 371 508 c 0,25,26
 469 420 469 420 770 420 c 0,27,28
 874 420 874 420 963 423 c 128,-1,29
 1052 426 1052 426 1116.5 433 c 128,-1,30
 1181 440 1181 440 1217.5 451 c 128,-1,31
 1254 462 1254 462 1254 477 c 0,32,33
 1254 487 1254 487 1230 517.5 c 128,-1,34
 1206 548 1206 548 1162.5 596 c 128,-1,35
 1119 644 1119 644 1057 709 c 128,-1,36
 995 774 995 774 919 853 c 1,37,-1
 974 1175 l 2,38,39
 977 1198 977 1198 996 1204 c 2,40,-1
 1770 1460 l 2,41,42
 1777 1463 1777 1463 1782 1463 c 0,43,44
 1786 1463 1786 1463 1786 1453 c 2,45,-1
 1786 1441 l 1,46,-1
 1753 1111 l 2,47,48
 1752 1100 1752 1100 1750.5 1094 c 128,-1,49
 1749 1088 1749 1088 1746.5 1084.5 c 128,-1,50
 1744 1081 1744 1081 1739.5 1079.5 c 128,-1,51
 1735 1078 1735 1078 1728 1075 c 2,52,-1
 1273 920 l 1,53,54
 1413 759 1413 759 1488 674 c 128,-1,55
 1563 589 1563 589 1575 578 c 0,56,57
 1704 455 1704 455 1832 455 c 2,58,-1
 1906 455 l 1,59,-1
 1906 1 l 1,0,-1
EndSplineSet
EndChar

StartChar: afii52305
Encoding: 64400 64400 221
Width: 924
GlyphClass: 2
Flags: W
AnchorPoint: "Anchor-1" 270 -525 basechar 0
AnchorPoint: "Anchor-0" 210 1410 basechar 0
LayerCount: 2
Fore
SplineSet
901 1450 m 1,0,-1
 866 1121 l 2,1,2
 865 1109 865 1109 864 1102.5 c 128,-1,3
 863 1096 863 1096 860 1093 c 128,-1,4
 857 1090 857 1090 853 1088.5 c 128,-1,5
 849 1087 849 1087 842 1085 c 2,6,-1
 430 957 l 1,7,8
 532 836 532 836 573 750 c 0,9,10
 631 630 631 630 631 478 c 0,11,12
 631 365 631 365 600 276.5 c 128,-1,13
 569 188 569 188 508 127 c 128,-1,14
 447 66 447 66 358 33.5 c 128,-1,15
 269 1 269 1 152 1 c 2,16,-1
 -70 1 l 1,17,-1
 -70 455 l 1,18,-1
 64 455 l 2,19,20
 273 455 273 455 342 474 c 0,21,22
 373 481 373 481 373 508 c 0,23,24
 373 523 373 523 358 546 c 128,-1,25
 343 569 343 569 319.5 596 c 128,-1,26
 296 623 296 623 267 651 c 128,-1,27
 238 679 238 679 210 705 c 0,28,29
 151 757 151 757 33 864 c 1,30,-1
 89 1186 l 2,31,32
 92 1207 92 1207 110 1214 c 2,33,-1
 885 1470 l 2,34,35
 892 1473 892 1473 898 1473 c 0,36,37
 901 1473 901 1473 901 1460 c 2,38,-1
 901 1450 l 1,0,-1
EndSplineSet
EndChar

StartChar: afii52306
Encoding: 64401 64401 222
Width: 1004
GlyphClass: 2
Flags: W
AnchorPoint: "Anchor-1" 345 -495 basechar 0
AnchorPoint: "Anchor-0" 255 1380 basechar 0
LayerCount: 2
Fore
SplineSet
1004 1 m 1,0,-1
 957 1 l 2,1,2
 863 1 863 1 748 75 c 0,3,4
 652 137 652 137 580 226 c 1,5,6
 514 91 514 91 382 40 c 0,7,8
 281 1 281 1 95 1 c 2,9,-1
 -70 1 l 1,10,-1
 -70 455 l 1,11,-1
 100 455 l 2,12,13
 213 455 213 455 278 463.5 c 128,-1,14
 343 472 343 472 343 494 c 0,15,16
 343 501 343 501 329 519.5 c 128,-1,17
 315 538 315 538 278.5 578.5 c 128,-1,18
 242 619 242 619 178.5 685 c 128,-1,19
 115 751 115 751 17 853 c 1,20,-1
 72 1175 l 2,21,22
 75 1198 75 1198 94 1204 c 2,23,-1
 868 1460 l 2,24,25
 877 1463 877 1463 881 1463 c 256,26,27
 885 1463 885 1463 885 1453 c 2,28,-1
 885 1441 l 1,29,-1
 851 1111 l 2,30,31
 850 1100 850 1100 848.5 1094 c 128,-1,32
 847 1088 847 1088 844.5 1084.5 c 128,-1,33
 842 1081 842 1081 837.5 1079.5 c 128,-1,34
 833 1078 833 1078 826 1075 c 2,35,-1
 372 920 l 1,36,37
 508 763 508 763 583 678 c 128,-1,38
 658 593 658 593 674 578 c 0,39,40
 804 455 804 455 930 455 c 2,41,-1
 1004 455 l 1,42,-1
 1004 1 l 1,0,-1
EndSplineSet
EndChar

StartChar: afii57509
Encoding: 1711 1711 223
Width: 1874
GlyphClass: 2
Flags: W
AnchorPoint: "Anchor-1" 720 -480 basechar 0
AnchorPoint: "Anchor-0" 690 1125 basechar 0
LayerCount: 2
Fore
SplineSet
1840 1458 m 1,0,-1
 1830 1365 l 1,1,-1
 1061 1116 l 1,2,-1
 1080 1224 l 1,3,-1
 1840 1458 l 1,0,-1
1824 1274 m 1,4,-1
 1804 1001 l 2,5,6
 1803 992 1803 992 1802.5 985.5 c 128,-1,7
 1802 979 1802 979 1800 975 c 128,-1,8
 1798 971 1798 971 1793.5 968.5 c 128,-1,9
 1789 966 1789 966 1780 964 c 2,10,-1
 1385 856 l 1,11,12
 1538 671 1538 671 1538 478 c 0,13,14
 1538 165 1538 165 1323 48 c 0,15,16
 1182 -29 1182 -29 896 -29 c 0,17,18
 890 -29 890 -29 869 -29 c 128,-1,19
 848 -29 848 -29 824.5 -28.5 c 128,-1,20
 801 -28 801 -28 781 -28 c 128,-1,21
 761 -28 761 -28 755 -28 c 0,22,23
 460 -28 460 -28 315 52 c 0,24,25
 122 158 122 158 122 428 c 0,26,27
 122 487 122 487 133 550 c 128,-1,28
 144 613 144 613 162.5 664.5 c 128,-1,29
 181 716 181 716 205.5 749 c 128,-1,30
 230 782 230 782 257 782 c 0,31,32
 288 782 288 782 301 755 c 128,-1,33
 314 728 314 728 314 674 c 0,34,35
 314 560 314 560 372 508 c 0,36,37
 470 420 470 420 770 420 c 0,38,39
 1092 420 1092 420 1250 464 c 0,40,41
 1281 473 1281 473 1281 498 c 256,42,43
 1281 523 1281 523 1210.5 593 c 128,-1,44
 1140 663 1140 663 1004 788 c 1,45,-1
 1051 1039 l 2,46,47
 1051 1044 1051 1044 1059 1054 c 1,48,-1
 1809 1294 l 2,49,50
 1818 1297 1818 1297 1821 1297 c 256,51,52
 1824 1297 1824 1297 1824 1284 c 2,53,-1
 1824 1274 l 1,4,-1
EndSplineSet
Substitution2: "'fina' Terminal Forms in Arabic lookup 3 subtable" afii62967
Substitution2: "'medi' Medial Forms in Arabic lookup 2 subtable" afii62966
Substitution2: "'init' Initial Forms in Arabic lookup 0 subtable" afii62965
EndChar

StartChar: afii62967
Encoding: 64403 64403 224
Width: 1906
GlyphClass: 2
Flags: W
AnchorPoint: "Anchor-1" 825 -495 basechar 0
AnchorPoint: "Anchor-0" 720 1170 basechar 0
LayerCount: 2
Fore
SplineSet
1840 1458 m 1,0,-1
 1830 1365 l 1,1,-1
 1061 1116 l 1,2,-1
 1080 1224 l 1,3,-1
 1840 1458 l 1,0,-1
1906 1 m 1,4,-1
 1859 1 l 2,5,6
 1765 1 1765 1 1650 75 c 0,7,8
 1554 137 1554 137 1482 226 c 1,9,10
 1405 70 1405 70 1221 11 c 0,11,12
 1098 -29 1098 -29 882 -29 c 0,13,14
 819 -29 819 -29 754 -28 c 0,15,16
 459 -28 459 -28 314 52 c 0,17,18
 121 158 121 158 121 428 c 0,19,20
 121 489 121 489 132 552 c 128,-1,21
 143 615 143 615 162 666 c 128,-1,22
 181 717 181 717 205.5 749.5 c 128,-1,23
 230 782 230 782 257 782 c 0,24,25
 287 782 287 782 300 755 c 128,-1,26
 313 728 313 728 313 674 c 0,27,28
 313 560 313 560 371 508 c 0,29,30
 469 420 469 420 770 420 c 0,31,32
 874 420 874 420 963 423 c 128,-1,33
 1052 426 1052 426 1116.5 433 c 128,-1,34
 1181 440 1181 440 1217.5 451 c 128,-1,35
 1254 462 1254 462 1254 477 c 0,36,37
 1254 488 1254 488 1238 508 c 0,38,39
 1201 556 1201 556 1143 625.5 c 128,-1,40
 1085 695 1085 695 1004 788 c 1,41,-1
 1051 1039 l 2,42,43
 1051 1044 1051 1044 1059 1054 c 1,44,-1
 1809 1294 l 2,45,46
 1818 1297 1818 1297 1821 1297 c 256,47,48
 1824 1297 1824 1297 1824 1284 c 2,49,-1
 1824 1274 l 1,50,-1
 1804 1001 l 2,51,52
 1803 992 1803 992 1802.5 986 c 128,-1,53
 1802 980 1802 980 1800 976 c 128,-1,54
 1798 972 1798 972 1793.5 969.5 c 128,-1,55
 1789 967 1789 967 1780 964 c 2,56,-1
 1361 836 l 1,57,-1
 1612 540 l 1,58,59
 1703 455 1703 455 1832 455 c 2,60,-1
 1906 455 l 1,61,-1
 1906 1 l 1,4,-1
EndSplineSet
EndChar

StartChar: afii62965
Encoding: 64404 64404 225
Width: 894
GlyphClass: 2
Flags: W
AnchorPoint: "Anchor-1" 195 -465 basechar 0
AnchorPoint: "Anchor-0" 165 1380 basechar 0
LayerCount: 2
Fore
SplineSet
874 1458 m 1,0,-1
 863 1365 l 1,1,-1
 94 1116 l 1,2,-1
 113 1224 l 1,3,-1
 874 1458 l 1,0,-1
858 1274 m 1,4,-1
 837 1001 l 2,5,6
 836 989 836 989 834.5 982.5 c 128,-1,7
 833 976 833 976 830.5 972.5 c 128,-1,8
 828 969 828 969 823.5 967.5 c 128,-1,9
 819 966 819 966 812 964 c 2,10,-1
 418 856 l 1,11,12
 571 674 571 674 571 477 c 0,13,14
 571 366 571 366 541 277.5 c 128,-1,15
 511 189 511 189 454.5 127.5 c 128,-1,16
 398 66 398 66 316.5 33.5 c 128,-1,17
 235 1 235 1 132 1 c 2,18,-1
 -70 1 l 1,19,-1
 -70 455 l 1,20,-1
 64 455 l 2,21,22
 112 455 112 455 157 456.5 c 128,-1,23
 202 458 202 458 236.5 462.5 c 128,-1,24
 271 467 271 467 292 476 c 128,-1,25
 313 485 313 485 313 501 c 0,26,27
 313 523 313 523 241 595 c 128,-1,28
 169 667 169 667 37 788 c 1,29,-1
 84 1039 l 2,30,31
 84 1044 84 1044 92 1054 c 1,32,-1
 841 1294 l 2,33,34
 846 1296 846 1296 848.5 1296 c 128,-1,35
 851 1296 851 1296 853 1296 c 0,36,37
 858 1296 858 1296 858 1283 c 2,38,-1
 858 1274 l 1,4,-1
EndSplineSet
EndChar

StartChar: afii62966
Encoding: 64405 64405 226
Width: 949
GlyphClass: 2
Flags: W
AnchorPoint: "Anchor-1" 375 -525 basechar 0
AnchorPoint: "Anchor-0" 390 1455 basechar 0
LayerCount: 2
Fore
SplineSet
883 1458 m 1,0,-1
 873 1365 l 1,1,-1
 104 1116 l 1,2,-1
 123 1224 l 1,3,-1
 883 1458 l 1,0,-1
949 1 m 1,4,-1
 902 1 l 2,5,6
 808 1 808 1 693 75 c 0,7,8
 597 137 597 137 525 226 c 1,9,10
 414 1 414 1 119 1 c 2,11,-1
 -70 1 l 1,12,-1
 -70 455 l 1,13,-1
 76 455 l 2,14,15
 177 455 177 455 237 465 c 128,-1,16
 297 475 297 475 297 497 c 0,17,18
 297 509 297 509 281 528 c 0,19,20
 238 579 238 579 180.5 644 c 128,-1,21
 123 709 123 709 48 788 c 1,22,-1
 94 1039 l 2,23,24
 94 1045 94 1045 103 1054 c 1,25,-1
 852 1294 l 2,26,27
 861 1297 861 1297 864 1297 c 256,28,29
 867 1297 867 1297 867 1284 c 2,30,-1
 867 1274 l 1,31,-1
 847 1001 l 2,32,33
 846 992 846 992 845.5 986 c 128,-1,34
 845 980 845 980 843 976 c 128,-1,35
 841 972 841 972 836.5 969.5 c 128,-1,36
 832 967 832 967 823 964 c 2,37,-1
 404 836 l 1,38,-1
 655 540 l 1,39,40
 746 455 746 455 875 455 c 2,41,-1
 949 455 l 1,42,-1
 949 1 l 1,4,-1
EndSplineSet
EndChar

StartChar: afii57555
Encoding: 1740 1740 227
Width: 1533
GlyphClass: 2
Flags: W
AnchorPoint: "Anchor-1" 675 -975 basechar 0
AnchorPoint: "Anchor-0" 540 795 basechar 0
LayerCount: 2
Fore
SplineSet
1487 120 m 0,0,1
 1487 -512 1487 -512 716 -512 c 0,2,3
 121 -512 121 -512 121 -4 c 0,4,5
 121 99 121 99 164 270 c 0,6,7
 218 487 218 487 289 487 c 0,8,9
 372 487 372 487 372 388 c 0,10,11
 372 375 372 375 368.5 349 c 128,-1,12
 365 323 365 323 361.5 294.5 c 128,-1,13
 358 266 358 266 354.5 240 c 128,-1,14
 351 214 351 214 351 201 c 0,15,16
 351 -77 351 -77 832 -77 c 0,17,18
 1079 -77 1079 -77 1292 -3 c 0,19,20
 1329 10 1329 10 1329 28 c 0,21,22
 1329 48 1329 48 1277 54 c 0,23,24
 1221 59 1221 59 1138.5 68 c 128,-1,25
 1056 77 1056 77 945 88 c 1,26,27
 739 129 739 129 739 273 c 0,28,29
 739 435 739 435 854 646 c 0,30,31
 996 910 996 910 1196 910 c 0,32,33
 1323 910 1323 910 1413 785 c 0,34,35
 1487 682 1487 682 1487 602 c 0,36,37
 1487 503 1487 503 1456 503 c 0,38,39
 1451 503 1451 503 1359 534 c 0,40,41
 1265 566 1265 566 1190 566 c 0,42,43
 1086 566 1086 566 1016 514 c 0,44,45
 958 472 958 472 958 438 c 0,46,47
 958 415 958 415 1095 397 c 0,48,49
 1306 370 1306 370 1331 364 c 0,50,51
 1487 329 1487 329 1487 120 c 0,0,1
EndSplineSet
Substitution2: "'fina' Terminal Forms in Arabic lookup 3 subtable" afii52364
Substitution2: "'medi' Medial Forms in Arabic lookup 2 subtable" afii62832
Substitution2: "'init' Initial Forms in Arabic lookup 0 subtable" uniFBFE
EndChar

StartChar: afii52364
Encoding: 64509 64509 228
Width: 1608
GlyphClass: 2
Flags: W
AnchorPoint: "Anchor-1" 795 -960 basechar 0
AnchorPoint: "Anchor-0" 675 735 basechar 0
LayerCount: 2
Fore
SplineSet
1608 1 m 1,0,-1
 1576 1 l 2,1,2
 1544 1 1544 1 1504 49 c 0,3,4
 1451 111 1451 111 1396 138 c 0,5,6
 1300 186 1300 186 1133 186 c 0,7,8
 1097 186 1097 186 1062 182 c 128,-1,9
 1027 178 1027 178 999.5 171.5 c 128,-1,10
 972 165 972 165 955 156 c 128,-1,11
 938 147 938 147 938 138 c 0,12,13
 938 114 938 114 1051 114 c 0,14,15
 1233 114 1233 114 1302 94 c 0,16,17
 1439 53 1439 53 1439 -84 c 0,18,19
 1439 -513 1439 -513 743 -513 c 0,20,21
 585 -513 585 -513 468 -484.5 c 128,-1,22
 351 -456 351 -456 274 -396 c 128,-1,23
 197 -336 197 -336 159 -242 c 128,-1,24
 121 -148 121 -148 121 -17 c 0,25,26
 121 118 121 118 177 269 c 0,27,28
 235 428 235 428 299 428 c 0,29,30
 378 428 378 428 378 339 c 0,31,32
 378 327 378 327 375 302 c 128,-1,33
 372 277 372 277 368.5 249 c 128,-1,34
 365 221 365 221 362 195.5 c 128,-1,35
 359 170 359 170 359 157 c 0,36,37
 359 -127 359 -127 851 -127 c 0,38,39
 934 -127 934 -127 1015.5 -123.5 c 128,-1,40
 1097 -120 1097 -120 1161.5 -112.5 c 128,-1,41
 1226 -105 1226 -105 1266 -94 c 128,-1,42
 1306 -83 1306 -83 1306 -69 c 0,43,44
 1306 -59 1306 -59 1281 -53.5 c 128,-1,45
 1256 -48 1256 -48 1219.5 -45.5 c 128,-1,46
 1183 -43 1183 -43 1141.5 -42.5 c 128,-1,47
 1100 -42 1100 -42 1067 -42 c 0,48,49
 918 -42 918 -42 861 -23 c 0,50,51
 764 8 764 8 764 107 c 0,52,53
 764 312 764 312 1058 399 c 0,54,55
 1247 455 1247 455 1513 455 c 2,56,-1
 1608 455 l 1,57,-1
 1608 1 l 1,0,-1
EndSplineSet
EndChar

StartChar: afii62882
Encoding: 64606 64606 229
Width: 0
GlyphClass: 4
Flags: W
AnchorPoint: "Anchor-2" 0 0 mark 0
AnchorPoint: "Anchor-0" 0 0 mark 0
LayerCount: 2
Fore
SplineSet
219 378 m 1,0,1
 219 79 219 79 83 79 c 0,2,3
 39 79 39 79 12 110 c 1,4,5
 -32 8 -32 8 -112 8 c 0,6,7
 -217 8 -217 8 -217 150 c 0,8,9
 -217 203 -217 203 -202 268 c 1,10,-1
 -105 283 l 1,11,12
 -127 218 -127 218 -127 177 c 256,13,14
 -127 136 -127 136 -102 136 c 0,15,16
 -54 136 -54 136 -37 310 c 1,17,-1
 63 341 l 1,18,19
 60 305 60 305 60 278 c 0,20,21
 60 208 60 208 83 208 c 0,22,23
 117 208 117 208 124 248 c 0,24,25
 126 253 126 253 130 351 c 1,26,-1
 219 378 l 1,0,1
13 447 m 0,27,28
 -82 399 -82 399 -177 376 c 1,29,-1
 -190 457 l 1,30,31
 -179 462 -179 462 -163.5 469 c 128,-1,32
 -148 476 -148 476 -126 487 c 0,33,34
 -124 492 -124 492 -123 497.5 c 128,-1,35
 -122 503 -122 503 -122 509 c 0,36,37
 -122 546 -122 546 -148 546 c 0,38,39
 -152 546 -152 546 -160.5 544 c 128,-1,40
 -169 542 -169 542 -178.5 540 c 128,-1,41
 -188 538 -188 538 -196 536 c 128,-1,42
 -204 534 -204 534 -207 534 c 0,43,44
 -223 534 -223 534 -223 560 c 0,45,46
 -223 574 -223 574 -213.5 590 c 128,-1,47
 -204 606 -204 606 -190 619.5 c 128,-1,48
 -176 633 -176 633 -160 641.5 c 128,-1,49
 -144 650 -144 650 -130 650 c 0,50,51
 -46 650 -46 650 -46 555 c 0,52,53
 -46 538 -46 538 -49 519 c 1,54,55
 2 541 2 541 22 561 c 1,56,57
 -47 597 -47 597 -47 672 c 0,58,59
 -47 702 -47 702 -34 737 c 0,60,61
 -1 828 -1 828 89 828 c 0,62,63
 121 828 121 828 145 817 c 128,-1,64
 169 806 169 806 185.5 787.5 c 128,-1,65
 202 769 202 769 210.5 743.5 c 128,-1,66
 219 718 219 718 219 689 c 0,67,68
 219 551 219 551 13 447 c 0,27,28
134 682 m 0,69,70
 134 710 134 710 121.5 722 c 128,-1,71
 109 734 109 734 83 734 c 0,72,73
 60 734 60 734 48 720.5 c 128,-1,74
 36 707 36 707 36 683 c 0,75,76
 36 635 36 635 90 635 c 0,77,78
 134 635 134 635 134 682 c 0,69,70
EndSplineSet
Ligature2: "'ccmp' Glyph Composition/Decomposition in Arabic lookup 4 subtable" afii57457 afii57452
EndChar

StartChar: afii62883
Encoding: 64607 64607 230
Width: 0
GlyphClass: 4
Flags: W
AnchorPoint: "Anchor-2" 0 0 mark 0
AnchorPoint: "Anchor-0" 0 0 mark 0
LayerCount: 2
Fore
SplineSet
235 803 m 1,0,1
 235 503 235 503 99 503 c 0,2,3
 56 503 56 503 28 534 c 1,4,5
 -16 432 -16 432 -96 432 c 0,6,7
 -201 432 -201 432 -201 574 c 0,8,9
 -201 627 -201 627 -186 692 c 1,10,-1
 -89 707 l 1,11,12
 -111 642 -111 642 -111 601 c 256,13,14
 -111 560 -111 560 -86 560 c 0,15,16
 -38 560 -38 560 -21 734 c 1,17,-1
 79 764 l 1,18,19
 76 728 76 728 76 701 c 0,20,21
 76 631 76 631 99 631 c 0,22,23
 132 631 132 631 140 672 c 0,24,25
 142 677 142 677 146 776 c 1,26,-1
 235 803 l 1,0,1
214 491 m 1,27,-1
 214 381 l 1,28,-1
 -187 180 l 1,29,-1
 -187 290 l 1,30,-1
 214 491 l 1,27,-1
212 200 m 1,31,-1
 -187 0 l 1,32,-1
 -187 110 l 1,33,-1
 212 311 l 1,34,-1
 212 200 l 1,31,-1
EndSplineSet
Ligature2: "'ccmp' Glyph Composition/Decomposition in Arabic lookup 4 subtable" afii57457 afii57453
EndChar

StartChar: afii62884
Encoding: 64608 64608 231
Width: 0
GlyphClass: 4
Flags: W
AnchorPoint: "Anchor-2" 0 0 mark 0
AnchorPoint: "Anchor-0" 0 0 mark 0
LayerCount: 2
Fore
SplineSet
216 367 m 1,0,1
 216 68 216 68 80 68 c 0,2,3
 36 68 36 68 9 99 c 1,4,5
 -35 -3 -35 -3 -115 -3 c 0,6,7
 -220 -3 -220 -3 -220 139 c 0,8,9
 -220 192 -220 192 -205 257 c 1,10,-1
 -108 272 l 1,11,12
 -130 207 -130 207 -130 166 c 256,13,14
 -130 125 -130 125 -105 125 c 0,15,16
 -57 125 -57 125 -40 299 c 1,17,-1
 60 330 l 1,18,19
 57 294 57 294 57 267 c 0,20,21
 57 197 57 197 80 197 c 0,22,23
 114 197 114 197 121 237 c 0,24,25
 123 242 123 242 127 340 c 1,26,-1
 216 367 l 1,0,1
198 517 m 1,27,-1
 -203 317 l 1,28,-1
 -203 427 l 1,29,-1
 198 628 l 1,30,-1
 198 517 l 1,27,-1
EndSplineSet
Ligature2: "'ccmp' Glyph Composition/Decomposition in Arabic lookup 4 subtable" afii57457 afii57454
EndChar

StartChar: afii62885
Encoding: 64609 64609 232
Width: 0
GlyphClass: 4
Flags: W
AnchorPoint: "Anchor-2" 0 0 mark 0
AnchorPoint: "Anchor-0" 0 0 mark 0
LayerCount: 2
Fore
SplineSet
196 354 m 1,0,1
 196 55 196 55 60 55 c 0,2,3
 16 55 16 55 -11 86 c 1,4,5
 -55 -16 -55 -16 -135 -16 c 0,6,7
 -240 -16 -240 -16 -240 126 c 0,8,9
 -240 179 -240 179 -225 244 c 1,10,-1
 -128 259 l 1,11,12
 -150 194 -150 194 -150 153 c 256,13,14
 -150 112 -150 112 -125 112 c 0,15,16
 -77 112 -77 112 -60 286 c 1,17,-1
 40 317 l 1,18,19
 37 281 37 281 37 254 c 0,20,21
 37 184 37 184 60 184 c 0,22,23
 94 184 94 184 101 224 c 0,24,25
 103 229 103 229 107 327 c 1,26,-1
 196 354 l 1,0,1
178 589 m 0,27,28
 141 487 141 487 -21 404 c 0,29,30
 -149 339 -149 339 -207 339 c 1,31,-1
 -217 418 l 1,32,33
 -73 455 -73 455 -11 517 c 1,34,35
 -79 552 -79 552 -79 632 c 0,36,37
 -79 669 -79 669 -68 698 c 128,-1,38
 -57 727 -57 727 -38.5 747 c 128,-1,39
 -20 767 -20 767 5.5 778 c 128,-1,40
 31 789 31 789 60 789 c 0,41,42
 92 789 92 789 116 778 c 128,-1,43
 140 767 140 767 156.5 748 c 128,-1,44
 173 729 173 729 181 703.5 c 128,-1,45
 189 678 189 678 189 650 c 0,46,47
 189 620 189 620 178 589 c 0,27,28
104 641 m 0,48,49
 104 668 104 668 92 680 c 128,-1,50
 80 692 80 692 55 692 c 256,51,52
 30 692 30 692 18 679 c 128,-1,53
 6 666 6 666 6 643 c 0,54,55
 6 594 6 594 61 594 c 0,56,57
 104 594 104 594 104 641 c 0,48,49
EndSplineSet
Ligature2: "'ccmp' Glyph Composition/Decomposition in Arabic lookup 4 subtable" afii57457 afii57455
EndChar

StartChar: afii62886
Encoding: 64610 64610 233
Width: 0
GlyphClass: 4
Flags: W
AnchorPoint: "Anchor-2" 0 0 mark 0
AnchorPoint: "Anchor-0" 0 0 mark 0
LayerCount: 2
Fore
SplineSet
192 632 m 1,0,1
 192 331 192 331 56 331 c 0,2,3
 14 331 14 331 -15 363 c 1,4,5
 -58 260 -58 260 -139 260 c 0,6,7
 -244 260 -244 260 -244 403 c 0,8,9
 -244 456 -244 456 -229 522 c 1,10,-1
 -132 536 l 1,11,12
 -154 471 -154 471 -154 430 c 256,13,14
 -154 389 -154 389 -129 389 c 0,15,16
 -81 389 -81 389 -64 563 c 1,17,-1
 36 593 l 1,18,19
 33 557 33 557 33 530 c 0,20,21
 33 460 33 460 56 460 c 0,22,23
 89 460 89 460 97 501 c 0,24,25
 99 506 99 506 103 605 c 1,26,-1
 192 632 l 1,0,1
174 209 m 1,27,-1
 -227 9 l 1,28,-1
 -227 119 l 1,29,-1
 174 320 l 1,30,-1
 174 209 l 1,27,-1
EndSplineSet
Ligature2: "'ccmp' Glyph Composition/Decomposition in Arabic lookup 4 subtable" afii57457 afii57456
EndChar

StartChar: afii62945
Encoding: 65554 -1 234
Width: 2036
GlyphClass: 3
Flags: W
LayerCount: 2
Fore
SplineSet
1981 1009 m 2,0,1
 1993 982 1993 982 1993 966 c 0,2,3
 1993 944 1993 944 1964 944 c 0,4,5
 1939 944 1939 944 1882 961 c 1,6,-1
 1907 475 l 2,7,8
 1907 473 1907 473 1907 466.5 c 128,-1,9
 1907 460 1907 460 1907.5 451.5 c 128,-1,10
 1908 443 1908 443 1908 436 c 128,-1,11
 1908 429 1908 429 1908 427 c 0,12,13
 1908 325 1908 325 1884 245 c 128,-1,14
 1860 165 1860 165 1813.5 109.5 c 128,-1,15
 1767 54 1767 54 1699 24.5 c 128,-1,16
 1631 -5 1631 -5 1543 -5 c 0,17,18
 1343 -5 1343 -5 1238 150 c 1,19,20
 1200 106 1200 106 1169 77.5 c 128,-1,21
 1138 49 1138 49 1109 32 c 128,-1,22
 1080 15 1080 15 1050.5 8 c 128,-1,23
 1021 1 1021 1 987 1 c 0,24,25
 762 1 762 1 686 241 c 1,26,27
 679 225 679 225 663 206.5 c 128,-1,28
 647 188 647 188 627 172.5 c 128,-1,29
 607 157 607 157 587 146.5 c 128,-1,30
 567 136 567 136 552 136 c 0,31,32
 458 136 458 136 338 185 c 0,33,34
 177 250 177 250 177 354 c 0,35,36
 177 452 177 452 256 562 c 0,37,38
 278 593 278 593 399 664 c 0,39,40
 505 725 505 725 562 748 c 1,41,-1
 543 826 l 1,42,-1
 734 1023 l 2,43,44
 751 1040 751 1040 761 1040 c 0,45,46
 776 1040 776 1040 782 1005 c 2,47,-1
 855 610 l 2,48,49
 884 455 884 455 1003 455 c 0,50,51
 1112 455 1112 455 1112 587 c 0,52,53
 1112 592 1112 592 1111.5 598 c 128,-1,54
 1111 604 1111 604 1111 611 c 2,55,-1
 1079 1090 l 1,56,-1
 1079 1094 l 2,57,58
 1079 1108 1079 1108 1089 1116 c 2,59,-1
 1361 1292 l 2,60,61
 1369 1297 1369 1297 1374 1297 c 0,62,63
 1385 1297 1385 1297 1385 1275 c 2,64,-1
 1385 746 l 2,65,66
 1385 586 1385 586 1419 511 c 128,-1,67
 1453 436 1453 436 1538 436 c 0,68,69
 1586 436 1586 436 1617.5 465.5 c 128,-1,70
 1649 495 1649 495 1649 543 c 0,71,72
 1649 792 1649 792 1550 1142 c 1,73,-1
 1751 1363 l 1,74,75
 1785 1392 1785 1392 1796 1392 c 0,76,77
 1808 1392 1808 1392 1828 1348 c 2,78,-1
 1981 1009 l 2,0,1
643 445 m 1,79,-1
 600 607 l 1,80,81
 411 539 411 539 411 496 c 0,82,83
 411 452 411 452 643 445 c 1,79,-1
EndSplineSet
EndChar

StartChar: afii64184
Encoding: 65010 65010 235
Width: 2022
GlyphClass: 3
Flags: W
AnchorPoint: "Anchor-3" 1725 -405 baselig 0
AnchorPoint: "Anchor-2" 1755 1605 baselig 0
AnchorPoint: "Anchor-3" 1155 -450 baselig 1
AnchorPoint: "Anchor-2" 1230 1275 baselig 1
AnchorPoint: "Anchor-3" 555 -435 baselig 2
AnchorPoint: "Anchor-2" 465 1140 baselig 2
LayerCount: 2
Fore
SplineSet
1242 1935 m 1,0,1
 1263 1866 1263 1866 1263 1768 c 0,2,3
 1263 1598 1263 1598 1187 1598 c 1,4,5
 1187 1658 1187 1658 1180 1716 c 128,-1,6
 1173 1774 1173 1774 1157 1831 c 1,7,-1
 1242 1935 l 1,0,1
1435 1609 m 1,8,9
 1435 1352 1435 1352 1304 1352 c 0,10,11
 1258 1352 1258 1352 1230 1388 c 1,12,13
 1194 1281 1194 1281 1108 1281 c 0,14,15
 1008 1281 1008 1281 1008 1393 c 0,16,17
 1008 1436 1008 1436 1023 1501 c 1,18,-1
 1108 1514 l 1,19,20
 1090 1467 1090 1467 1090 1437 c 0,21,22
 1090 1399 1090 1399 1119 1399 c 0,23,24
 1175 1399 1175 1399 1188 1544 c 1,25,-1
 1278 1571 l 1,26,-1
 1273 1510 l 1,27,28
 1274 1470 1274 1470 1304 1470 c 0,29,30
 1339 1470 1339 1470 1347 1497 c 0,31,32
 1349 1505 1349 1505 1351 1527 c 128,-1,33
 1353 1549 1353 1549 1354 1585 c 1,34,-1
 1435 1609 l 1,8,9
1981 1009 m 2,35,36
 1993 982 1993 982 1993 966 c 0,37,38
 1993 944 1993 944 1964 944 c 0,39,40
 1939 944 1939 944 1882 961 c 1,41,-1
 1907 475 l 2,42,43
 1907 473 1907 473 1907 466.5 c 128,-1,44
 1907 460 1907 460 1907.5 451.5 c 128,-1,45
 1908 443 1908 443 1908 436 c 128,-1,46
 1908 429 1908 429 1908 427 c 0,47,48
 1908 325 1908 325 1884 245 c 128,-1,49
 1860 165 1860 165 1813.5 109.5 c 128,-1,50
 1767 54 1767 54 1699 24.5 c 128,-1,51
 1631 -5 1631 -5 1543 -5 c 0,52,53
 1343 -5 1343 -5 1238 150 c 1,54,55
 1200 106 1200 106 1169 77.5 c 128,-1,56
 1138 49 1138 49 1109 32 c 128,-1,57
 1080 15 1080 15 1050.5 8 c 128,-1,58
 1021 1 1021 1 987 1 c 0,59,60
 762 1 762 1 686 241 c 1,61,62
 679 225 679 225 663 206.5 c 128,-1,63
 647 188 647 188 627 172.5 c 128,-1,64
 607 157 607 157 587 146.5 c 128,-1,65
 567 136 567 136 552 136 c 0,66,67
 458 136 458 136 338 185 c 0,68,69
 177 250 177 250 177 354 c 0,70,71
 177 452 177 452 256 562 c 0,72,73
 278 593 278 593 399 664 c 0,74,75
 505 725 505 725 562 748 c 1,76,-1
 543 826 l 1,77,-1
 734 1023 l 2,78,79
 751 1040 751 1040 761 1040 c 0,80,81
 776 1040 776 1040 782 1005 c 2,82,-1
 855 610 l 2,83,84
 884 455 884 455 1003 455 c 0,85,86
 1112 455 1112 455 1112 587 c 0,87,88
 1112 592 1112 592 1111.5 598 c 128,-1,89
 1111 604 1111 604 1111 611 c 2,90,-1
 1079 1090 l 1,91,-1
 1079 1094 l 2,92,93
 1079 1108 1079 1108 1089 1116 c 2,94,-1
 1361 1292 l 2,95,96
 1369 1297 1369 1297 1374 1297 c 0,97,98
 1385 1297 1385 1297 1385 1275 c 2,99,-1
 1385 746 l 2,100,101
 1385 586 1385 586 1419 511 c 128,-1,102
 1453 436 1453 436 1538 436 c 0,103,104
 1586 436 1586 436 1617.5 465.5 c 128,-1,105
 1649 495 1649 495 1649 543 c 0,106,107
 1649 792 1649 792 1550 1142 c 1,108,-1
 1751 1363 l 1,109,110
 1785 1392 1785 1392 1796 1392 c 0,111,112
 1808 1392 1808 1392 1828 1348 c 2,113,-1
 1981 1009 l 2,35,36
643 445 m 1,114,-1
 600 607 l 1,115,116
 411 539 411 539 411 496 c 0,117,118
 411 452 411 452 643 445 c 1,114,-1
EndSplineSet
Ligature2: "'rlig' Required Ligatures in Arabic lookup 6 subtable" afii62817 afii62818 uni06C1
Ligature2: "'rlig' Required Ligatures in Arabic lookup 5 subtable" afii62817 afii62818 uniFC63 afii62828
Ligature2: "'rlig' Required Ligatures in Arabic lookup 5 subtable" afii62817 afii62818 afii57457 uni0670 afii62828
EndChar

StartChar: afii57415.001
Encoding: 1575 1575 249
Width: 605
GlyphClass: 2
Flags: W
AnchorPoint: "Anchor-1" 345 -420 basechar 0
AnchorPoint: "Anchor-0" 300 1515 basechar 0
LayerCount: 2
Fore
SplineSet
531 522 m 0,0,1
 531 495 531 495 527 458 c 128,-1,2
 523 421 523 421 516.5 379 c 128,-1,3
 510 337 510 337 501.5 294 c 128,-1,4
 493 251 493 251 483 211 c 128,-1,5
 473 171 473 171 462.5 138 c 128,-1,6
 452 105 452 105 442 84 c 0,7,8
 400 -4 400 -4 363 -4 c 0,9,10
 323 -4 323 -4 294 103 c 0,11,12
 253 254 253 254 120 1144 c 1,13,-1
 422 1473 l 2,14,15
 450 1504 450 1504 460 1504 c 0,16,17
 468 1504 468 1504 474 1476 c 0,18,19
 507 1341 507 1341 527 1072 c 128,-1,20
 547 803 547 803 531 522 c 0,0,1
EndSplineSet
Substitution2: "'fina' Terminal Forms in Arabic lookup 3 subtable" afii62760
EndChar

StartChar: afii62760.001
Encoding: 65555 -1 250
Width: 616
GlyphClass: 2
Flags: W
LayerCount: 2
Fore
SplineSet
616 2 m 1,0,-1
 537 2 l 2,1,2
 342 2 342 2 252 98 c 128,-1,3
 162 194 162 194 162 394 c 0,4,5
 162 557 162 557 150 833 c 0,6,7
 136 1123 136 1123 123 1213 c 0,8,9
 122 1218 122 1218 121.5 1223 c 128,-1,10
 121 1228 121 1228 121 1233 c 0,11,12
 121 1264 121 1264 139 1279 c 2,13,-1
 430 1484 l 2,14,15
 460 1505 460 1505 471 1505 c 0,16,17
 484 1505 484 1505 484 1481 c 2,18,-1
 484 600 l 2,19,20
 484 454 484 454 613 454 c 2,21,-1
 616 454 l 1,22,-1
 616 2 l 1,0,-1
EndSplineSet
EndChar

StartChar: afii57421
Encoding: 1581 1581 269
Width: 1300
GlyphClass: 2
Flags: W
AnchorPoint: "Anchor-1" 600 -975 basechar 0
AnchorPoint: "Anchor-0" 690 1185 basechar 0
LayerCount: 2
Fore
SplineSet
1260 850 m 2,0,-1
 1182 581 l 1,1,-1
 1116 581 l 2,2,3
 887 581 887 581 726 468 c 0,4,5
 538 336 538 336 538 104 c 0,6,7
 538 13 538 13 564 -55 c 128,-1,8
 590 -123 590 -123 645 -168 c 128,-1,9
 700 -213 700 -213 786.5 -235 c 128,-1,10
 873 -257 873 -257 994 -256 c 2,11,-1
 1163 -255 l 2,12,13
 1289 -255 1289 -255 1289 -311 c 0,14,15
 1289 -346 1289 -346 1252.5 -375.5 c 128,-1,16
 1216 -405 1216 -405 1148.5 -427 c 128,-1,17
 1081 -449 1081 -449 985 -461.5 c 128,-1,18
 889 -474 889 -474 770 -474 c 0,19,20
 621 -474 621 -474 501.5 -440 c 128,-1,21
 382 -406 382 -406 298 -341 c 128,-1,22
 214 -276 214 -276 168.5 -182 c 128,-1,23
 123 -88 123 -88 123 31 c 0,24,25
 123 395 123 395 687 580 c 1,26,27
 478 607 478 607 442 607 c 0,28,29
 409 607 409 607 383.5 603 c 128,-1,30
 358 599 358 599 335.5 589 c 128,-1,31
 313 579 313 579 291 561.5 c 128,-1,32
 269 544 269 544 244 517 c 0,33,34
 214 485 214 485 187 485 c 0,35,36
 132 485 132 485 132 550 c 0,37,38
 132 646 132 646 192 771 c 0,39,40
 283 958 283 958 451 958 c 0,41,42
 493 958 493 958 556 953 c 128,-1,43
 619 948 619 948 704 938 c 256,44,45
 789 928 789 928 853 923 c 128,-1,46
 917 918 917 918 960 918 c 2,47,-1
 1228 918 l 2,48,49
 1270 918 1270 918 1270 897 c 0,50,51
 1270 883 1270 883 1260 850 c 2,0,-1
EndSplineSet
Substitution2: "'fina' Terminal Forms in Arabic lookup 3 subtable" afii62776
Substitution2: "'medi' Medial Forms in Arabic lookup 2 subtable" afii62775
Substitution2: "'init' Initial Forms in Arabic lookup 0 subtable" afii62774
EndChar

StartChar: afii62776
Encoding: 65186 65186 270
Width: 1353
GlyphClass: 2
Flags: W
AnchorPoint: "Anchor-1" 720 -930 basechar 0
AnchorPoint: "Anchor-0" 750 1200 basechar 0
LayerCount: 2
Fore
SplineSet
1353 1 m 1,0,-1
 1295 1 l 2,1,2
 1226 1 1226 1 1169 30.5 c 128,-1,3
 1112 60 1112 60 1071.5 111.5 c 128,-1,4
 1031 163 1031 163 1008.5 234 c 128,-1,5
 986 305 986 305 986 389 c 0,6,7
 986 469 986 469 1005 548 c 1,8,9
 795 496 795 496 688 410 c 0,10,11
 542 291 542 291 542 84 c 0,12,13
 542 -163 542 -163 770 -245 c 0,14,15
 887 -287 887 -287 1143 -287 c 0,16,17
 1276 -287 1276 -287 1276 -348 c 0,18,19
 1276 -381 1276 -381 1238.5 -406.5 c 128,-1,20
 1201 -432 1201 -432 1141.5 -450 c 128,-1,21
 1082 -468 1082 -468 1008 -477 c 128,-1,22
 934 -486 934 -486 861 -486 c 0,23,24
 688 -486 688 -486 551 -451.5 c 128,-1,25
 414 -417 414 -417 319 -351 c 128,-1,26
 224 -285 224 -285 173 -188.5 c 128,-1,27
 122 -92 122 -92 122 31 c 0,28,29
 122 246 122 246 322 395 c 0,30,31
 452 491 452 491 723 585 c 1,32,33
 605 596 605 596 535 601.5 c 128,-1,34
 465 607 465 607 442 607 c 0,35,36
 359 607 359 607 294 546 c 256,37,38
 229 485 229 485 215 485 c 0,39,40
 161 485 161 485 161 576 c 0,41,42
 161 664 161 664 238 801 c 0,43,44
 339 980 339 980 486 980 c 0,45,46
 581 980 581 980 781 938 c 0,47,48
 983 897 983 897 1085 897 c 2,49,-1
 1273 897 l 2,50,51
 1317 897 1317 897 1317 875 c 0,52,53
 1317 862 1317 862 1306 829 c 2,54,-1
 1207 545 l 1,55,-1
 1105 545 l 1,56,57
 1132 455 1132 455 1291 455 c 2,58,-1
 1353 455 l 1,59,-1
 1353 1 l 1,0,-1
EndSplineSet
EndChar

StartChar: afii62774
Encoding: 65187 65187 271
Width: 1240
GlyphClass: 2
Flags: W
AnchorPoint: "Anchor-1" 555 -450 basechar 0
AnchorPoint: "Anchor-0" 570 1215 basechar 0
LayerCount: 2
Fore
SplineSet
1200 623 m 2,0,-1
 1086 354 l 1,1,-1
 1066 354 l 2,2,3
 917 354 917 354 829 312 c 0,4,5
 768 283 768 283 652 190 c 0,6,7
 595 144 595 144 549.5 113 c 128,-1,8
 504 82 504 82 469 66 c 0,9,10
 325 1 325 1 153 1 c 2,11,-1
 -70 1 l 1,12,-1
 -70 455 l 1,13,-1
 199 455 l 2,14,15
 506 455 506 455 656 511 c 1,16,-1
 457 594 l 2,17,18
 353 637 353 637 306 637 c 0,19,20
 260 637 260 637 200 595 c 0,21,22
 141 553 141 553 124 553 c 0,23,24
 67 553 67 553 67 619 c 0,25,26
 67 691 67 691 163 825 c 0,27,28
 283 991 283 991 427 991 c 0,29,30
 527 991 527 991 679 896 c 0,31,32
 777 834 777 834 845.5 796.5 c 128,-1,33
 914 759 914 759 954 745 c 0,34,35
 988 733 988 733 1044 718 c 128,-1,36
 1100 703 1100 703 1180 686 c 0,37,38
 1211 679 1211 679 1211 661 c 0,39,40
 1211 650 1211 650 1200 623 c 2,0,-1
EndSplineSet
EndChar

StartChar: afii62775
Encoding: 65188 65188 272
Width: 1244
GlyphClass: 2
Flags: W
AnchorPoint: "Anchor-1" 525 -510 basechar 0
AnchorPoint: "Anchor-0" 615 1200 basechar 0
LayerCount: 2
Fore
SplineSet
1244 1 m 1,0,-1
 1078 1 l 2,1,2
 809 1 809 1 726 309 c 1,3,4
 618 165 618 165 434 80 c 0,5,6
 260 1 260 1 70 1 c 2,7,-1
 -70 1 l 1,8,-1
 -70 455 l 1,9,-1
 143 455 l 2,10,11
 432 455 432 455 651 559 c 1,12,13
 391 637 391 637 323 637 c 0,14,15
 260 637 260 637 207 584 c 256,16,17
 154 531 154 531 120 531 c 0,18,19
 63 531 63 531 63 613 c 0,20,21
 63 702 63 702 140 839 c 0,22,23
 239 1014 239 1014 381 1014 c 0,24,25
 457 1014 457 1014 683 937 c 0,26,27
 911 860 911 860 1040 860 c 2,28,-1
 1155 860 l 2,29,30
 1191 860 1191 860 1191 845 c 0,31,32
 1191 838 1191 838 1183 811 c 2,33,-1
 1086 505 l 1,34,-1
 900 505 l 1,35,36
 947 455 947 455 1089 455 c 2,37,-1
 1244 455 l 1,38,-1
 1244 1 l 1,0,-1
EndSplineSet
EndChar

StartChar: afii57423
Encoding: 1583 1583 277
Width: 1024
GlyphClass: 2
Flags: W
AnchorPoint: "Anchor-1" 405 -480 basechar 0
AnchorPoint: "Anchor-0" 525 1290 basechar 0
LayerCount: 2
Fore
SplineSet
966 492 m 0,0,1
 966 3 966 3 509 3 c 0,2,3
 121 3 121 3 121 340 c 0,4,5
 121 360 121 360 126 394.5 c 128,-1,6
 131 429 131 429 139 466 c 128,-1,7
 147 503 147 503 156 536.5 c 128,-1,8
 165 570 165 570 173 588 c 0,9,10
 194 634 194 634 229 634 c 0,11,12
 265 634 265 634 282 577 c 0,13,14
 308 484 308 484 352 460 c 0,15,16
 401 433 401 433 561 433 c 0,17,18
 758 433 758 433 758 481 c 0,19,20
 758 500 758 500 728 532 c 0,21,22
 620 644 620 644 352 785 c 1,23,-1
 509 1119 l 2,24,25
 523 1148 523 1148 536 1148 c 0,26,27
 544 1148 544 1148 562 1139 c 0,28,29
 672 1083 672 1083 782 957 c 0,30,31
 966 748 966 748 966 492 c 0,0,1
EndSplineSet
Substitution2: "'fina' Terminal Forms in Arabic lookup 3 subtable" afii62780
PairPos2: "'kern' Horizontal Kerning in Arabic lookup 0 subtable" uni06B7.init dx=-50 dy=0 dh=-50 dv=0 dx=0 dy=0 dh=0 dv=0
PairPos2: "'kern' Horizontal Kerning in Arabic lookup 0 subtable" uni06B6.init dx=-50 dy=0 dh=-50 dv=0 dx=0 dy=0 dh=0 dv=0
PairPos2: "'kern' Horizontal Kerning in Arabic lookup 0 subtable" uni06B5.init dx=-50 dy=0 dh=-50 dv=0 dx=0 dy=0 dh=0 dv=0
PairPos2: "'kern' Horizontal Kerning in Arabic lookup 0 subtable" uni06B4.init dx=-100 dy=0 dh=-100 dv=0 dx=0 dy=0 dh=0 dv=0
PairPos2: "'kern' Horizontal Kerning in Arabic lookup 0 subtable" uni06B4 dx=-100 dy=0 dh=-100 dv=0 dx=0 dy=0 dh=0 dv=0
PairPos2: "'kern' Horizontal Kerning in Arabic lookup 0 subtable" uniFB98 dx=-100 dy=0 dh=-100 dv=0 dx=0 dy=0 dh=0 dv=0
PairPos2: "'kern' Horizontal Kerning in Arabic lookup 0 subtable" uni06B3 dx=-100 dy=0 dh=-100 dv=0 dx=0 dy=0 dh=0 dv=0
PairPos2: "'kern' Horizontal Kerning in Arabic lookup 0 subtable" uni06B2.init dx=-100 dy=0 dh=-100 dv=0 dx=0 dy=0 dh=0 dv=0
PairPos2: "'kern' Horizontal Kerning in Arabic lookup 0 subtable" uniFB9C dx=-100 dy=0 dh=-100 dv=0 dx=0 dy=0 dh=0 dv=0
PairPos2: "'kern' Horizontal Kerning in Arabic lookup 0 subtable" uni06B1 dx=-100 dy=0 dh=-100 dv=0 dx=0 dy=0 dh=0 dv=0
PairPos2: "'kern' Horizontal Kerning in Arabic lookup 0 subtable" uni06B0.init dx=-100 dy=0 dh=-100 dv=0 dx=0 dy=0 dh=0 dv=0
PairPos2: "'kern' Horizontal Kerning in Arabic lookup 0 subtable" uni06B0 dx=-100 dy=0 dh=-100 dv=0 dx=0 dy=0 dh=0 dv=0
PairPos2: "'kern' Horizontal Kerning in Arabic lookup 0 subtable" uni06AE.init dx=-150 dy=0 dh=-150 dv=0 dx=0 dy=0 dh=0 dv=0
PairPos2: "'kern' Horizontal Kerning in Arabic lookup 0 subtable" uni06AE dx=-50 dy=0 dh=-50 dv=0 dx=0 dy=0 dh=0 dv=0
PairPos2: "'kern' Horizontal Kerning in Arabic lookup 0 subtable" uniFBD5 dx=-150 dy=0 dh=-150 dv=0 dx=0 dy=0 dh=0 dv=0
PairPos2: "'kern' Horizontal Kerning in Arabic lookup 0 subtable" uni06AD dx=-50 dy=0 dh=-50 dv=0 dx=0 dy=0 dh=0 dv=0
PairPos2: "'kern' Horizontal Kerning in Arabic lookup 0 subtable" uni06AB.init dx=-150 dy=0 dh=-150 dv=0 dx=0 dy=0 dh=0 dv=0
PairPos2: "'kern' Horizontal Kerning in Arabic lookup 0 subtable" uni06AB dx=-50 dy=0 dh=-50 dv=0 dx=0 dy=0 dh=0 dv=0
PairPos2: "'kern' Horizontal Kerning in Arabic lookup 0 subtable" uni06AB.init dx=-150 dy=0 dh=-150 dv=0 dx=0 dy=0 dh=0 dv=0
PairPos2: "'kern' Horizontal Kerning in Arabic lookup 0 subtable" uni06AB.001 dx=-100 dy=0 dh=-100 dv=0 dx=0 dy=0 dh=0 dv=0
PairPos2: "'kern' Horizontal Kerning in Arabic lookup 0 subtable" afii62840 dx=-130 dy=0 dh=-130 dv=0 dx=0 dy=0 dh=0 dv=0
PairPos2: "'kern' Horizontal Kerning in Arabic lookup 0 subtable" afii62838 dx=-130 dy=0 dh=-130 dv=0 dx=0 dy=0 dh=0 dv=0
PairPos2: "'kern' Horizontal Kerning in Arabic lookup 0 subtable" afii62836 dx=-130 dy=0 dh=-130 dv=0 dx=0 dy=0 dh=0 dv=0
PairPos2: "'kern' Horizontal Kerning in Arabic lookup 0 subtable" afii62834 dx=-130 dy=0 dh=-130 dv=0 dx=0 dy=0 dh=0 dv=0
PairPos2: "'kern' Horizontal Kerning in Arabic lookup 0 subtable" afii62817 dx=-50 dy=0 dh=-50 dv=0 dx=0 dy=0 dh=0 dv=0
PairPos2: "'kern' Horizontal Kerning in Arabic lookup 0 subtable" afii57410 dx=-150 dy=0 dh=-150 dv=0 dx=0 dy=0 dh=0 dv=0
PairPos2: "'kern' Horizontal Kerning in Arabic lookup 0 subtable" afii57443 dx=-50 dy=0 dh=-50 dv=0 dx=0 dy=0 dh=0 dv=0
PairPos2: "'kern' Horizontal Kerning in Arabic lookup 0 subtable" afii62965 dx=-100 dy=0 dh=-100 dv=0 dx=0 dy=0 dh=0 dv=0
PairPos2: "'kern' Horizontal Kerning in Arabic lookup 0 subtable" afii57509 dx=-100 dy=0 dh=-100 dv=0 dx=0 dy=0 dh=0 dv=0
PairPos2: "'kern' Horizontal Kerning in Arabic lookup 0 subtable" afii52305 dx=-150 dy=0 dh=-150 dv=0 dx=0 dy=0 dh=0 dv=0
PairPos2: "'kern' Horizontal Kerning in Arabic lookup 0 subtable" afii57567 dx=-100 dy=0 dh=-100 dv=0 dx=0 dy=0 dh=0 dv=0
EndChar

StartChar: afii62780
Encoding: 65194 65194 278
Width: 1182
GlyphClass: 2
Flags: W
AnchorPoint: "Anchor-1" 510 -480 basechar 0
AnchorPoint: "Anchor-0" 600 1245 basechar 0
LayerCount: 2
Fore
SplineSet
1182 1 m 1,0,-1
 1124 1 l 2,1,2
 933 1 933 1 811 249 c 1,3,4
 768 173 768 173 729 120 c 128,-1,5
 690 67 690 67 653 38 c 0,6,7
 564 -33 564 -33 429 -33 c 0,8,9
 123 -33 123 -33 123 326 c 0,10,11
 123 403 123 403 145 490 c 0,12,13
 175 611 175 611 228 611 c 0,14,15
 284 611 284 611 300 556 c 0,16,17
 328 464 328 464 336 454 c 0,18,19
 376 399 376 399 482 399 c 0,20,21
 521 399 521 399 561.5 406 c 128,-1,22
 602 413 602 413 634.5 424 c 128,-1,23
 667 435 667 435 688 450 c 128,-1,24
 709 465 709 465 709 482 c 0,25,26
 709 487 709 487 706 495 c 2,27,-1
 540 892 l 1,28,-1
 762 1116 l 2,29,30
 778 1132 778 1132 786 1132 c 0,31,32
 793 1132 793 1132 802 1108 c 2,33,-1
 990 591 l 2,34,35
 1039 455 1039 455 1136 455 c 2,36,-1
 1182 455 l 1,37,-1
 1182 1 l 1,0,-1
EndSplineSet
PairPos2: "'kern' Horizontal Kerning in Arabic lookup 0 subtable" uni06B7.init dx=-100 dy=0 dh=-100 dv=0 dx=0 dy=0 dh=0 dv=0
PairPos2: "'kern' Horizontal Kerning in Arabic lookup 0 subtable" uni06B6.init dx=-100 dy=0 dh=-100 dv=0 dx=0 dy=0 dh=0 dv=0
PairPos2: "'kern' Horizontal Kerning in Arabic lookup 0 subtable" uni06B5.init dx=-100 dy=0 dh=-100 dv=0 dx=0 dy=0 dh=0 dv=0
PairPos2: "'kern' Horizontal Kerning in Arabic lookup 0 subtable" uni06B4.init dx=-150 dy=0 dh=-150 dv=0 dx=0 dy=0 dh=0 dv=0
PairPos2: "'kern' Horizontal Kerning in Arabic lookup 0 subtable" uni06B4 dx=-150 dy=0 dh=-150 dv=0 dx=0 dy=0 dh=0 dv=0
PairPos2: "'kern' Horizontal Kerning in Arabic lookup 0 subtable" uniFB98 dx=-150 dy=0 dh=-150 dv=0 dx=0 dy=0 dh=0 dv=0
PairPos2: "'kern' Horizontal Kerning in Arabic lookup 0 subtable" uni06B3 dx=-150 dy=0 dh=-150 dv=0 dx=0 dy=0 dh=0 dv=0
PairPos2: "'kern' Horizontal Kerning in Arabic lookup 0 subtable" uni06B2.init dx=-150 dy=0 dh=-150 dv=0 dx=0 dy=0 dh=0 dv=0
PairPos2: "'kern' Horizontal Kerning in Arabic lookup 0 subtable" uniFB9C dx=-150 dy=0 dh=-150 dv=0 dx=0 dy=0 dh=0 dv=0
PairPos2: "'kern' Horizontal Kerning in Arabic lookup 0 subtable" uni06B1 dx=-150 dy=0 dh=-150 dv=0 dx=0 dy=0 dh=0 dv=0
PairPos2: "'kern' Horizontal Kerning in Arabic lookup 0 subtable" uni06B0.init dx=-150 dy=0 dh=-150 dv=0 dx=0 dy=0 dh=0 dv=0
PairPos2: "'kern' Horizontal Kerning in Arabic lookup 0 subtable" uni06B0 dx=-150 dy=0 dh=-150 dv=0 dx=0 dy=0 dh=0 dv=0
PairPos2: "'kern' Horizontal Kerning in Arabic lookup 0 subtable" uni06AE.init dx=-150 dy=0 dh=-150 dv=0 dx=0 dy=0 dh=0 dv=0
PairPos2: "'kern' Horizontal Kerning in Arabic lookup 0 subtable" uni06AE dx=-60 dy=0 dh=-60 dv=0 dx=0 dy=0 dh=0 dv=0
PairPos2: "'kern' Horizontal Kerning in Arabic lookup 0 subtable" uniFBD5 dx=-150 dy=0 dh=-150 dv=0 dx=0 dy=0 dh=0 dv=0
PairPos2: "'kern' Horizontal Kerning in Arabic lookup 0 subtable" uni06AD dx=-60 dy=0 dh=-60 dv=0 dx=0 dy=0 dh=0 dv=0
PairPos2: "'kern' Horizontal Kerning in Arabic lookup 0 subtable" uni06AB.init dx=-150 dy=0 dh=-150 dv=0 dx=0 dy=0 dh=0 dv=0
PairPos2: "'kern' Horizontal Kerning in Arabic lookup 0 subtable" uni06AB dx=-60 dy=0 dh=-60 dv=0 dx=0 dy=0 dh=0 dv=0
PairPos2: "'kern' Horizontal Kerning in Arabic lookup 0 subtable" uni06AB.init dx=-150 dy=0 dh=-150 dv=0 dx=0 dy=0 dh=0 dv=0
PairPos2: "'kern' Horizontal Kerning in Arabic lookup 0 subtable" uni06AB.001 dx=-150 dy=0 dh=-150 dv=0 dx=0 dy=0 dh=0 dv=0
PairPos2: "'kern' Horizontal Kerning in Arabic lookup 0 subtable" uni06A0 dx=-70 dy=0 dh=-70 dv=0 dx=0 dy=0 dh=0 dv=0
PairPos2: "'kern' Horizontal Kerning in Arabic lookup 0 subtable" afii62840 dx=-70 dy=0 dh=-70 dv=0 dx=0 dy=0 dh=0 dv=0
PairPos2: "'kern' Horizontal Kerning in Arabic lookup 0 subtable" afii62838 dx=-70 dy=0 dh=-70 dv=0 dx=0 dy=0 dh=0 dv=0
PairPos2: "'kern' Horizontal Kerning in Arabic lookup 0 subtable" afii62836 dx=-70 dy=0 dh=-70 dv=0 dx=0 dy=0 dh=0 dv=0
PairPos2: "'kern' Horizontal Kerning in Arabic lookup 0 subtable" afii62834 dx=-70 dy=0 dh=-70 dv=0 dx=0 dy=0 dh=0 dv=0
PairPos2: "'kern' Horizontal Kerning in Arabic lookup 0 subtable" afii62817 dx=-100 dy=0 dh=-100 dv=0 dx=0 dy=0 dh=0 dv=0
PairPos2: "'kern' Horizontal Kerning in Arabic lookup 0 subtable" afii57410 dx=-150 dy=0 dh=-150 dv=0 dx=0 dy=0 dh=0 dv=0
PairPos2: "'kern' Horizontal Kerning in Arabic lookup 0 subtable" afii57443 dx=-60 dy=0 dh=-60 dv=0 dx=0 dy=0 dh=0 dv=0
PairPos2: "'kern' Horizontal Kerning in Arabic lookup 0 subtable" afii57434 dx=-70 dy=0 dh=-70 dv=0 dx=0 dy=0 dh=0 dv=0
PairPos2: "'kern' Horizontal Kerning in Arabic lookup 0 subtable" afii57433 dx=-70 dy=0 dh=-70 dv=0 dx=0 dy=0 dh=0 dv=0
PairPos2: "'kern' Horizontal Kerning in Arabic lookup 0 subtable" afii52400 dx=-100 dy=0 dh=-100 dv=0 dx=0 dy=0 dh=0 dv=0
PairPos2: "'kern' Horizontal Kerning in Arabic lookup 0 subtable" afii62965 dx=-150 dy=0 dh=-150 dv=0 dx=0 dy=0 dh=0 dv=0
PairPos2: "'kern' Horizontal Kerning in Arabic lookup 0 subtable" afii57509 dx=-150 dy=0 dh=-150 dv=0 dx=0 dy=0 dh=0 dv=0
PairPos2: "'kern' Horizontal Kerning in Arabic lookup 0 subtable" afii52305 dx=-150 dy=0 dh=-150 dv=0 dx=0 dy=0 dh=0 dv=0
PairPos2: "'kern' Horizontal Kerning in Arabic lookup 0 subtable" afii57567 dx=-150 dy=0 dh=-150 dv=0 dx=0 dy=0 dh=0 dv=0
EndChar

